<svg xmlns="http://www.w3.org/2000/svg" class="h-record" viewBox="0 0 429.85 120"><g transform="translate(10 10)"><rect class="g" x="0.78" y="0.78" width="9.56" height="9.56" rx="1.1" fill="#DED7C9"/><rect class="g" x="11.89" y="0.78" width="9.56" height="9.56" rx="1.1" fill="#DED7C9"/><rect class="g" x="23" y="0.78" width="9.56" height="9.56" rx="1.1" fill="#DED7C9"/><rect class="g" x="34.11" y="0.78" width="9.56" height="9.56" rx="1.1" fill="#DED7C9"/><rect class="g" x="45.22" y="0.78" width="9.56" height="9.56" rx="1.1" fill="#DED7C9"/><rect class="g" x="56.33" y="0.78" width="9.56" height="9.56" rx="1.1" fill="#DED7C9"/><rect class="g" x="67.44" y="0.78" width="9.56" height="9.56" rx="1.1" fill="#DED7C9"/><rect class="g" x="78.56" y="0.78" width="9.56" height="9.56" rx="1.1" fill="#DED7C9"/><rect class="g" x="89.67" y="0.78" width="9.56" height="9.56" rx="1.1" fill="#DED7C9"/><rect class="g" x="0.78" y="11.89" width="9.56" height="9.56" rx="1.1" fill="#DED7C9"/><rect class="g" x="11.89" y="11.89" width="9.56" height="9.56" rx="1.1" fill="#DED7C9"/><rect class="g" x="23" y="11.89" width="9.56" height="9.56" rx="1.1" fill="#DED7C9"/><rect class="g" x="34.11" y="11.89" width="9.56" height="9.56" rx="1.1" fill="#DED7C9"/><rect class="g" x="45.22" y="11.89" width="9.56" height="9.56" rx="1.1" fill="#DED7C9"/><rect class="g" x="56.33" y="11.89" width="9.56" height="9.56" rx="1.1" fill="#DED7C9"/><rect class="g" x="67.44" y="11.89" width="9.56" height="9.56" rx="1.1" fill="#DED7C9"/><rect class="g" x="78.56" y="11.89" width="9.56" height="9.56" rx="1.1" fill="#DED7C9"/><rect class="g" x="89.67" y="11.89" width="9.56" height="9.56" rx="1.1" fill="#DED7C9"/><rect class="g" x="0.78" y="23" width="9.56" height="9.56" rx="1.1" fill="#DED7C9"/><rect class="g" x="11.89" y="23" width="9.56" height="9.56" rx="1.1" fill="#DED7C9"/><rect class="g" x="23" y="23" width="9.56" height="9.56" rx="1.1" fill="#DED7C9"/><rect class="g" x="34.11" y="23" width="9.56" height="9.56" rx="1.1" fill="#DED7C9"/><rect class="g" x="45.22" y="23" width="9.56" height="9.56" rx="1.1" fill="#DED7C9"/><rect class="g" x="56.33" y="23" width="9.56" height="9.56" rx="1.1" fill="#DED7C9"/><rect class="g" x="67.44" y="23" width="9.56" height="9.56" rx="1.1" fill="#DED7C9"/><rect class="g" x="78.56" y="23" width="9.56" height="9.56" rx="1.1" fill="#DED7C9"/><rect class="g" x="89.67" y="23" width="9.56" height="9.56" rx="1.1" fill="#DED7C9"/><rect class="g" x="0.78" y="34.11" width="9.56" height="9.56" rx="1.1" fill="#DED7C9"/><rect class="g" x="11.89" y="34.11" width="9.56" height="9.56" rx="1.1" fill="#DED7C9"/><rect class="g" x="23" y="34.11" width="9.56" height="9.56" rx="1.1" fill="#DED7C9"/><rect class="g" x="34.11" y="34.11" width="9.56" height="9.56" rx="1.1" fill="#DED7C9"/><rect class="g" x="45.22" y="34.11" width="9.56" height="9.56" rx="1.1" fill="#DED7C9"/><rect class="g" x="56.33" y="34.11" width="9.56" height="9.56" rx="1.1" fill="#DED7C9"/><rect class="g" x="67.44" y="34.11" width="9.56" height="9.56" rx="1.1" fill="#DED7C9"/><rect class="g" x="78.56" y="34.11" width="9.56" height="9.56" rx="1.1" fill="#DED7C9"/><rect class="g" x="89.67" y="34.11" width="9.56" height="9.56" rx="1.1" fill="#DED7C9"/><rect class="g" x="0.78" y="45.22" width="9.56" height="9.56" rx="1.1" fill="#DED7C9"/><rect class="g" x="11.89" y="45.22" width="9.56" height="9.56" rx="1.1" fill="#DED7C9"/><rect class="g" x="23" y="45.22" width="9.56" height="9.56" rx="1.1" fill="#DED7C9"/><rect class="g" x="34.11" y="45.22" width="9.56" height="9.56" rx="1.1" fill="#DED7C9"/><rect class="g" x="45.22" y="45.22" width="9.56" height="9.56" rx="1.1" fill="#DED7C9"/><rect class="g" x="56.33" y="45.22" width="9.56" height="9.56" rx="1.1" fill="#DED7C9"/><rect class="g" x="67.44" y="45.22" width="9.56" height="9.56" rx="1.1" fill="#DED7C9"/><rect class="g" x="78.56" y="45.22" width="9.56" height="9.56" rx="1.1" fill="#DED7C9"/><rect class="g" x="89.67" y="45.22" width="9.56" height="9.56" rx="1.1" fill="#DED7C9"/><rect class="g" x="0.78" y="56.33" width="9.56" height="9.56" rx="1.1" fill="#DED7C9"/><rect class="g" x="11.89" y="56.33" width="9.56" height="9.56" rx="1.1" fill="#DED7C9"/><rect class="g" x="23" y="56.33" width="9.56" height="9.56" rx="1.1" fill="#DED7C9"/><rect class="g" x="34.11" y="56.33" width="9.56" height="9.56" rx="1.1" fill="#DED7C9"/><rect class="g" x="45.22" y="56.33" width="9.56" height="9.56" rx="1.1" fill="#DED7C9"/><rect class="g" x="56.33" y="56.33" width="9.56" height="9.56" rx="1.1" fill="#DED7C9"/><rect class="g" x="67.44" y="56.33" width="9.56" height="9.56" rx="1.1" fill="#DED7C9"/><rect class="g" x="78.56" y="56.33" width="9.56" height="9.56" rx="1.1" fill="#DED7C9"/><rect class="g" x="89.67" y="56.33" width="9.56" height="9.56" rx="1.1" fill="#DED7C9"/><rect class="g" x="0.78" y="67.44" width="9.56" height="9.56" rx="1.1" fill="#DED7C9"/><rect class="g" x="11.89" y="67.44" width="9.56" height="9.56" rx="1.1" fill="#DED7C9"/><rect class="g" x="23" y="67.44" width="9.56" height="9.56" rx="1.1" fill="#DED7C9"/><rect class="g" x="34.11" y="67.44" width="9.56" height="9.56" rx="1.1" fill="#DED7C9"/><rect class="g" x="45.22" y="67.44" width="9.56" height="9.56" rx="1.1" fill="#DED7C9"/><rect class="g" x="56.33" y="67.44" width="9.56" height="9.56" rx="1.1" fill="#DED7C9"/><rect class="g" x="67.44" y="67.44" width="9.56" height="9.56" rx="1.1" fill="#DED7C9"/><rect class="g" x="78.56" y="67.44" width="9.56" height="9.56" rx="1.1" fill="#DED7C9"/><rect class="g" x="89.67" y="67.44" width="9.56" height="9.56" rx="1.1" fill="#DED7C9"/><rect class="g" x="0.78" y="78.56" width="9.56" height="9.56" rx="1.1" fill="#DED7C9"/><rect class="g" x="11.89" y="78.56" width="9.56" height="9.56" rx="1.1" fill="#DED7C9"/><rect class="g" x="23" y="78.56" width="9.56" height="9.56" rx="1.1" fill="#DED7C9"/><rect class="g" x="34.11" y="78.56" width="9.56" height="9.56" rx="1.1" fill="#DED7C9"/><rect class="g" x="45.22" y="78.56" width="9.56" height="9.56" rx="1.1" fill="#DED7C9"/><rect class="g" x="56.33" y="78.56" width="9.56" height="9.56" rx="1.1" fill="#DED7C9"/><rect class="g" x="67.44" y="78.56" width="9.56" height="9.56" rx="1.1" fill="#DED7C9"/><rect class="g" x="78.56" y="78.56" width="9.56" height="9.56" rx="1.1" fill="#DED7C9"/><rect class="g" x="89.67" y="78.56" width="9.56" height="9.56" rx="1.1" fill="#DED7C9"/><rect class="g" x="0.78" y="89.67" width="9.56" height="9.56" rx="1.1" fill="#DED7C9"/><rect class="g" x="11.89" y="89.67" width="9.56" height="9.56" rx="1.1" fill="#DED7C9"/><rect class="g" x="23" y="89.67" width="9.56" height="9.56" rx="1.1" fill="#DED7C9"/><rect class="g" x="34.11" y="89.67" width="9.56" height="9.56" rx="1.1" fill="#DED7C9"/><rect class="g" x="45.22" y="89.67" width="9.56" height="9.56" rx="1.1" fill="#DED7C9"/><rect class="g" x="56.33" y="89.67" width="9.56" height="9.56" rx="1.1" fill="#DED7C9"/><rect class="g" x="67.44" y="89.67" width="9.56" height="9.56" rx="1.1" fill="#DED7C9"/><rect class="g" x="78.56" y="89.67" width="9.56" height="9.56" rx="1.1" fill="#DED7C9"/><rect class="g" x="89.67" y="89.67" width="9.56" height="9.56" rx="1.1" fill="#DED7C9"/><rect class="tile" style="--d:1.18s" x="24.88" y="2.66" width="5.79" height="5.79" rx="0.69" fill="#7FA87A"/><rect class="tile" style="--d:1.21s" x="34.78" y="1.45" width="8.21" height="8.21" rx="0.99" fill="#7FA87A"/><rect class="tile" style="--d:0.35s" x="45.55" y="1.11" width="8.9" height="8.9" rx="1.07" fill="#7FA87A"/><rect class="tile" style="--d:0.39s" x="57.01" y="1.45" width="8.21" height="8.21" rx="0.99" fill="#7FA87A"/><rect class="tile" style="--d:0.42s" x="69.33" y="2.66" width="5.79" height="5.79" rx="0.69" fill="#7FA87A"/><rect class="tile" style="--d:1.14s" x="12.85" y="12.85" width="7.62" height="7.62" rx="0.91" fill="#7FA87A"/><rect class="tile" style="--d:1.17s" x="23" y="11.89" width="9.56" height="9.56" rx="1.1" fill="#7FA87A"/><rect class="tile" style="--d:1.20s" x="34.11" y="11.89" width="9.56" height="9.56" rx="1.1" fill="#7FA87A"/><rect class="tile" style="--d:0.35s" x="45.22" y="11.89" width="9.56" height="9.56" rx="1.1" fill="#7FA87A"/><rect class="tile" style="--d:0.40s" x="56.33" y="11.89" width="9.56" height="9.56" rx="1.1" fill="#7FA87A"/><rect class="tile" style="--d:0.43s" x="67.44" y="11.89" width="9.56" height="9.56" rx="1.1" fill="#7FA87A"/><rect class="tile" style="--d:0.46s" x="79.52" y="12.85" width="7.62" height="7.62" rx="0.91" fill="#7FA87A"/><rect class="tile" style="--d:1.09s" x="2.66" y="24.88" width="5.79" height="5.79" rx="0.69" fill="#7FA87A"/><rect class="tile" style="--d:1.11s" x="11.89" y="23" width="9.56" height="9.56" rx="1.1" fill="#7FA87A"/><rect class="tile" style="--d:1.14s" x="23" y="23" width="9.56" height="9.56" rx="1.1" fill="#7FA87A"/><rect class="tile" style="--d:1.18s" x="34.11" y="23" width="9.56" height="9.56" rx="1.1" fill="#7FA87A"/><rect class="tile" style="--d:0.35s" x="45.22" y="23" width="9.56" height="9.56" rx="1.1" fill="#7FA87A"/><rect class="tile" style="--d:0.42s" x="56.33" y="23" width="9.56" height="9.56" rx="1.1" fill="#7FA87A"/><rect class="tile" style="--d:0.46s" x="67.44" y="23" width="9.56" height="9.56" rx="1.1" fill="#7FA87A"/><rect class="tile" style="--d:0.49s" x="78.56" y="23" width="9.56" height="9.56" rx="1.1" fill="#7FA87A"/><rect class="tile" style="--d:0.51s" x="91.55" y="24.88" width="5.79" height="5.79" rx="0.69" fill="#7FA87A"/><rect class="tile" style="--d:1.06s" x="1.45" y="34.78" width="8.21" height="8.21" rx="0.99" fill="#7FA87A"/><rect class="tile" style="--d:1.07s" x="11.89" y="34.11" width="9.56" height="9.56" rx="1.1" fill="#7FA87A"/><rect class="tile" style="--d:1.09s" x="23" y="34.11" width="9.56" height="9.56" rx="1.1" fill="#7FA87A"/><rect class="tile" style="--d:1.14s" x="34.25" y="34.25" width="9.27" height="9.27" rx="1.1" fill="#7FA87A"/><rect class="tile" style="--d:0.35s" x="46.29" y="35.18" width="7.41" height="7.41" rx="0.89" fill="#7FA87A"/><rect class="tile" style="--d:0.46s" x="56.48" y="34.25" width="9.27" height="9.27" rx="1.1" fill="#7FA87A"/><rect class="tile" style="--d:0.51s" x="67.44" y="34.11" width="9.56" height="9.56" rx="1.1" fill="#7FA87A"/><rect class="tile" style="--d:0.53s" x="78.56" y="34.11" width="9.56" height="9.56" rx="1.1" fill="#7FA87A"/><rect class="tile" style="--d:0.54s" x="90.34" y="34.78" width="8.21" height="8.21" rx="0.99" fill="#7FA87A"/><rect class="tile" style="--d:1.02s" x="1.11" y="45.55" width="8.9" height="8.9" rx="1.07" fill="#7FA87A"/><rect class="tile" style="--d:1.02s" x="11.89" y="45.22" width="9.56" height="9.56" rx="1.1" fill="#7FA87A"/><rect class="tile" style="--d:1.02s" x="23" y="45.22" width="9.56" height="9.56" rx="1.1" fill="#7FA87A"/><rect class="tile" style="--d:1.02s" x="35.18" y="46.29" width="7.41" height="7.41" rx="0.89" fill="#7FA87A"/><rect class="tile" style="--d:0.57s" x="57.41" y="46.29" width="7.41" height="7.41" rx="0.89" fill="#7FA87A"/><rect class="tile" style="--d:0.57s" x="67.44" y="45.22" width="9.56" height="9.56" rx="1.1" fill="#7FA87A"/><rect class="tile" style="--d:0.57s" x="78.56" y="45.22" width="9.56" height="9.56" rx="1.1" fill="#7FA87A"/><rect class="tile" style="--d:0.57s" x="90" y="45.55" width="8.9" height="8.9" rx="1.07" fill="#7FA87A"/><rect class="tile" style="--d:0.99s" x="1.45" y="57.01" width="8.21" height="8.21" rx="0.99" fill="#7FA87A"/><rect class="tile" style="--d:0.98s" x="11.89" y="56.33" width="9.56" height="9.56" rx="1.1" fill="#7FA87A"/><rect class="tile" style="--d:0.96s" x="23" y="56.33" width="9.56" height="9.56" rx="1.1" fill="#7FA87A"/><rect class="tile" style="--d:0.91s" x="34.25" y="56.48" width="9.27" height="9.27" rx="1.1" fill="#7FA87A"/><rect class="tile" style="--d:0.80s" x="46.29" y="57.41" width="7.41" height="7.41" rx="0.89" fill="#7FA87A"/><rect class="tile" style="--d:0.69s" x="56.48" y="56.48" width="9.27" height="9.27" rx="1.1" fill="#7FA87A"/><rect class="tile" style="--d:0.64s" x="67.44" y="56.33" width="9.56" height="9.56" rx="1.1" fill="#7FA87A"/><rect class="tile" style="--d:0.62s" x="78.56" y="56.33" width="9.56" height="9.56" rx="1.1" fill="#7FA87A"/><rect class="tile" style="--d:0.61s" x="90.34" y="57.01" width="8.21" height="8.21" rx="0.99" fill="#7FA87A"/><rect class="tile" style="--d:0.96s" x="2.66" y="69.33" width="5.79" height="5.79" rx="0.69" fill="#7FA87A"/><rect class="tile" style="--d:0.94s" x="11.89" y="67.44" width="9.56" height="9.56" rx="1.1" fill="#7FA87A"/><rect class="tile" style="--d:0.91s" x="23" y="67.44" width="9.56" height="9.56" rx="1.1" fill="#7FA87A"/><rect class="tile" style="--d:0.87s" x="34.11" y="67.44" width="9.56" height="9.56" rx="1.1" fill="#7FA87A"/><rect class="tile" style="--d:0.80s" x="45.22" y="67.44" width="9.56" height="9.56" rx="1.1" fill="#7FA87A"/><rect class="tile" style="--d:0.73s" x="56.33" y="67.44" width="9.56" height="9.56" rx="1.1" fill="#7FA87A"/><rect class="tile" style="--d:0.69s" x="67.44" y="67.44" width="9.56" height="9.56" rx="1.1" fill="#7FA87A"/><rect class="tile" style="--d:0.66s" x="78.56" y="67.44" width="9.56" height="9.56" rx="1.1" fill="#7FA87A"/><rect class="tile" style="--d:0.64s" x="91.55" y="69.33" width="5.79" height="5.79" rx="0.69" fill="#7FA87A"/><rect class="tile" style="--d:0.91s" x="12.85" y="79.52" width="7.62" height="7.62" rx="0.91" fill="#7FA87A"/><rect class="tile" style="--d:0.88s" x="23" y="78.56" width="9.56" height="9.56" rx="1.1" fill="#7FA87A"/><rect class="tile" style="--d:0.85s" x="34.11" y="78.56" width="9.56" height="9.56" rx="1.1" fill="#7FA87A"/><rect class="tile" style="--d:0.80s" x="45.22" y="78.56" width="9.56" height="9.56" rx="1.1" fill="#7FA87A"/><rect class="tile" style="--d:0.75s" x="56.33" y="78.56" width="9.56" height="9.56" rx="1.1" fill="#7FA87A"/><rect class="tile" style="--d:0.72s" x="67.44" y="78.56" width="9.56" height="9.56" rx="1.1" fill="#7FA87A"/><rect class="tile" style="--d:0.69s" x="79.52" y="79.52" width="7.62" height="7.62" rx="0.91" fill="#7FA87A"/><rect class="tile" style="--d:0.87s" x="24.88" y="91.55" width="5.79" height="5.79" rx="0.69" fill="#7FA87A"/><rect class="tile" style="--d:0.84s" x="34.78" y="90.34" width="8.21" height="8.21" rx="0.99" fill="#7FA87A"/><rect class="tile" style="--d:0.80s" x="45.55" y="90" width="8.9" height="8.9" rx="1.07" fill="#7FA87A"/><rect class="tile" style="--d:0.76s" x="57.01" y="90.34" width="8.21" height="8.21" rx="0.99" fill="#7FA87A"/><rect class="tile" style="--d:0.73s" x="69.33" y="91.55" width="5.79" height="5.79" rx="0.69" fill="#7FA87A"/></g><g class="wm wm-fade" transform="translate(137.19 78.12)" fill="#17150F"><g class="ch" style="--i:0"><path d="M0.81 -28.13H12.18V0H21.75V-28.13H33.18V-36.25H0.81Z"/></g><g class="ch" style="--i:1"><path d="M72.08 -8.12H52.07V-14.44H69.82V-21.92H52.07V-28.13H72.08V-36.25H42.5V0H72.08Z"/></g><g class="ch" style="--i:2"><path d="M112.04 -3.65V-19.26L91.21 -23.43V-27.03C94.06 -28.19 96.78 -28.59 100.03 -28.59C103.74 -28.59 108.32 -27.72 112.04 -26.39V-34.86C108.21 -36.31 104.03 -37.12 98.87 -37.12C93.19 -37.12 87.62 -35.79 81.99 -32.6V-17.17L102.87 -12.99V-9.22C100.49 -8.12 97.54 -7.66 94.52 -7.66C90.63 -7.66 85.88 -8.41 81.99 -9.86V-1.39C85.82 0.06 90 0.87 95.16 0.87C100.84 0.87 106.47 -0.46 112.04 -3.65Z"/></g><g class="ch" style="--i:3"><path d="M152.86 -3.65V-19.26L132.04 -23.43V-27.03C134.88 -28.19 137.6 -28.59 140.85 -28.59C144.56 -28.59 149.15 -27.72 152.86 -26.39V-34.86C149.03 -36.31 144.85 -37.12 139.69 -37.12C134.01 -37.12 128.44 -35.79 122.81 -32.6V-17.17L143.69 -12.99V-9.22C141.32 -8.12 138.36 -7.66 135.34 -7.66C131.46 -7.66 126.7 -8.41 122.81 -9.86V-1.39C126.64 0.06 130.82 0.87 135.98 0.87C141.66 0.87 147.29 -0.46 152.86 -3.65Z"/></g><g class="ch" style="--i:4"><path d="M193.68 -8.12H173.67V-14.44H191.42V-21.92H173.67V-28.13H193.68V-36.25H164.1V0H193.68Z"/></g><g class="ch" style="--i:5"><path d="M219.65 -9.92C220.06 -9.92 220.52 -9.92 220.93 -9.98L226.85 0H237.34L230.38 -11.31C232.65 -11.83 234.73 -12.7 236.76 -13.8V-32.6C231.78 -35.5 224.76 -37.12 217.39 -37.12C212.29 -37.12 208.23 -36.77 204.17 -36.25V0H213.74V-10.09C215.59 -9.98 217.57 -9.92 219.65 -9.92ZM213.74 -28.3C215.42 -28.42 217.33 -28.48 219.36 -28.48H220.41C223.31 -28.42 225.4 -27.78 227.37 -26.68V-19.31C225.4 -18.21 223.31 -17.57 220.41 -17.52H219.36C217.33 -17.52 215.48 -17.57 213.74 -17.69Z"/></g><g class="ch" style="--i:6"><path d="M271.21 0H280.66V-32.6C275.21 -35.79 269.81 -37.12 264.25 -37.12C258.68 -37.12 253.23 -35.79 247.77 -32.6V0H257.29V-10.21H271.21ZM257.29 -26.85C259.49 -27.96 261.75 -28.42 264.25 -28.42C266.74 -28.42 268.94 -27.96 271.21 -26.85V-18.5H257.29Z"/></g></g></svg>