<svg xmlns="http://www.w3.org/2000/svg" class="h-handset" viewBox="0 0 100 100"><defs><radialGradient id="mh" cx="50" cy="50" r="40" gradientUnits="userSpaceOnUse"><stop offset="0" stop-color="#E0491F" stop-opacity="0.5"/><stop offset="0.45" stop-color="#E0491F" stop-opacity="0.14"/><stop offset="1" stop-color="#E0491F" stop-opacity="0"/></radialGradient></defs><rect class="bed" width="100" height="100" rx="9" fill="#DED7C9"/><circle class="halo" cx="50" cy="50" r="40" fill="url(#mh)"/><g transform="rotate(-4 16.07 17.07)"><rect class="tile" style="--d:0.15s" x="3.57" y="4.57" width="25.0" height="25.0" rx="2.6" fill="#371D12"/></g><g transform="rotate(3 50.5 16.17)"><rect class="tile" style="--d:0.25s" x="38" y="3.67" width="25.0" height="25.0" rx="2.6" fill="#371D12"/></g><g transform="rotate(-2 83.53 17.37)"><rect class="tile" style="--d:0.35s" x="71.03" y="4.87" width="25.0" height="25.0" rx="2.6" fill="#371D12"/></g><g transform="rotate(5 16.27 50.3)"><rect class="tile" style="--d:0.45s" x="3.77" y="37.8" width="25.0" height="25.0" rx="2.6" fill="#371D12"/></g><g transform="rotate(0 50 50)"><rect class="tile lit" style="--d:0.95s" x="37.5" y="37.5" width="25.0" height="25.0" rx="2.6" fill="#E0491F"/></g><g transform="rotate(-3 83.93 49.8)"><rect class="tile" style="--d:0.55s" x="71.43" y="37.3" width="25.0" height="25.0" rx="2.6" fill="#371D12"/></g><g transform="rotate(2 16.17 82.73)"><rect class="tile" style="--d:0.65s" x="3.67" y="70.23" width="25.0" height="25.0" rx="2.6" fill="#371D12"/></g><g transform="rotate(-5 50.3 83.83)"><rect class="tile" style="--d:0.75s" x="37.8" y="71.33" width="25.0" height="25.0" rx="2.6" fill="#371D12"/></g><g transform="rotate(4 83.93 83.53)"><rect class="tile" style="--d:0.85s" x="71.43" y="71.03" width="25.0" height="25.0" rx="2.6" fill="#371D12"/></g></svg>