%TF.GenerationSoftware,KiCad,Pcbnew,10.0.5*%
%TF.CreationDate,2026-08-19T13:58:11-04:00*%
%TF.ProjectId,backplane,6261636b-706c-4616-9e65-2e6b69636164,rev?*%
%TF.SameCoordinates,Original*%
%TF.FileFunction,Legend,Bot*%
%TF.FilePolarity,Positive*%
%FSLAX46Y46*%
G04 Gerber Fmt 4.6, Leading zero omitted, Abs format (unit mm)*
G04 Created by KiCad (PCBNEW 10.0.5) date 2026-08-19 13:58:11*
%MOMM*%
%LPD*%
G01*
G04 APERTURE LIST*
G04 Aperture macros list*
%AMRoundRect*
0 Rectangle with rounded corners*
0 $1 Rounding radius*
0 $2 $3 $4 $5 $6 $7 $8 $9 X,Y pos of 4 corners*
0 Add a 4 corners polygon primitive as box body*
4,1,4,$2,$3,$4,$5,$6,$7,$8,$9,$2,$3,0*
0 Add four circle primitives for the rounded corners*
1,1,$1+$1,$2,$3*
1,1,$1+$1,$4,$5*
1,1,$1+$1,$6,$7*
1,1,$1+$1,$8,$9*
0 Add four rect primitives between the rounded corners*
20,1,$1+$1,$2,$3,$4,$5,0*
20,1,$1+$1,$4,$5,$6,$7,0*
20,1,$1+$1,$6,$7,$8,$9,0*
20,1,$1+$1,$8,$9,$2,$3,0*%
G04 Aperture macros list end*
%ADD10RoundRect,0.250000X-0.600000X-0.600000X0.600000X-0.600000X0.600000X0.600000X-0.600000X0.600000X0*%
%ADD11C,1.700000*%
%ADD12RoundRect,0.250000X-1.050000X-1.050000X1.050000X-1.050000X1.050000X1.050000X-1.050000X1.050000X0*%
%ADD13C,2.600000*%
%ADD14C,3.200000*%
%ADD15C,2.400000*%
%ADD16C,3.500000*%
%ADD17RoundRect,0.250000X-0.750000X-0.750000X0.750000X-0.750000X0.750000X0.750000X-0.750000X0.750000X0*%
%ADD18C,2.000000*%
%ADD19C,2.010000*%
%ADD20R,1.700000X1.700000*%
G04 APERTURE END LIST*
%LPC*%
D10*
%TO.C,J_HUB1*%
X76000000Y-26000000D03*
D11*
X78540000Y-26000000D03*
X76000000Y-28540000D03*
X78540000Y-28540000D03*
X76000000Y-31080000D03*
X78540000Y-31080000D03*
X76000000Y-33620000D03*
X78540000Y-33620000D03*
X76000000Y-36160000D03*
X78540000Y-36160000D03*
X76000000Y-38700000D03*
X78540000Y-38700000D03*
X76000000Y-41240000D03*
X78540000Y-41240000D03*
X76000000Y-43780000D03*
X78540000Y-43780000D03*
%TD*%
D12*
%TO.C,TB3*%
X158000000Y-82000000D03*
D13*
X163000000Y-82000000D03*
%TD*%
D14*
%TO.C,H1*%
X5000000Y-5000000D03*
%TD*%
D15*
%TO.C,F7*%
X116600000Y-80200000D03*
D16*
X112000000Y-79000000D03*
X121200000Y-79000000D03*
%TD*%
D12*
%TO.C,J_PNL2*%
X97000000Y-24000000D03*
D13*
X102000000Y-24000000D03*
%TD*%
D15*
%TO.C,F6*%
X116600000Y-69200000D03*
D16*
X112000000Y-68000000D03*
X121200000Y-68000000D03*
%TD*%
D12*
%TO.C,TB2*%
X158000000Y-49000000D03*
D13*
X163000000Y-49000000D03*
%TD*%
D14*
%TO.C,H3*%
X5000000Y-105000000D03*
%TD*%
D12*
%TO.C,J_PNL7*%
X97000000Y-79000000D03*
D13*
X102000000Y-79000000D03*
%TD*%
D12*
%TO.C,TB1*%
X158000000Y-16000000D03*
D13*
X163000000Y-16000000D03*
%TD*%
D15*
%TO.C,F9*%
X116600000Y-102200000D03*
D16*
X112000000Y-101000000D03*
X121200000Y-101000000D03*
%TD*%
D17*
%TO.C,CB31*%
X138000000Y-82000000D03*
D18*
X143000000Y-82000000D03*
%TD*%
D19*
%TO.C,PF1*%
X76000000Y-12000000D03*
X81100000Y-13200000D03*
%TD*%
D17*
%TO.C,CB32*%
X148000000Y-94000000D03*
D18*
X153000000Y-94000000D03*
%TD*%
D15*
%TO.C,F4*%
X116600000Y-47200000D03*
D16*
X112000000Y-46000000D03*
X121200000Y-46000000D03*
%TD*%
D15*
%TO.C,F8*%
X116600000Y-91200000D03*
D16*
X112000000Y-90000000D03*
X121200000Y-90000000D03*
%TD*%
D12*
%TO.C,J_PNL9*%
X97000000Y-101000000D03*
D13*
X102000000Y-101000000D03*
%TD*%
D12*
%TO.C,J_PNL6*%
X97000000Y-68000000D03*
D13*
X102000000Y-68000000D03*
%TD*%
D17*
%TO.C,CB22*%
X148000000Y-61000000D03*
D18*
X153000000Y-61000000D03*
%TD*%
D12*
%TO.C,J_PNL5*%
X97000000Y-57000000D03*
D13*
X102000000Y-57000000D03*
%TD*%
D12*
%TO.C,J_PNL4*%
X97000000Y-46000000D03*
D13*
X102000000Y-46000000D03*
%TD*%
D10*
%TO.C,J_HUB2*%
X76000000Y-57000000D03*
D11*
X78540000Y-57000000D03*
X76000000Y-59540000D03*
X78540000Y-59540000D03*
X76000000Y-62080000D03*
X78540000Y-62080000D03*
X76000000Y-64620000D03*
X78540000Y-64620000D03*
X76000000Y-67160000D03*
X78540000Y-67160000D03*
X76000000Y-69700000D03*
X78540000Y-69700000D03*
X76000000Y-72240000D03*
X78540000Y-72240000D03*
X76000000Y-74780000D03*
X78540000Y-74780000D03*
%TD*%
D17*
%TO.C,CB12*%
X148000000Y-28000000D03*
D18*
X153000000Y-28000000D03*
%TD*%
D12*
%TO.C,J_PNL1*%
X97000000Y-13000000D03*
D13*
X102000000Y-13000000D03*
%TD*%
D15*
%TO.C,F2*%
X116600000Y-25200000D03*
D16*
X112000000Y-24000000D03*
X121200000Y-24000000D03*
%TD*%
D15*
%TO.C,F5*%
X116600000Y-58200000D03*
D16*
X112000000Y-57000000D03*
X121200000Y-57000000D03*
%TD*%
D17*
%TO.C,CB21*%
X138000000Y-49000000D03*
D18*
X143000000Y-49000000D03*
%TD*%
D10*
%TO.C,J_HUB3*%
X76000000Y-88000000D03*
D11*
X78540000Y-88000000D03*
X76000000Y-90540000D03*
X78540000Y-90540000D03*
X76000000Y-93080000D03*
X78540000Y-93080000D03*
X76000000Y-95620000D03*
X78540000Y-95620000D03*
X76000000Y-98160000D03*
X78540000Y-98160000D03*
X76000000Y-100700000D03*
X78540000Y-100700000D03*
X76000000Y-103240000D03*
X78540000Y-103240000D03*
X76000000Y-105780000D03*
X78540000Y-105780000D03*
%TD*%
D15*
%TO.C,F3*%
X116600000Y-36200000D03*
D16*
X112000000Y-35000000D03*
X121200000Y-35000000D03*
%TD*%
D12*
%TO.C,J_PNL8*%
X97000000Y-90000000D03*
D13*
X102000000Y-90000000D03*
%TD*%
D15*
%TO.C,F1*%
X116600000Y-14200000D03*
D16*
X112000000Y-13000000D03*
X121200000Y-13000000D03*
%TD*%
D12*
%TO.C,J_PNL3*%
X97000000Y-35000000D03*
D13*
X102000000Y-35000000D03*
%TD*%
D14*
%TO.C,H4*%
X165000000Y-105000000D03*
%TD*%
%TO.C,H2*%
X165000000Y-5000000D03*
%TD*%
D20*
%TO.C,J_PI*%
X8000000Y-12000000D03*
D11*
X5460000Y-12000000D03*
X8000000Y-14540000D03*
X5460000Y-14540000D03*
X8000000Y-17080000D03*
X5460000Y-17080000D03*
X8000000Y-19620000D03*
X5460000Y-19620000D03*
X8000000Y-22160000D03*
X5460000Y-22160000D03*
X8000000Y-24700000D03*
X5460000Y-24700000D03*
X8000000Y-27240000D03*
X5460000Y-27240000D03*
X8000000Y-29780000D03*
X5460000Y-29780000D03*
X8000000Y-32320000D03*
X5460000Y-32320000D03*
X8000000Y-34860000D03*
X5460000Y-34860000D03*
X8000000Y-37400000D03*
X5460000Y-37400000D03*
X8000000Y-39940000D03*
X5460000Y-39940000D03*
X8000000Y-42480000D03*
X5460000Y-42480000D03*
X8000000Y-45020000D03*
X5460000Y-45020000D03*
X8000000Y-47560000D03*
X5460000Y-47560000D03*
X8000000Y-50100000D03*
X5460000Y-50100000D03*
X8000000Y-52640000D03*
X5460000Y-52640000D03*
X8000000Y-55180000D03*
X5460000Y-55180000D03*
X8000000Y-57720000D03*
X5460000Y-57720000D03*
X8000000Y-60260000D03*
X5460000Y-60260000D03*
%TD*%
D17*
%TO.C,CB11*%
X138000000Y-16000000D03*
D18*
X143000000Y-16000000D03*
%TD*%
%LPD*%
M02*
