M48
; DRILL file KiCad 10.0.5 date 2026-08-19T13:58:12
; FORMAT={-:-/ absolute / metric / decimal}
; #@! TF.CreationDate,2026-08-19T13:58:12-04:00
; #@! TF.GenerationSoftware,Kicad,Pcbnew,10.0.5
; #@! TF.FileFunction,MixedPlating,1,2
FMAT,2
METRIC
; #@! TA.AperFunction,Plated,PTH,ViaDrill
T1C0.200
; #@! TA.AperFunction,Plated,PTH,ViaDrill
T2C0.300
; #@! TA.AperFunction,Plated,PTH,ComponentDrill
T3C1.000
; #@! TA.AperFunction,Plated,PTH,ComponentDrill
T4C1.010
; #@! TA.AperFunction,Plated,PTH,ComponentDrill
T5C1.300
; #@! TA.AperFunction,Plated,PTH,ComponentDrill
T6C2.000
; #@! TA.AperFunction,NonPlated,NPTH,ComponentDrill
T7C2.400
; #@! TA.AperFunction,NonPlated,NPTH,ComponentDrill
T8C3.200
%
G90
G05
T1
X35.137Y-46.925
T2
X1.456Y-19.259
X3.26Y-44.569
X3.924Y-11.208
X6.441Y-26.223
X6.749Y-84.784
X9.062Y-84.262
X10.653Y-83.71
X11.462Y-38.111
X12.371Y-32.029
X13.027Y-25.269
X13.337Y-60.096
X13.337Y-81.805
X16.323Y-85.774
X17.263Y-58.978
X18.419Y-42.786
X19.058Y-85.772
X19.309Y-42.042
X21.641Y-41.945
X24.75Y-43.24
X24.906Y-31.172
X26.247Y-43.307
X26.696Y-41.675
X28.262Y-31.725
X28.262Y-57.725
X28.262Y-83.725
X28.267Y-49.043
X28.678Y-42.759
X29.211Y-57.632
X33.809Y-44.116
X38.347Y-39.223
X38.642Y-45.432
X39.052Y-46.521
X39.163Y-44.13
X40.211Y-37.012
X42.262Y-41.725
X42.691Y-88.282
X43.275Y-45.222
X43.366Y-42.186
X44.101Y-89.007
X45.413Y-49.78
X46.183Y-43.086
X46.967Y-47.496
X47.591Y-88.456
X52.155Y-91.44
X54.522Y-82.846
X55.141Y-84.784
X58.075Y-69.944
X61.113Y-7.093
X61.44Y-63.674
X62.876Y-42.392
X63.782Y-82.753
X64.388Y-79.405
X64.916Y-87.658
X65.852Y-78.335
X66.101Y-44.066
X69.43Y-46.702
X71.791Y-72.013
X72.427Y-97.433
X72.851Y-58.182
X73.057Y-13.708
X73.894Y-92.748
X73.902Y-96.194
X76.043Y-16.942
X76.137Y-76.379
X77.042Y-75.713
X80.94Y-66.167
X81.667Y-43.486
X81.922Y-41.112
X82.032Y-97.028
X83.045Y-65.147
X84.785Y-91.51
X89.44Y-67.126
X90.088Y-32.641
X111.241Y-4.712
X128.049Y-6.352
X136.475Y-36.0
X136.475Y-69.0
X136.475Y-102.0
X143.475Y-36.0
X143.475Y-69.0
X143.475Y-102.0
X150.475Y-36.0
X150.475Y-69.0
X150.475Y-102.0
X157.475Y-36.0
X157.475Y-69.0
X157.475Y-102.0
X163.062Y-27.0
X163.062Y-60.0
X163.062Y-93.0
T3
X5.46Y-12.0
X5.46Y-14.54
X5.46Y-17.08
X5.46Y-19.62
X5.46Y-22.16
X5.46Y-24.7
X5.46Y-27.24
X5.46Y-29.78
X5.46Y-32.32
X5.46Y-34.86
X5.46Y-37.4
X5.46Y-39.94
X5.46Y-42.48
X5.46Y-45.02
X5.46Y-47.56
X5.46Y-50.1
X5.46Y-52.64
X5.46Y-55.18
X5.46Y-57.72
X5.46Y-60.26
X8.0Y-12.0
X8.0Y-14.54
X8.0Y-17.08
X8.0Y-19.62
X8.0Y-22.16
X8.0Y-24.7
X8.0Y-27.24
X8.0Y-29.78
X8.0Y-32.32
X8.0Y-34.86
X8.0Y-37.4
X8.0Y-39.94
X8.0Y-42.48
X8.0Y-45.02
X8.0Y-47.56
X8.0Y-50.1
X8.0Y-52.64
X8.0Y-55.18
X8.0Y-57.72
X8.0Y-60.26
X76.0Y-26.0
X76.0Y-28.54
X76.0Y-31.08
X76.0Y-33.62
X76.0Y-36.16
X76.0Y-38.7
X76.0Y-41.24
X76.0Y-43.78
X76.0Y-57.0
X76.0Y-59.54
X76.0Y-62.08
X76.0Y-64.62
X76.0Y-67.16
X76.0Y-69.7
X76.0Y-72.24
X76.0Y-74.78
X76.0Y-88.0
X76.0Y-90.54
X76.0Y-93.08
X76.0Y-95.62
X76.0Y-98.16
X76.0Y-100.7
X76.0Y-103.24
X76.0Y-105.78
X78.54Y-26.0
X78.54Y-28.54
X78.54Y-31.08
X78.54Y-33.62
X78.54Y-36.16
X78.54Y-38.7
X78.54Y-41.24
X78.54Y-43.78
X78.54Y-57.0
X78.54Y-59.54
X78.54Y-62.08
X78.54Y-64.62
X78.54Y-67.16
X78.54Y-69.7
X78.54Y-72.24
X78.54Y-74.78
X78.54Y-88.0
X78.54Y-90.54
X78.54Y-93.08
X78.54Y-95.62
X78.54Y-98.16
X78.54Y-100.7
X78.54Y-103.24
X78.54Y-105.78
X138.0Y-16.0
X138.0Y-49.0
X138.0Y-82.0
X143.0Y-16.0
X143.0Y-49.0
X143.0Y-82.0
X148.0Y-28.0
X148.0Y-61.0
X148.0Y-94.0
X153.0Y-28.0
X153.0Y-61.0
X153.0Y-94.0
T4
X76.0Y-12.0
X81.1Y-13.2
T5
X97.0Y-13.0
X97.0Y-24.0
X97.0Y-35.0
X97.0Y-46.0
X97.0Y-57.0
X97.0Y-68.0
X97.0Y-79.0
X97.0Y-90.0
X97.0Y-101.0
X102.0Y-13.0
X102.0Y-24.0
X102.0Y-35.0
X102.0Y-46.0
X102.0Y-57.0
X102.0Y-68.0
X102.0Y-79.0
X102.0Y-90.0
X102.0Y-101.0
X158.0Y-16.0
X158.0Y-49.0
X158.0Y-82.0
X163.0Y-16.0
X163.0Y-49.0
X163.0Y-82.0
T6
X112.0Y-13.0
X112.0Y-24.0
X112.0Y-35.0
X112.0Y-46.0
X112.0Y-57.0
X112.0Y-68.0
X112.0Y-79.0
X112.0Y-90.0
X112.0Y-101.0
X121.2Y-13.0
X121.2Y-24.0
X121.2Y-35.0
X121.2Y-46.0
X121.2Y-57.0
X121.2Y-68.0
X121.2Y-79.0
X121.2Y-90.0
X121.2Y-101.0
T7
X116.6Y-14.2
X116.6Y-25.2
X116.6Y-36.2
X116.6Y-47.2
X116.6Y-58.2
X116.6Y-69.2
X116.6Y-80.2
X116.6Y-91.2
X116.6Y-102.2
T8
X5.0Y-5.0
X5.0Y-105.0
X165.0Y-5.0
X165.0Y-105.0
M30
