%TF.GenerationSoftware,KiCad,Pcbnew,10.0.5*%
%TF.CreationDate,2026-08-19T13:58:11-04:00*%
%TF.ProjectId,backplane,6261636b-706c-4616-9e65-2e6b69636164,rev?*%
%TF.SameCoordinates,Original*%
%TF.FileFunction,Copper,L2,Bot*%
%TF.FilePolarity,Positive*%
%FSLAX46Y46*%
G04 Gerber Fmt 4.6, Leading zero omitted, Abs format (unit mm)*
G04 Created by KiCad (PCBNEW 10.0.5) date 2026-08-19 13:58:11*
%MOMM*%
%LPD*%
G01*
G04 APERTURE LIST*
G04 Aperture macros list*
%AMRoundRect*
0 Rectangle with rounded corners*
0 $1 Rounding radius*
0 $2 $3 $4 $5 $6 $7 $8 $9 X,Y pos of 4 corners*
0 Add a 4 corners polygon primitive as box body*
4,1,4,$2,$3,$4,$5,$6,$7,$8,$9,$2,$3,0*
0 Add four circle primitives for the rounded corners*
1,1,$1+$1,$2,$3*
1,1,$1+$1,$4,$5*
1,1,$1+$1,$6,$7*
1,1,$1+$1,$8,$9*
0 Add four rect primitives between the rounded corners*
20,1,$1+$1,$2,$3,$4,$5,0*
20,1,$1+$1,$4,$5,$6,$7,0*
20,1,$1+$1,$6,$7,$8,$9,0*
20,1,$1+$1,$8,$9,$2,$3,0*%
G04 Aperture macros list end*
%TA.AperFunction,ComponentPad*%
%ADD10RoundRect,0.250000X-0.600000X-0.600000X0.600000X-0.600000X0.600000X0.600000X-0.600000X0.600000X0*%
%TD*%
%TA.AperFunction,ComponentPad*%
%ADD11C,1.700000*%
%TD*%
%TA.AperFunction,ComponentPad*%
%ADD12RoundRect,0.250000X-1.050000X-1.050000X1.050000X-1.050000X1.050000X1.050000X-1.050000X1.050000X0*%
%TD*%
%TA.AperFunction,ComponentPad*%
%ADD13C,2.600000*%
%TD*%
%TA.AperFunction,ComponentPad*%
%ADD14C,3.500000*%
%TD*%
%TA.AperFunction,ComponentPad*%
%ADD15RoundRect,0.250000X-0.750000X-0.750000X0.750000X-0.750000X0.750000X0.750000X-0.750000X0.750000X0*%
%TD*%
%TA.AperFunction,ComponentPad*%
%ADD16C,2.000000*%
%TD*%
%TA.AperFunction,ComponentPad*%
%ADD17C,2.010000*%
%TD*%
%TA.AperFunction,ComponentPad*%
%ADD18R,1.700000X1.700000*%
%TD*%
%TA.AperFunction,ViaPad*%
%ADD19C,0.600000*%
%TD*%
%TA.AperFunction,ViaPad*%
%ADD20C,0.400000*%
%TD*%
%TA.AperFunction,Conductor*%
%ADD21C,0.300000*%
%TD*%
%TA.AperFunction,Conductor*%
%ADD22C,1.500000*%
%TD*%
%TA.AperFunction,Conductor*%
%ADD23C,1.000000*%
%TD*%
G04 APERTURE END LIST*
D10*
%TO.P,J_HUB1,1*%
%TO.N,H1_R1*%
X76000000Y-26000000D03*
D11*
%TO.P,J_HUB1,2*%
%TO.N,H1_G1*%
X78540000Y-26000000D03*
%TO.P,J_HUB1,3*%
%TO.N,H1_B1*%
X76000000Y-28540000D03*
%TO.P,J_HUB1,4*%
%TO.N,H1_E4*%
X78540000Y-28540000D03*
%TO.P,J_HUB1,5*%
%TO.N,H1_R2*%
X76000000Y-31080000D03*
%TO.P,J_HUB1,6*%
%TO.N,H1_G2*%
X78540000Y-31080000D03*
%TO.P,J_HUB1,7*%
%TO.N,H1_B2*%
X76000000Y-33620000D03*
%TO.P,J_HUB1,8*%
%TO.N,H1_E8*%
X78540000Y-33620000D03*
%TO.P,J_HUB1,9*%
%TO.N,SH_A*%
X76000000Y-36160000D03*
%TO.P,J_HUB1,10*%
%TO.N,SH_B*%
X78540000Y-36160000D03*
%TO.P,J_HUB1,11*%
%TO.N,SH_C*%
X76000000Y-38700000D03*
%TO.P,J_HUB1,12*%
%TO.N,SH_D*%
X78540000Y-38700000D03*
%TO.P,J_HUB1,13*%
%TO.N,SH_CLK*%
X76000000Y-41240000D03*
%TO.P,J_HUB1,14*%
%TO.N,SH_LAT*%
X78540000Y-41240000D03*
%TO.P,J_HUB1,15*%
%TO.N,SH_OE*%
X76000000Y-43780000D03*
%TO.P,J_HUB1,16*%
%TO.N,GND*%
X78540000Y-43780000D03*
%TD*%
D12*
%TO.P,TB3,1*%
%TO.N,VP3*%
X158000000Y-82000000D03*
D13*
%TO.P,TB3,2*%
%TO.N,GND*%
X163000000Y-82000000D03*
%TD*%
D14*
%TO.P,F7,1*%
%TO.N,VP3*%
X112000000Y-79000000D03*
%TO.P,F7,2*%
%TO.N,VF7*%
X121200000Y-79000000D03*
%TD*%
D12*
%TO.P,J_PNL2,1*%
%TO.N,VF2*%
X97000000Y-24000000D03*
D13*
%TO.P,J_PNL2,2*%
%TO.N,GND*%
X102000000Y-24000000D03*
%TD*%
D14*
%TO.P,F6,1*%
%TO.N,VP2*%
X112000000Y-68000000D03*
%TO.P,F6,2*%
%TO.N,VF6*%
X121200000Y-68000000D03*
%TD*%
D12*
%TO.P,TB2,1*%
%TO.N,VP2*%
X158000000Y-49000000D03*
D13*
%TO.P,TB2,2*%
%TO.N,GND*%
X163000000Y-49000000D03*
%TD*%
D12*
%TO.P,J_PNL7,1*%
%TO.N,VF7*%
X97000000Y-79000000D03*
D13*
%TO.P,J_PNL7,2*%
%TO.N,GND*%
X102000000Y-79000000D03*
%TD*%
D12*
%TO.P,TB1,1*%
%TO.N,VP1*%
X158000000Y-16000000D03*
D13*
%TO.P,TB1,2*%
%TO.N,GND*%
X163000000Y-16000000D03*
%TD*%
D14*
%TO.P,F9,1*%
%TO.N,VP3*%
X112000000Y-101000000D03*
%TO.P,F9,2*%
%TO.N,VF9*%
X121200000Y-101000000D03*
%TD*%
D15*
%TO.P,CB31,1*%
%TO.N,VP3*%
X138000000Y-82000000D03*
D16*
%TO.P,CB31,2*%
%TO.N,GND*%
X143000000Y-82000000D03*
%TD*%
D17*
%TO.P,PF1,1*%
%TO.N,PIPWR_F*%
X76000000Y-12000000D03*
%TO.P,PF1,2*%
%TO.N,V5_PI*%
X81100000Y-13200000D03*
%TD*%
D15*
%TO.P,CB32,1*%
%TO.N,VP3*%
X148000000Y-94000000D03*
D16*
%TO.P,CB32,2*%
%TO.N,GND*%
X153000000Y-94000000D03*
%TD*%
D14*
%TO.P,F4,1*%
%TO.N,VP2*%
X112000000Y-46000000D03*
%TO.P,F4,2*%
%TO.N,VF4*%
X121200000Y-46000000D03*
%TD*%
%TO.P,F8,1*%
%TO.N,VP3*%
X112000000Y-90000000D03*
%TO.P,F8,2*%
%TO.N,VF8*%
X121200000Y-90000000D03*
%TD*%
D12*
%TO.P,J_PNL9,1*%
%TO.N,VF9*%
X97000000Y-101000000D03*
D13*
%TO.P,J_PNL9,2*%
%TO.N,GND*%
X102000000Y-101000000D03*
%TD*%
D12*
%TO.P,J_PNL6,1*%
%TO.N,VF6*%
X97000000Y-68000000D03*
D13*
%TO.P,J_PNL6,2*%
%TO.N,GND*%
X102000000Y-68000000D03*
%TD*%
D15*
%TO.P,CB22,1*%
%TO.N,VP2*%
X148000000Y-61000000D03*
D16*
%TO.P,CB22,2*%
%TO.N,GND*%
X153000000Y-61000000D03*
%TD*%
D12*
%TO.P,J_PNL5,1*%
%TO.N,VF5*%
X97000000Y-57000000D03*
D13*
%TO.P,J_PNL5,2*%
%TO.N,GND*%
X102000000Y-57000000D03*
%TD*%
D12*
%TO.P,J_PNL4,1*%
%TO.N,VF4*%
X97000000Y-46000000D03*
D13*
%TO.P,J_PNL4,2*%
%TO.N,GND*%
X102000000Y-46000000D03*
%TD*%
D10*
%TO.P,J_HUB2,1*%
%TO.N,H2_R1*%
X76000000Y-57000000D03*
D11*
%TO.P,J_HUB2,2*%
%TO.N,H2_G1*%
X78540000Y-57000000D03*
%TO.P,J_HUB2,3*%
%TO.N,H2_B1*%
X76000000Y-59540000D03*
%TO.P,J_HUB2,4*%
%TO.N,H2_E4*%
X78540000Y-59540000D03*
%TO.P,J_HUB2,5*%
%TO.N,H2_R2*%
X76000000Y-62080000D03*
%TO.P,J_HUB2,6*%
%TO.N,H2_G2*%
X78540000Y-62080000D03*
%TO.P,J_HUB2,7*%
%TO.N,H2_B2*%
X76000000Y-64620000D03*
%TO.P,J_HUB2,8*%
%TO.N,H2_E8*%
X78540000Y-64620000D03*
%TO.P,J_HUB2,9*%
%TO.N,SH_A*%
X76000000Y-67160000D03*
%TO.P,J_HUB2,10*%
%TO.N,SH_B*%
X78540000Y-67160000D03*
%TO.P,J_HUB2,11*%
%TO.N,SH_C*%
X76000000Y-69700000D03*
%TO.P,J_HUB2,12*%
%TO.N,SH_D*%
X78540000Y-69700000D03*
%TO.P,J_HUB2,13*%
%TO.N,SH_CLK*%
X76000000Y-72240000D03*
%TO.P,J_HUB2,14*%
%TO.N,SH_LAT*%
X78540000Y-72240000D03*
%TO.P,J_HUB2,15*%
%TO.N,SH_OE*%
X76000000Y-74780000D03*
%TO.P,J_HUB2,16*%
%TO.N,GND*%
X78540000Y-74780000D03*
%TD*%
D15*
%TO.P,CB12,1*%
%TO.N,VP1*%
X148000000Y-28000000D03*
D16*
%TO.P,CB12,2*%
%TO.N,GND*%
X153000000Y-28000000D03*
%TD*%
D12*
%TO.P,J_PNL1,1*%
%TO.N,VF1*%
X97000000Y-13000000D03*
D13*
%TO.P,J_PNL1,2*%
%TO.N,GND*%
X102000000Y-13000000D03*
%TD*%
D14*
%TO.P,F2,1*%
%TO.N,VP1*%
X112000000Y-24000000D03*
%TO.P,F2,2*%
%TO.N,VF2*%
X121200000Y-24000000D03*
%TD*%
%TO.P,F5,1*%
%TO.N,VP2*%
X112000000Y-57000000D03*
%TO.P,F5,2*%
%TO.N,VF5*%
X121200000Y-57000000D03*
%TD*%
D15*
%TO.P,CB21,1*%
%TO.N,VP2*%
X138000000Y-49000000D03*
D16*
%TO.P,CB21,2*%
%TO.N,GND*%
X143000000Y-49000000D03*
%TD*%
D10*
%TO.P,J_HUB3,1*%
%TO.N,H3_R1*%
X76000000Y-88000000D03*
D11*
%TO.P,J_HUB3,2*%
%TO.N,H3_G1*%
X78540000Y-88000000D03*
%TO.P,J_HUB3,3*%
%TO.N,H3_B1*%
X76000000Y-90540000D03*
%TO.P,J_HUB3,4*%
%TO.N,H3_E4*%
X78540000Y-90540000D03*
%TO.P,J_HUB3,5*%
%TO.N,H3_R2*%
X76000000Y-93080000D03*
%TO.P,J_HUB3,6*%
%TO.N,H3_G2*%
X78540000Y-93080000D03*
%TO.P,J_HUB3,7*%
%TO.N,H3_B2*%
X76000000Y-95620000D03*
%TO.P,J_HUB3,8*%
%TO.N,H3_E8*%
X78540000Y-95620000D03*
%TO.P,J_HUB3,9*%
%TO.N,SH_A*%
X76000000Y-98160000D03*
%TO.P,J_HUB3,10*%
%TO.N,SH_B*%
X78540000Y-98160000D03*
%TO.P,J_HUB3,11*%
%TO.N,SH_C*%
X76000000Y-100700000D03*
%TO.P,J_HUB3,12*%
%TO.N,SH_D*%
X78540000Y-100700000D03*
%TO.P,J_HUB3,13*%
%TO.N,SH_CLK*%
X76000000Y-103240000D03*
%TO.P,J_HUB3,14*%
%TO.N,SH_LAT*%
X78540000Y-103240000D03*
%TO.P,J_HUB3,15*%
%TO.N,SH_OE*%
X76000000Y-105780000D03*
%TO.P,J_HUB3,16*%
%TO.N,GND*%
X78540000Y-105780000D03*
%TD*%
D14*
%TO.P,F3,1*%
%TO.N,VP1*%
X112000000Y-35000000D03*
%TO.P,F3,2*%
%TO.N,VF3*%
X121200000Y-35000000D03*
%TD*%
D12*
%TO.P,J_PNL8,1*%
%TO.N,VF8*%
X97000000Y-90000000D03*
D13*
%TO.P,J_PNL8,2*%
%TO.N,GND*%
X102000000Y-90000000D03*
%TD*%
D14*
%TO.P,F1,1*%
%TO.N,VP1*%
X112000000Y-13000000D03*
%TO.P,F1,2*%
%TO.N,VF1*%
X121200000Y-13000000D03*
%TD*%
D12*
%TO.P,J_PNL3,1*%
%TO.N,VF3*%
X97000000Y-35000000D03*
D13*
%TO.P,J_PNL3,2*%
%TO.N,GND*%
X102000000Y-35000000D03*
%TD*%
D18*
%TO.P,J_PI,1*%
%TO.N,3V3*%
X8000000Y-12000000D03*
D11*
%TO.P,J_PI,2*%
%TO.N,V5_PI*%
X5460000Y-12000000D03*
%TO.P,J_PI,3*%
%TO.N,GPIO2*%
X8000000Y-14540000D03*
%TO.P,J_PI,4*%
%TO.N,V5_PI*%
X5460000Y-14540000D03*
%TO.P,J_PI,5*%
%TO.N,GPIO3*%
X8000000Y-17080000D03*
%TO.P,J_PI,6*%
%TO.N,GND*%
X5460000Y-17080000D03*
%TO.P,J_PI,7*%
%TO.N,GPIO4*%
X8000000Y-19620000D03*
%TO.P,J_PI,8*%
%TO.N,GPIO14*%
X5460000Y-19620000D03*
%TO.P,J_PI,9*%
%TO.N,GND*%
X8000000Y-22160000D03*
%TO.P,J_PI,10*%
%TO.N,GPIO15*%
X5460000Y-22160000D03*
%TO.P,J_PI,11*%
%TO.N,GPIO17*%
X8000000Y-24700000D03*
%TO.P,J_PI,12*%
%TO.N,GPIO18*%
X5460000Y-24700000D03*
%TO.P,J_PI,13*%
%TO.N,GPIO27*%
X8000000Y-27240000D03*
%TO.P,J_PI,14*%
%TO.N,GND*%
X5460000Y-27240000D03*
%TO.P,J_PI,15*%
%TO.N,GPIO22*%
X8000000Y-29780000D03*
%TO.P,J_PI,16*%
%TO.N,GPIO23*%
X5460000Y-29780000D03*
%TO.P,J_PI,17*%
%TO.N,3V3*%
X8000000Y-32320000D03*
%TO.P,J_PI,18*%
%TO.N,GPIO24*%
X5460000Y-32320000D03*
%TO.P,J_PI,19*%
%TO.N,GPIO10*%
X8000000Y-34860000D03*
%TO.P,J_PI,20*%
%TO.N,GND*%
X5460000Y-34860000D03*
%TO.P,J_PI,21*%
%TO.N,GPIO9*%
X8000000Y-37400000D03*
%TO.P,J_PI,22*%
%TO.N,GPIO25*%
X5460000Y-37400000D03*
%TO.P,J_PI,23*%
%TO.N,GPIO11*%
X8000000Y-39940000D03*
%TO.P,J_PI,24*%
%TO.N,GPIO8*%
X5460000Y-39940000D03*
%TO.P,J_PI,25*%
%TO.N,GND*%
X8000000Y-42480000D03*
%TO.P,J_PI,26*%
%TO.N,GPIO7*%
X5460000Y-42480000D03*
%TO.P,J_PI,27*%
%TO.N,SDA0*%
X8000000Y-45020000D03*
%TO.P,J_PI,28*%
%TO.N,SCL0*%
X5460000Y-45020000D03*
%TO.P,J_PI,29*%
%TO.N,GPIO5*%
X8000000Y-47560000D03*
%TO.P,J_PI,30*%
%TO.N,GND*%
X5460000Y-47560000D03*
%TO.P,J_PI,31*%
%TO.N,GPIO6*%
X8000000Y-50100000D03*
%TO.P,J_PI,32*%
%TO.N,GPIO12*%
X5460000Y-50100000D03*
%TO.P,J_PI,33*%
%TO.N,GPIO13*%
X8000000Y-52640000D03*
%TO.P,J_PI,34*%
%TO.N,GND*%
X5460000Y-52640000D03*
%TO.P,J_PI,35*%
%TO.N,GPIO19*%
X8000000Y-55180000D03*
%TO.P,J_PI,36*%
%TO.N,GPIO16*%
X5460000Y-55180000D03*
%TO.P,J_PI,37*%
%TO.N,GPIO26*%
X8000000Y-57720000D03*
%TO.P,J_PI,38*%
%TO.N,GPIO20*%
X5460000Y-57720000D03*
%TO.P,J_PI,39*%
%TO.N,GND*%
X8000000Y-60260000D03*
%TO.P,J_PI,40*%
%TO.N,GPIO21*%
X5460000Y-60260000D03*
%TD*%
D15*
%TO.P,CB11,1*%
%TO.N,VP1*%
X138000000Y-16000000D03*
D16*
%TO.P,CB11,2*%
%TO.N,GND*%
X143000000Y-16000000D03*
%TD*%
D19*
%TO.N,SH_E*%
X90088200Y-32641300D03*
X89440000Y-67126200D03*
X84785000Y-91509800D03*
%TO.N,SH_A*%
X63781600Y-82752700D03*
X72427100Y-97433200D03*
%TO.N,SH_B*%
X83044600Y-65147000D03*
X82032300Y-97028200D03*
%TO.N,SH_C*%
X80940000Y-66167000D03*
X64915800Y-87658000D03*
%TO.N,SH_CLK*%
X73902100Y-96193900D03*
X81666900Y-43486400D03*
%TO.N,SH_LAT*%
X62875900Y-42392000D03*
X81921800Y-41111900D03*
%TO.N,SH_OE*%
X71790800Y-72013100D03*
X66101200Y-44066000D03*
%TO.N,GND*%
X157475000Y-69000000D03*
X143475000Y-102000000D03*
X150475000Y-36000000D03*
X42262500Y-41725000D03*
X136475000Y-69000000D03*
X28262500Y-57725000D03*
X28262500Y-31725000D03*
X150475000Y-69000000D03*
X163062000Y-93000000D03*
X136475000Y-36000000D03*
X28262500Y-83725000D03*
X163062000Y-60000000D03*
X157475000Y-102000000D03*
X163062000Y-27000000D03*
X143475000Y-69000000D03*
X157475000Y-36000000D03*
X143475000Y-36000000D03*
X136475000Y-102000000D03*
D20*
X35137500Y-46925000D03*
D19*
X150475000Y-102000000D03*
%TO.N,VP1*%
X73057000Y-13708100D03*
X76043000Y-16941900D03*
%TO.N,V5_PI*%
X24906300Y-31172400D03*
X28267000Y-49042800D03*
%TO.N,GPIO22*%
X19309000Y-42042200D03*
%TO.N,GPIO23*%
X18418800Y-42785900D03*
%TO.N,GPIO24*%
X24750500Y-43239800D03*
X12371000Y-32028800D03*
%TO.N,GPIO25*%
X28678300Y-42758800D03*
%TO.N,GPIO15*%
X33808900Y-44115600D03*
%TO.N,GPIO17*%
X26695800Y-41675000D03*
%TO.N,GPIO4*%
X26247200Y-43307500D03*
X13027100Y-25269500D03*
%TO.N,GPIO18*%
X21641100Y-41945200D03*
%TO.N,SH_CLK_D*%
X45412500Y-49779700D03*
X46966800Y-47495700D03*
X43274900Y-45222200D03*
X52155000Y-91439800D03*
%TO.N,SH_E_D*%
X44101400Y-89007300D03*
X39052300Y-46521300D03*
%TO.N,SH_D_D*%
X42690800Y-88281600D03*
X38642200Y-45431800D03*
%TO.N,SH_C_D*%
X39163400Y-44129900D03*
X47591100Y-88456500D03*
%TO.N,SH_B_D*%
X55141000Y-84783600D03*
X46183000Y-43086000D03*
%TO.N,SH_A_D*%
X43366000Y-42185900D03*
X54522100Y-82846400D03*
%TO.N,3V3*%
X6440900Y-26223400D03*
%TO.N,SDA0*%
X111240700Y-4712000D03*
X40211000Y-37012500D03*
X128048700Y-6352100D03*
X61113000Y-7093400D03*
%TO.N,H3_R2*%
X77041800Y-75713200D03*
%TO.N,H3_B1*%
X58074500Y-69944100D03*
X64388000Y-79404600D03*
%TO.N,H3_G1*%
X76137400Y-76378600D03*
%TO.N,H3_R1*%
X61439900Y-63673900D03*
X65852400Y-78334700D03*
%TO.N,GPIO10*%
X11462400Y-38111500D03*
%TO.N,H2_G2*%
X72851400Y-58182000D03*
%TO.N,SCL0*%
X3923600Y-11208000D03*
X3259700Y-44569500D03*
%TO.N,GPIO6*%
X17263400Y-58978000D03*
%TO.N,GPIO13*%
X13337000Y-60096100D03*
%TO.N,H2_R1_D*%
X38346800Y-39222700D03*
X29211300Y-57631900D03*
%TO.N,H2_G1*%
X69429900Y-46701700D03*
%TO.N,H3_B2*%
X73893600Y-92748400D03*
%TO.N,GPIO14*%
X6748800Y-84783600D03*
X1455900Y-19258800D03*
%TO.N,GPIO2*%
X9061800Y-84261700D03*
%TO.N,GPIO3*%
X10652900Y-83709700D03*
%TO.N,GPIO26*%
X19057800Y-85772300D03*
%TO.N,GPIO16*%
X16323000Y-85773900D03*
%TO.N,GPIO21*%
X13337000Y-81805200D03*
%TD*%
%TO.N,SH_E*%
D21*
X89440000Y-86854800D02*
X89440000Y-67126200D01*
X89440000Y-67126200D02*
X89440000Y-33289500D01*
X84785000Y-91509800D02*
X89440000Y-86854800D01*
X89440000Y-33289500D02*
X90088200Y-32641300D01*
%TO.N,SH_A*%
X79785900Y-40723700D02*
X79785900Y-62585200D01*
X66504100Y-80030200D02*
X66504100Y-78221400D01*
X76000000Y-36160000D02*
X74773700Y-37386300D01*
X79021100Y-63350000D02*
X78096600Y-63350000D01*
X72442500Y-72283000D02*
X72442500Y-70717500D01*
X74773700Y-39175400D02*
X75568300Y-39970000D01*
X63781600Y-82752700D02*
X63781600Y-88787700D01*
X79032200Y-39970000D02*
X79785900Y-40723700D01*
X75568300Y-39970000D02*
X79032200Y-39970000D01*
X63781600Y-82752700D02*
X66504100Y-80030200D01*
X74773700Y-37386300D02*
X74773700Y-39175400D01*
X77270000Y-64176600D02*
X77270000Y-65890000D01*
X63781600Y-88787700D02*
X72427100Y-97433200D01*
X66504100Y-78221400D02*
X72442500Y-72283000D01*
X72442500Y-70717500D02*
X76000000Y-67160000D01*
X79785900Y-62585200D02*
X79021100Y-63350000D01*
X77270000Y-65890000D02*
X76000000Y-67160000D01*
X78096600Y-63350000D02*
X77270000Y-64176600D01*
%TO.N,SH_B*%
X82899600Y-65292000D02*
X82899600Y-90499500D01*
X82899600Y-90499500D02*
X82032300Y-91366800D01*
X83044600Y-65147000D02*
X83044600Y-40664600D01*
X83044600Y-65147000D02*
X82899600Y-65292000D01*
X82032300Y-91366800D02*
X82032300Y-97028200D01*
X83044600Y-40664600D02*
X78540000Y-36160000D01*
%TO.N,SH_C*%
X65898700Y-87658000D02*
X65898700Y-89853700D01*
X79091900Y-37486900D02*
X80940000Y-39335000D01*
X67005800Y-86550900D02*
X65898700Y-87658000D01*
X76000000Y-38700000D02*
X77213100Y-37486900D01*
X77213100Y-37486900D02*
X79091900Y-37486900D01*
X76000000Y-69700000D02*
X67005800Y-78694200D01*
X76000000Y-99955000D02*
X76000000Y-100700000D01*
X80940000Y-39335000D02*
X80940000Y-66167000D01*
X67005800Y-78694200D02*
X67005800Y-86550900D01*
X64915800Y-87658000D02*
X65898700Y-87658000D01*
X65898700Y-89853700D02*
X76000000Y-99955000D01*
%TO.N,SH_D*%
X78540000Y-69700000D02*
X77771300Y-69700000D01*
X75436800Y-71038300D02*
X72693500Y-73781600D01*
X77270000Y-99430000D02*
X78540000Y-100700000D01*
X73660300Y-96890100D02*
X76443500Y-96890100D01*
X72693500Y-73781600D02*
X72693500Y-95923300D01*
X77270000Y-97716600D02*
X77270000Y-99430000D01*
X76443500Y-96890100D02*
X77270000Y-97716600D01*
X77771300Y-69700000D02*
X76433000Y-71038300D01*
X80287600Y-67952400D02*
X78540000Y-69700000D01*
X78540000Y-38700000D02*
X80287600Y-40447600D01*
X72693500Y-95923300D02*
X73660300Y-96890100D01*
X80287600Y-40447600D02*
X80287600Y-67952400D01*
X76433000Y-71038300D02*
X75436800Y-71038300D01*
%TO.N,SH_CLK*%
X81666900Y-43486400D02*
X81666900Y-68338000D01*
X73902100Y-96193900D02*
X73225900Y-95517700D01*
X79103200Y-70901700D02*
X77338300Y-70901700D01*
X73225900Y-75014100D02*
X76000000Y-72240000D01*
X77338300Y-70901700D02*
X76000000Y-72240000D01*
X73225900Y-95517700D02*
X73225900Y-75014100D01*
X81666900Y-68338000D02*
X79103200Y-70901700D01*
%TO.N,SH_LAT*%
X80306600Y-101473400D02*
X80306600Y-74006600D01*
X82331100Y-41521200D02*
X82331100Y-68448900D01*
X82331100Y-68448900D02*
X78540000Y-72240000D01*
X77337300Y-42442700D02*
X62926600Y-42442700D01*
X62926600Y-42442700D02*
X62875900Y-42392000D01*
X78540000Y-103240000D02*
X80306600Y-101473400D01*
X80306600Y-74006600D02*
X78540000Y-72240000D01*
X81921800Y-41111900D02*
X82331100Y-41521200D01*
X78540000Y-41240000D02*
X77337300Y-42442700D01*
%TO.N,SH_OE*%
X74735300Y-76044700D02*
X74735300Y-93580200D01*
X68464300Y-68686600D02*
X68464300Y-44066000D01*
X79016600Y-94350000D02*
X79796300Y-95129700D01*
X74735300Y-93580200D02*
X75505100Y-94350000D01*
X79796300Y-101208700D02*
X79035000Y-101970000D01*
X68750300Y-43780000D02*
X76000000Y-43780000D01*
X76000000Y-74780000D02*
X74735300Y-76044700D01*
X78096600Y-101970000D02*
X77270000Y-102796600D01*
X79035000Y-101970000D02*
X78096600Y-101970000D01*
X71790800Y-72013100D02*
X68464300Y-68686600D01*
X68464300Y-44066000D02*
X68750300Y-43780000D01*
X75505100Y-94350000D02*
X79016600Y-94350000D01*
X79796300Y-95129700D02*
X79796300Y-101208700D01*
X77270000Y-102796600D02*
X77270000Y-104510000D01*
X66101200Y-44066000D02*
X68464300Y-44066000D01*
X77270000Y-104510000D02*
X76000000Y-105780000D01*
%TO.N,VP1*%
D22*
X73057000Y-13955900D02*
X73057000Y-13708100D01*
X76043000Y-16941900D02*
X73057000Y-13955900D01*
%TO.N,V5_PI*%
D23*
X30303500Y-49042800D02*
X34830800Y-44515500D01*
X34415400Y-41094600D02*
X34415400Y-40681500D01*
X5460000Y-12000000D02*
X5460000Y-14540000D01*
X5460000Y-11719800D02*
X5460000Y-12000000D01*
X24906300Y-26171800D02*
X9182800Y-10448300D01*
X34415400Y-40681500D02*
X24906300Y-31172400D01*
X9182800Y-10448300D02*
X6731500Y-10448300D01*
X6731500Y-10448300D02*
X5460000Y-11719800D01*
X34830800Y-41510000D02*
X34415400Y-41094600D01*
X24906300Y-31172400D02*
X24906300Y-26171800D01*
X28267000Y-49042800D02*
X30303500Y-49042800D01*
X34830800Y-44515500D02*
X34830800Y-41510000D01*
%TO.N,GPIO22*%
D21*
X19309000Y-41089000D02*
X8000000Y-29780000D01*
X19309000Y-42042200D02*
X19309000Y-41089000D01*
%TO.N,GPIO23*%
X4258300Y-30981700D02*
X4258300Y-32888700D01*
X9222900Y-33590000D02*
X18418800Y-42785900D01*
X5460000Y-29780000D02*
X4258300Y-30981700D01*
X4258300Y-32888700D02*
X4959600Y-33590000D01*
X4959600Y-33590000D02*
X9222900Y-33590000D01*
%TO.N,GPIO24*%
X24750500Y-43239800D02*
X13539500Y-32028800D01*
X13539500Y-32028800D02*
X12371000Y-32028800D01*
%TO.N,GPIO25*%
X6730100Y-38670100D02*
X5460000Y-37400000D01*
X27454700Y-43982400D02*
X16277000Y-43982400D01*
X16277000Y-43982400D02*
X10964700Y-38670100D01*
X28678300Y-42758800D02*
X27454700Y-43982400D01*
X10964700Y-38670100D02*
X6730100Y-38670100D01*
%TO.N,GPIO15*%
X13073100Y-23379800D02*
X33808900Y-44115600D01*
X6679800Y-23379800D02*
X13073100Y-23379800D01*
X5460000Y-22160000D02*
X6679800Y-23379800D01*
%TO.N,GPIO17*%
X8104000Y-24596000D02*
X13292300Y-24596000D01*
X8000000Y-24700000D02*
X8104000Y-24596000D01*
X26695800Y-37999500D02*
X26695800Y-41675000D01*
X13292300Y-24596000D02*
X26695800Y-37999500D01*
%TO.N,GPIO4*%
X13027200Y-25269500D02*
X13027200Y-30087500D01*
X13027100Y-25269500D02*
X13027200Y-25269500D01*
X13027200Y-30087500D02*
X26247200Y-43307500D01*
%TO.N,GPIO18*%
X6123200Y-24700000D02*
X5460000Y-24700000D01*
X21641100Y-41945200D02*
X21365900Y-41945200D01*
X8422700Y-25944700D02*
X7367900Y-25944700D01*
X11719300Y-29241300D02*
X8422700Y-25944700D01*
X21365900Y-41945200D02*
X11719300Y-32298600D01*
X11719300Y-32298600D02*
X11719300Y-29241300D01*
X7367900Y-25944700D02*
X6123200Y-24700000D01*
%TO.N,SH_CLK_D*%
X52155000Y-91439800D02*
X45412500Y-84697300D01*
X45548400Y-47495700D02*
X46966800Y-47495700D01*
X45412500Y-84697300D02*
X45412500Y-49779700D01*
X43274900Y-45222200D02*
X45548400Y-47495700D01*
%TO.N,SH_E_D*%
X44101400Y-89007300D02*
X44101400Y-51570400D01*
X44101400Y-51570400D02*
X39052300Y-46521300D01*
%TO.N,SH_D_D*%
X38642200Y-45431800D02*
X38351200Y-45722800D01*
X38351200Y-45722800D02*
X38351200Y-83942000D01*
X38351200Y-83942000D02*
X42690800Y-88281600D01*
%TO.N,SH_C_D*%
X44751600Y-85617000D02*
X44751600Y-49718100D01*
X47591100Y-88456500D02*
X44751600Y-85617000D01*
X44751600Y-49718100D02*
X39163400Y-44129900D01*
%TO.N,SH_B_D*%
X55173900Y-52076900D02*
X55173900Y-84750700D01*
X55173900Y-84750700D02*
X55141000Y-84783600D01*
X46183000Y-43086000D02*
X55173900Y-52076900D01*
%TO.N,SH_A_D*%
X54522100Y-57412500D02*
X54522100Y-82846400D01*
X43366000Y-42185900D02*
X42593900Y-42958000D01*
X42593900Y-42958000D02*
X42593900Y-45484300D01*
X42593900Y-45484300D02*
X54522100Y-57412500D01*
%TO.N,3V3*%
X6440900Y-26223400D02*
X6730000Y-26512500D01*
X6730000Y-31050000D02*
X8000000Y-32320000D01*
X6730000Y-26512500D02*
X6730000Y-31050000D01*
%TO.N,SDA0*%
X40211000Y-27995400D02*
X61113000Y-7093400D01*
X128048700Y-6352100D02*
X112880800Y-6352100D01*
X112880800Y-6352100D02*
X111240700Y-4712000D01*
X40211000Y-37012500D02*
X40211000Y-27995400D01*
%TO.N,H3_R2*%
X77270000Y-90096600D02*
X77270000Y-91810000D01*
X78096600Y-89270000D02*
X77270000Y-90096600D01*
X78976000Y-89270000D02*
X78096600Y-89270000D01*
X79752200Y-88493800D02*
X78976000Y-89270000D01*
X77041800Y-75713200D02*
X79752200Y-78423600D01*
X77270000Y-91810000D02*
X76000000Y-93080000D01*
X79752200Y-78423600D02*
X79752200Y-88493800D01*
%TO.N,H3_B1*%
X58074500Y-69944100D02*
X64388000Y-76257600D01*
X64388000Y-76257600D02*
X64388000Y-79404600D01*
%TO.N,H3_G1*%
X76137400Y-76378600D02*
X76137400Y-85597400D01*
X76137400Y-85597400D02*
X78540000Y-88000000D01*
%TO.N,H3_R1*%
X65852400Y-68086400D02*
X61439900Y-63673900D01*
X65852400Y-78334700D02*
X65852400Y-68086400D01*
%TO.N,GPIO10*%
X8210900Y-34860000D02*
X8000000Y-34860000D01*
X11462400Y-38111500D02*
X8210900Y-34860000D01*
%TO.N,H2_G2*%
X77201700Y-60741700D02*
X77201700Y-59016500D01*
X77201700Y-59016500D02*
X76455700Y-58270500D01*
X78540000Y-62080000D02*
X77201700Y-60741700D01*
X76455700Y-58270500D02*
X72939900Y-58270500D01*
X72939900Y-58270500D02*
X72851400Y-58182000D01*
%TO.N,SCL0*%
X2718700Y-12412900D02*
X2718700Y-44028500D01*
X2718700Y-44028500D02*
X3259700Y-44569500D01*
X3923600Y-11208000D02*
X2718700Y-12412900D01*
%TO.N,GPIO6*%
X8000000Y-50100000D02*
X16877900Y-58977900D01*
X16877900Y-58977900D02*
X17263400Y-58977900D01*
X17263400Y-58977900D02*
X17263400Y-58978000D01*
%TO.N,GPIO13*%
X13337000Y-60096100D02*
X13337000Y-57977000D01*
X13337000Y-57977000D02*
X8000000Y-52640000D01*
%TO.N,H2_R1_D*%
X29211300Y-51495000D02*
X29211300Y-57631900D01*
X38346800Y-42359500D02*
X29211300Y-51495000D01*
X38346800Y-39222700D02*
X38346800Y-42359500D01*
%TO.N,H2_G1*%
X78540000Y-55811800D02*
X78540000Y-57000000D01*
X69429900Y-46701700D02*
X78540000Y-55811800D01*
%TO.N,VF1*%
D22*
X97000000Y-13000000D02*
X99780200Y-10219800D01*
X99780200Y-10219800D02*
X118419800Y-10219800D01*
X118419800Y-10219800D02*
X121200000Y-13000000D01*
%TO.N,H3_B2*%
D21*
X73893600Y-92748400D02*
X73893600Y-93513600D01*
X73893600Y-93513600D02*
X76000000Y-95620000D01*
%TO.N,GPIO14*%
X1455900Y-79490700D02*
X1455900Y-19258800D01*
X6748800Y-84783600D02*
X1455900Y-79490700D01*
%TO.N,GPIO2*%
X3755600Y-44995200D02*
X3911400Y-44839400D01*
X3911400Y-44839400D02*
X3911400Y-43520300D01*
X3253400Y-17528900D02*
X4972300Y-15810000D01*
X3253400Y-42862300D02*
X3253400Y-17528900D01*
X9061800Y-84261700D02*
X3755600Y-78955500D01*
X3755600Y-78955500D02*
X3755600Y-44995200D01*
X4972300Y-15810000D02*
X6730000Y-15810000D01*
X3911400Y-43520300D02*
X3253400Y-42862300D01*
X6730000Y-15810000D02*
X8000000Y-14540000D01*
%TO.N,GPIO3*%
X3755100Y-22165400D02*
X4962200Y-20958300D01*
X5848100Y-46358300D02*
X6678200Y-45528200D01*
X4962200Y-20958300D02*
X5903800Y-20958300D01*
X3755100Y-42474600D02*
X3755100Y-22165400D01*
X6678200Y-44524800D02*
X5835100Y-43681700D01*
X4962300Y-46358300D02*
X5848100Y-46358300D01*
X5903800Y-20958300D02*
X6730000Y-20132100D01*
X10652900Y-83709700D02*
X4258300Y-77315100D01*
X6730000Y-20132100D02*
X6730000Y-18350000D01*
X6730000Y-18350000D02*
X8000000Y-17080000D01*
X4258300Y-77315100D02*
X4258300Y-47062300D01*
X6678200Y-45528200D02*
X6678200Y-44524800D01*
X5835100Y-43681700D02*
X4962200Y-43681700D01*
X4258300Y-47062300D02*
X4962300Y-46358300D01*
X4962200Y-43681700D02*
X3755100Y-42474600D01*
%TO.N,GPIO26*%
X8000000Y-57720000D02*
X19057800Y-68777800D01*
X19057800Y-68777800D02*
X19057800Y-85772300D01*
%TO.N,GPIO16*%
X6730000Y-56450000D02*
X5460000Y-55180000D01*
X6730000Y-73677000D02*
X6730000Y-56450000D01*
X16323000Y-83270000D02*
X6730000Y-73677000D01*
X16323000Y-85773900D02*
X16323000Y-83270000D01*
%TO.N,GPIO21*%
X13337000Y-81805200D02*
X5460000Y-73928200D01*
X5460000Y-73928200D02*
X5460000Y-60260000D01*
%TD*%
%TA.AperFunction,Conductor*%
%TO.N,GND*%
G36*
X77337644Y-72697388D02*
G01*
X77394962Y-72748996D01*
X77402759Y-72762503D01*
X77470476Y-72895405D01*
X77586172Y-73054646D01*
X77725354Y-73193828D01*
X77884595Y-73309524D01*
X78017496Y-73377240D01*
X78032800Y-73385038D01*
X78059975Y-73398884D01*
X78247174Y-73459709D01*
X78441583Y-73490500D01*
X78441588Y-73490500D01*
X78638412Y-73490500D01*
X78638417Y-73490500D01*
X78832826Y-73459709D01*
X78857961Y-73451541D01*
X78934981Y-73447503D01*
X79003703Y-73482517D01*
X79009365Y-73487889D01*
X79712459Y-74190983D01*
X79751023Y-74257778D01*
X79756100Y-74296342D01*
X79756100Y-77289257D01*
X79736138Y-77363757D01*
X79681600Y-77418295D01*
X79607100Y-77438257D01*
X79532600Y-77418295D01*
X79501741Y-77394616D01*
X77772017Y-75664892D01*
X77733453Y-75598097D01*
X77731239Y-75588601D01*
X77715380Y-75508874D01*
X77715379Y-75508870D01*
X77662575Y-75381390D01*
X77662572Y-75381384D01*
X77585916Y-75266661D01*
X77585914Y-75266658D01*
X77488342Y-75169086D01*
X77488338Y-75169083D01*
X77373615Y-75092427D01*
X77373616Y-75092427D01*
X77334790Y-75076345D01*
X77273601Y-75029392D01*
X77244086Y-74958135D01*
X77244646Y-74915378D01*
X77250500Y-74878418D01*
X77250500Y-74681587D01*
X77250500Y-74681585D01*
X77250500Y-74681583D01*
X77219709Y-74487174D01*
X77158884Y-74299975D01*
X77069524Y-74124595D01*
X76953828Y-73965354D01*
X76814646Y-73826172D01*
X76655405Y-73710476D01*
X76522503Y-73642759D01*
X76465186Y-73591152D01*
X76441352Y-73517799D01*
X76457388Y-73442356D01*
X76508996Y-73385038D01*
X76522504Y-73377240D01*
X76655405Y-73309524D01*
X76814646Y-73193828D01*
X76953828Y-73054646D01*
X77069524Y-72895405D01*
X77137240Y-72762503D01*
X77188848Y-72705186D01*
X77262201Y-72681352D01*
X77337644Y-72697388D01*
G37*
%TD.AperFunction*%
%TA.AperFunction,Conductor*%
G36*
X79167529Y-42407313D02*
G01*
X79219148Y-42464621D01*
X79235400Y-42532290D01*
X79235400Y-55368957D01*
X79215438Y-55443457D01*
X79160900Y-55497995D01*
X79086400Y-55517957D01*
X79011900Y-55497995D01*
X78981041Y-55474316D01*
X70160117Y-46653392D01*
X70121553Y-46586597D01*
X70119339Y-46577101D01*
X70103480Y-46497374D01*
X70103479Y-46497370D01*
X70100624Y-46490477D01*
X70050675Y-46369889D01*
X69974014Y-46255158D01*
X69876442Y-46157586D01*
X69876438Y-46157583D01*
X69761715Y-46080927D01*
X69761709Y-46080924D01*
X69634229Y-46028120D01*
X69634225Y-46028119D01*
X69498893Y-46001200D01*
X69360907Y-46001200D01*
X69225574Y-46028119D01*
X69225571Y-46028120D01*
X69220813Y-46030091D01*
X69144344Y-46040154D01*
X69073089Y-46010635D01*
X69026139Y-45949443D01*
X69014800Y-45892430D01*
X69014800Y-44479500D01*
X69034762Y-44405000D01*
X69089300Y-44350462D01*
X69163800Y-44330500D01*
X74785718Y-44330500D01*
X74860218Y-44350462D01*
X74914756Y-44405000D01*
X74918460Y-44411823D01*
X74930474Y-44435401D01*
X74930479Y-44435410D01*
X74978670Y-44501738D01*
X75046172Y-44594646D01*
X75185354Y-44733828D01*
X75344595Y-44849524D01*
X75519975Y-44938884D01*
X75707174Y-44999709D01*
X75901583Y-45030500D01*
X75901588Y-45030500D01*
X76098412Y-45030500D01*
X76098417Y-45030500D01*
X76292826Y-44999709D01*
X76480025Y-44938884D01*
X76655405Y-44849524D01*
X76814646Y-44733828D01*
X76953828Y-44594646D01*
X77069524Y-44435405D01*
X77158884Y-44260025D01*
X77219709Y-44072826D01*
X77250500Y-43878417D01*
X77250500Y-43681583D01*
X77219709Y-43487174D01*
X77158884Y-43299975D01*
X77153967Y-43290325D01*
X77112961Y-43209844D01*
X77096925Y-43134401D01*
X77120760Y-43061048D01*
X77178077Y-43009440D01*
X77245721Y-42993200D01*
X77409775Y-42993200D01*
X77549785Y-42955684D01*
X77675315Y-42883210D01*
X78070636Y-42487887D01*
X78137428Y-42449325D01*
X78214556Y-42449325D01*
X78222036Y-42451541D01*
X78247174Y-42459709D01*
X78441583Y-42490500D01*
X78441588Y-42490500D01*
X78638412Y-42490500D01*
X78638417Y-42490500D01*
X78832826Y-42459709D01*
X79020025Y-42398884D01*
X79020044Y-42398873D01*
X79025439Y-42396641D01*
X79026000Y-42397995D01*
X79094171Y-42383493D01*
X79167529Y-42407313D01*
G37*
%TD.AperFunction*%
%TA.AperFunction,Conductor*%
G36*
X169425000Y-520462D02*
G01*
X169479538Y-575000D01*
X169499500Y-649500D01*
X169499500Y-109350500D01*
X169479538Y-109425000D01*
X169425000Y-109479538D01*
X169350500Y-109499500D01*
X649500Y-109499500D01*
X575000Y-109479538D01*
X520462Y-109425000D01*
X500500Y-109350500D01*
X500500Y-104878706D01*
X3149500Y-104878706D01*
X3149500Y-105121293D01*
X3181160Y-105361781D01*
X3243947Y-105596103D01*
X3336778Y-105820216D01*
X3417634Y-105960263D01*
X3458064Y-106030289D01*
X3605735Y-106222738D01*
X3777262Y-106394265D01*
X3969711Y-106541936D01*
X4179788Y-106663224D01*
X4403900Y-106756054D01*
X4638211Y-106818838D01*
X4638217Y-106818838D01*
X4638218Y-106818839D01*
X4703600Y-106827446D01*
X4878712Y-106850500D01*
X5121288Y-106850500D01*
X5361789Y-106818838D01*
X5596100Y-106756054D01*
X5820212Y-106663224D01*
X6030289Y-106541936D01*
X6222738Y-106394265D01*
X6394265Y-106222738D01*
X6541936Y-106030289D01*
X6663224Y-105820212D01*
X6756054Y-105596100D01*
X6818838Y-105361789D01*
X6850500Y-105121288D01*
X6850500Y-104878712D01*
X6818838Y-104638211D01*
X6756054Y-104403900D01*
X6663224Y-104179788D01*
X6541936Y-103969711D01*
X6394265Y-103777262D01*
X6222738Y-103605735D01*
X6030289Y-103458064D01*
X5960263Y-103417634D01*
X5820216Y-103336778D01*
X5820214Y-103336777D01*
X5820212Y-103336776D01*
X5688932Y-103282398D01*
X5596103Y-103243947D01*
X5596101Y-103243946D01*
X5596100Y-103243946D01*
X5361789Y-103181162D01*
X5361787Y-103181161D01*
X5361781Y-103181160D01*
X5121293Y-103149500D01*
X5121288Y-103149500D01*
X4878712Y-103149500D01*
X4878706Y-103149500D01*
X4638218Y-103181160D01*
X4403896Y-103243947D01*
X4179783Y-103336778D01*
X3969712Y-103458063D01*
X3969711Y-103458064D01*
X3777262Y-103605735D01*
X3777260Y-103605736D01*
X3777256Y-103605740D01*
X3605740Y-103777256D01*
X3458063Y-103969712D01*
X3336778Y-104179783D01*
X3243947Y-104403896D01*
X3181160Y-104638218D01*
X3149500Y-104878706D01*
X500500Y-104878706D01*
X500500Y-19531827D01*
X520462Y-19457327D01*
X575000Y-19402789D01*
X649500Y-19382827D01*
X724000Y-19402789D01*
X778538Y-19457327D01*
X787158Y-19474808D01*
X835121Y-19590603D01*
X835122Y-19590605D01*
X835125Y-19590611D01*
X880290Y-19658205D01*
X905081Y-19731236D01*
X905400Y-19740982D01*
X905400Y-79418226D01*
X905400Y-79563174D01*
X942916Y-79703185D01*
X942917Y-79703186D01*
X1015390Y-79828715D01*
X6018582Y-84831907D01*
X6057146Y-84898702D01*
X6059360Y-84908197D01*
X6075219Y-84987927D01*
X6075220Y-84987929D01*
X6128024Y-85115409D01*
X6128027Y-85115415D01*
X6204683Y-85230138D01*
X6204686Y-85230142D01*
X6302258Y-85327714D01*
X6302261Y-85327716D01*
X6416984Y-85404372D01*
X6416986Y-85404373D01*
X6416989Y-85404375D01*
X6544472Y-85457180D01*
X6679807Y-85484100D01*
X6817793Y-85484100D01*
X6953128Y-85457180D01*
X7080611Y-85404375D01*
X7195342Y-85327714D01*
X7292914Y-85230142D01*
X7369575Y-85115411D01*
X7422380Y-84987928D01*
X7449300Y-84852593D01*
X7449300Y-84714607D01*
X7422380Y-84579272D01*
X7369575Y-84451789D01*
X7292914Y-84337058D01*
X7195342Y-84239486D01*
X7195338Y-84239483D01*
X7080615Y-84162827D01*
X7080609Y-84162824D01*
X6953129Y-84110020D01*
X6953127Y-84110019D01*
X6873397Y-84094160D01*
X6804223Y-84060047D01*
X6797107Y-84053382D01*
X2050041Y-79306316D01*
X2011477Y-79239521D01*
X2006400Y-79200957D01*
X2006400Y-44451250D01*
X2026362Y-44376750D01*
X2080900Y-44322212D01*
X2155400Y-44302250D01*
X2229900Y-44322212D01*
X2273615Y-44360551D01*
X2278187Y-44366511D01*
X2278190Y-44366515D01*
X2278193Y-44366518D01*
X2529482Y-44617807D01*
X2568046Y-44684602D01*
X2570260Y-44694097D01*
X2586119Y-44773827D01*
X2586120Y-44773829D01*
X2638924Y-44901309D01*
X2638927Y-44901315D01*
X2715583Y-45016038D01*
X2715586Y-45016042D01*
X2813158Y-45113614D01*
X2813161Y-45113616D01*
X2927884Y-45190272D01*
X2927886Y-45190273D01*
X2927889Y-45190275D01*
X3008278Y-45223573D01*
X3055369Y-45243079D01*
X3055370Y-45243079D01*
X3055372Y-45243080D01*
X3085169Y-45249007D01*
X3154340Y-45283116D01*
X3197191Y-45347245D01*
X3205100Y-45395143D01*
X3205100Y-78883026D01*
X3205100Y-79027974D01*
X3242616Y-79167985D01*
X3283917Y-79239521D01*
X3315090Y-79293515D01*
X8331582Y-84310007D01*
X8370146Y-84376802D01*
X8372360Y-84386297D01*
X8388219Y-84466027D01*
X8388220Y-84466029D01*
X8441024Y-84593509D01*
X8441027Y-84593515D01*
X8517683Y-84708238D01*
X8517686Y-84708242D01*
X8615258Y-84805814D01*
X8615261Y-84805816D01*
X8729984Y-84882472D01*
X8729986Y-84882473D01*
X8729989Y-84882475D01*
X8857472Y-84935280D01*
X8992807Y-84962200D01*
X9130793Y-84962200D01*
X9266128Y-84935280D01*
X9393611Y-84882475D01*
X9508342Y-84805814D01*
X9605914Y-84708242D01*
X9682575Y-84593511D01*
X9735380Y-84466028D01*
X9762300Y-84330693D01*
X9762300Y-84192707D01*
X9750290Y-84132330D01*
X9755334Y-84055371D01*
X9798183Y-83991241D01*
X9867357Y-83957127D01*
X9944320Y-83962171D01*
X10008450Y-84005020D01*
X10027519Y-84035678D01*
X10028677Y-84035060D01*
X10032127Y-84041515D01*
X10077901Y-84110020D01*
X10108786Y-84156242D01*
X10206358Y-84253814D01*
X10206361Y-84253816D01*
X10321084Y-84330472D01*
X10321086Y-84330473D01*
X10321089Y-84330475D01*
X10448572Y-84383280D01*
X10583907Y-84410200D01*
X10721893Y-84410200D01*
X10857228Y-84383280D01*
X10984711Y-84330475D01*
X11099442Y-84253814D01*
X11197014Y-84156242D01*
X11273675Y-84041511D01*
X11326480Y-83914028D01*
X11353400Y-83778693D01*
X11353400Y-83640707D01*
X11326480Y-83505372D01*
X11273675Y-83377889D01*
X11256205Y-83351744D01*
X11197016Y-83263161D01*
X11197014Y-83263158D01*
X11099442Y-83165586D01*
X11079961Y-83152569D01*
X10984715Y-83088927D01*
X10984709Y-83088924D01*
X10857229Y-83036120D01*
X10857227Y-83036119D01*
X10777497Y-83020260D01*
X10708323Y-82986147D01*
X10701207Y-82979482D01*
X4852441Y-77130716D01*
X4813877Y-77063921D01*
X4808800Y-77025357D01*
X4808800Y-74415243D01*
X4828762Y-74340743D01*
X4883300Y-74286205D01*
X4957800Y-74266243D01*
X5032300Y-74286205D01*
X5063159Y-74309884D01*
X12606782Y-81853507D01*
X12645346Y-81920302D01*
X12647560Y-81929797D01*
X12663419Y-82009527D01*
X12663420Y-82009529D01*
X12716224Y-82137009D01*
X12716227Y-82137015D01*
X12764048Y-82208583D01*
X12792886Y-82251742D01*
X12890458Y-82349314D01*
X12890461Y-82349316D01*
X13005184Y-82425972D01*
X13005186Y-82425973D01*
X13005189Y-82425975D01*
X13132672Y-82478780D01*
X13268007Y-82505700D01*
X13405993Y-82505700D01*
X13541328Y-82478780D01*
X13668811Y-82425975D01*
X13783542Y-82349314D01*
X13881114Y-82251742D01*
X13957775Y-82137011D01*
X14005327Y-82022207D01*
X14052279Y-81961019D01*
X14123536Y-81931503D01*
X14200004Y-81941570D01*
X14248344Y-81973869D01*
X15728859Y-83454384D01*
X15767423Y-83521179D01*
X15772500Y-83559743D01*
X15772500Y-85291716D01*
X15752538Y-85366216D01*
X15747389Y-85374496D01*
X15702225Y-85442086D01*
X15702224Y-85442090D01*
X15649420Y-85569570D01*
X15649419Y-85569574D01*
X15622500Y-85704906D01*
X15622500Y-85842893D01*
X15649419Y-85978225D01*
X15649420Y-85978229D01*
X15702224Y-86105709D01*
X15702227Y-86105715D01*
X15777814Y-86218838D01*
X15778886Y-86220442D01*
X15876458Y-86318014D01*
X15876461Y-86318016D01*
X15991184Y-86394672D01*
X15991186Y-86394673D01*
X15991189Y-86394675D01*
X16118672Y-86447480D01*
X16254007Y-86474400D01*
X16391993Y-86474400D01*
X16527328Y-86447480D01*
X16654811Y-86394675D01*
X16769542Y-86318014D01*
X16867114Y-86220442D01*
X16943775Y-86105711D01*
X16996580Y-85978228D01*
X17023500Y-85842893D01*
X17023500Y-85704907D01*
X16996580Y-85569572D01*
X16943775Y-85442089D01*
X16943774Y-85442088D01*
X16943774Y-85442086D01*
X16898611Y-85374496D01*
X16873819Y-85301461D01*
X16873500Y-85291716D01*
X16873500Y-83197525D01*
X16873499Y-83197523D01*
X16871399Y-83189684D01*
X16835984Y-83057515D01*
X16808781Y-83010398D01*
X16763510Y-82931985D01*
X7324141Y-73492616D01*
X7285577Y-73425821D01*
X7280500Y-73387257D01*
X7280500Y-59000011D01*
X7300462Y-58925511D01*
X7355000Y-58870973D01*
X7429500Y-58851011D01*
X7497146Y-58867252D01*
X7519964Y-58878879D01*
X7519967Y-58878880D01*
X7519975Y-58878884D01*
X7707174Y-58939709D01*
X7901583Y-58970500D01*
X7901588Y-58970500D01*
X8098412Y-58970500D01*
X8098417Y-58970500D01*
X8292826Y-58939709D01*
X8317961Y-58931541D01*
X8394978Y-58927503D01*
X8463701Y-58962516D01*
X8469364Y-58967889D01*
X18463659Y-68962184D01*
X18502223Y-69028979D01*
X18507300Y-69067543D01*
X18507300Y-85290116D01*
X18487338Y-85364616D01*
X18482189Y-85372896D01*
X18437025Y-85440486D01*
X18437024Y-85440490D01*
X18384220Y-85567970D01*
X18384219Y-85567974D01*
X18357300Y-85703306D01*
X18357300Y-85841293D01*
X18384219Y-85976625D01*
X18384220Y-85976629D01*
X18437024Y-86104109D01*
X18437027Y-86104115D01*
X18513683Y-86218838D01*
X18513686Y-86218842D01*
X18611258Y-86316414D01*
X18611261Y-86316416D01*
X18725984Y-86393072D01*
X18725986Y-86393073D01*
X18725989Y-86393075D01*
X18853472Y-86445880D01*
X18988807Y-86472800D01*
X19126793Y-86472800D01*
X19262128Y-86445880D01*
X19389611Y-86393075D01*
X19504342Y-86316414D01*
X19601914Y-86218842D01*
X19678575Y-86104111D01*
X19731380Y-85976628D01*
X19758300Y-85841293D01*
X19758300Y-85703307D01*
X19731380Y-85567972D01*
X19678575Y-85440489D01*
X19678574Y-85440488D01*
X19678574Y-85440486D01*
X19633411Y-85372896D01*
X19608619Y-85299861D01*
X19608300Y-85290116D01*
X19608300Y-68705325D01*
X19570784Y-68565315D01*
X19548611Y-68526910D01*
X19498310Y-68439785D01*
X9247889Y-58189364D01*
X9209325Y-58122569D01*
X9209325Y-58045441D01*
X9211527Y-58038006D01*
X9219709Y-58012826D01*
X9250500Y-57818417D01*
X9250500Y-57621583D01*
X9219709Y-57427174D01*
X9158884Y-57239975D01*
X9069524Y-57064595D01*
X8953828Y-56905354D01*
X8814646Y-56766172D01*
X8655405Y-56650476D01*
X8522503Y-56582759D01*
X8465186Y-56531152D01*
X8441352Y-56457799D01*
X8457388Y-56382356D01*
X8508996Y-56325038D01*
X8522504Y-56317240D01*
X8542097Y-56307257D01*
X8655405Y-56249524D01*
X8814646Y-56133828D01*
X8953828Y-55994646D01*
X9069524Y-55835405D01*
X9158884Y-55660025D01*
X9219709Y-55472826D01*
X9250500Y-55278417D01*
X9250500Y-55081583D01*
X9244597Y-55044313D01*
X9252658Y-54967609D01*
X9297993Y-54905211D01*
X9368452Y-54873840D01*
X9445158Y-54881901D01*
X9497121Y-54915646D01*
X12742859Y-58161384D01*
X12781423Y-58228179D01*
X12786500Y-58266743D01*
X12786500Y-59613916D01*
X12766538Y-59688416D01*
X12761389Y-59696696D01*
X12716225Y-59764286D01*
X12716224Y-59764290D01*
X12663420Y-59891770D01*
X12663419Y-59891774D01*
X12636500Y-60027106D01*
X12636500Y-60165093D01*
X12663419Y-60300425D01*
X12663420Y-60300429D01*
X12716224Y-60427909D01*
X12716227Y-60427915D01*
X12792883Y-60542638D01*
X12792886Y-60542642D01*
X12890458Y-60640214D01*
X12890461Y-60640216D01*
X13005184Y-60716872D01*
X13005186Y-60716873D01*
X13005189Y-60716875D01*
X13132672Y-60769680D01*
X13268007Y-60796600D01*
X13405993Y-60796600D01*
X13541328Y-60769680D01*
X13668811Y-60716875D01*
X13783542Y-60640214D01*
X13881114Y-60542642D01*
X13957775Y-60427911D01*
X14010580Y-60300428D01*
X14037500Y-60165093D01*
X14037500Y-60027107D01*
X14036093Y-60020036D01*
X14010580Y-59891774D01*
X14010579Y-59891770D01*
X13957775Y-59764290D01*
X13957774Y-59764286D01*
X13912611Y-59696696D01*
X13887819Y-59623661D01*
X13887500Y-59613916D01*
X13887500Y-57904525D01*
X13887499Y-57904523D01*
X13849984Y-57764515D01*
X13836691Y-57741491D01*
X13777510Y-57638985D01*
X9247889Y-53109364D01*
X9209325Y-53042569D01*
X9209325Y-52965441D01*
X9211527Y-52958006D01*
X9219709Y-52932826D01*
X9250500Y-52738417D01*
X9250500Y-52541583D01*
X9244597Y-52504313D01*
X9252658Y-52427609D01*
X9297993Y-52365211D01*
X9368452Y-52333840D01*
X9445158Y-52341901D01*
X9497121Y-52375646D01*
X13051952Y-55930476D01*
X16539886Y-59418410D01*
X16578284Y-59440579D01*
X16615364Y-59461987D01*
X16615365Y-59461988D01*
X16665411Y-59490882D01*
X16665412Y-59490882D01*
X16665415Y-59490884D01*
X16805425Y-59528400D01*
X16814859Y-59530928D01*
X16814103Y-59533745D01*
X16860266Y-59551118D01*
X16931589Y-59598775D01*
X17059072Y-59651580D01*
X17194407Y-59678500D01*
X17332393Y-59678500D01*
X17467728Y-59651580D01*
X17595211Y-59598775D01*
X17709942Y-59522114D01*
X17807514Y-59424542D01*
X17884175Y-59309811D01*
X17936980Y-59182328D01*
X17963900Y-59046993D01*
X17963900Y-58909007D01*
X17936980Y-58773672D01*
X17884175Y-58646189D01*
X17866876Y-58620300D01*
X17807516Y-58531461D01*
X17807514Y-58531458D01*
X17709942Y-58433886D01*
X17709938Y-58433883D01*
X17595215Y-58357227D01*
X17595209Y-58357224D01*
X17467729Y-58304420D01*
X17467725Y-58304419D01*
X17332393Y-58277500D01*
X17194407Y-58277500D01*
X17194406Y-58277500D01*
X17073684Y-58301512D01*
X16996721Y-58296467D01*
X16939258Y-58260734D01*
X9247889Y-50569364D01*
X9209325Y-50502569D01*
X9209325Y-50425441D01*
X9211527Y-50418006D01*
X9219709Y-50392826D01*
X9250500Y-50198417D01*
X9250500Y-50001583D01*
X9219709Y-49807174D01*
X9158884Y-49619975D01*
X9069524Y-49444595D01*
X8953828Y-49285354D01*
X8814646Y-49146172D01*
X8655405Y-49030476D01*
X8522503Y-48962759D01*
X8465186Y-48911152D01*
X8441352Y-48837799D01*
X8457388Y-48762356D01*
X8508996Y-48705038D01*
X8522504Y-48697240D01*
X8655405Y-48629524D01*
X8814646Y-48513828D01*
X8953828Y-48374646D01*
X9069524Y-48215405D01*
X9158884Y-48040025D01*
X9219709Y-47852826D01*
X9250500Y-47658417D01*
X9250500Y-47461583D01*
X9219709Y-47267174D01*
X9158884Y-47079975D01*
X9069524Y-46904595D01*
X8953828Y-46745354D01*
X8814646Y-46606172D01*
X8655405Y-46490476D01*
X8522503Y-46422759D01*
X8465186Y-46371152D01*
X8441352Y-46297799D01*
X8457388Y-46222356D01*
X8508996Y-46165038D01*
X8522504Y-46157240D01*
X8554473Y-46140951D01*
X8655405Y-46089524D01*
X8814646Y-45973828D01*
X8953828Y-45834646D01*
X9069524Y-45675405D01*
X9158884Y-45500025D01*
X9219709Y-45312826D01*
X9250500Y-45118417D01*
X9250500Y-44921583D01*
X9219709Y-44727174D01*
X9158884Y-44539975D01*
X9149572Y-44521700D01*
X9136163Y-44495383D01*
X9069524Y-44364595D01*
X8953828Y-44205354D01*
X8814646Y-44066172D01*
X8655405Y-43950476D01*
X8645010Y-43945179D01*
X8480036Y-43861121D01*
X8480030Y-43861119D01*
X8480025Y-43861116D01*
X8292826Y-43800291D01*
X8098417Y-43769500D01*
X7901583Y-43769500D01*
X7707174Y-43800291D01*
X7519975Y-43861116D01*
X7519972Y-43861117D01*
X7519963Y-43861121D01*
X7344598Y-43950474D01*
X7344593Y-43950477D01*
X7180618Y-44069613D01*
X7179229Y-44067701D01*
X7119397Y-44096200D01*
X7042510Y-44090107D01*
X6986964Y-44055039D01*
X6424961Y-43493036D01*
X6386397Y-43426241D01*
X6386397Y-43349113D01*
X6411963Y-43300528D01*
X6410387Y-43299383D01*
X6478709Y-43205345D01*
X6529524Y-43135405D01*
X6618884Y-42960025D01*
X6679709Y-42772826D01*
X6710500Y-42578417D01*
X6710500Y-42381583D01*
X6679709Y-42187174D01*
X6618884Y-41999975D01*
X6618160Y-41998555D01*
X6574174Y-41912227D01*
X6529524Y-41824595D01*
X6413828Y-41665354D01*
X6274646Y-41526172D01*
X6115405Y-41410476D01*
X5982503Y-41342759D01*
X5925186Y-41291152D01*
X5901352Y-41217799D01*
X5917388Y-41142356D01*
X5968996Y-41085038D01*
X5982504Y-41077240D01*
X6115405Y-41009524D01*
X6274646Y-40893828D01*
X6413828Y-40754646D01*
X6529524Y-40595405D01*
X6597240Y-40462503D01*
X6648848Y-40405186D01*
X6722201Y-40381352D01*
X6797644Y-40397388D01*
X6854962Y-40448996D01*
X6862759Y-40462503D01*
X6930476Y-40595405D01*
X7046172Y-40754646D01*
X7185354Y-40893828D01*
X7344595Y-41009524D01*
X7477496Y-41077240D01*
X7492800Y-41085038D01*
X7519975Y-41098884D01*
X7707174Y-41159709D01*
X7901583Y-41190500D01*
X7901588Y-41190500D01*
X8098412Y-41190500D01*
X8098417Y-41190500D01*
X8292826Y-41159709D01*
X8480025Y-41098884D01*
X8655405Y-41009524D01*
X8814646Y-40893828D01*
X8953828Y-40754646D01*
X9069524Y-40595405D01*
X9158884Y-40420025D01*
X9219709Y-40232826D01*
X9250500Y-40038417D01*
X9250500Y-39841583D01*
X9219709Y-39647174D01*
X9158884Y-39459975D01*
X9158880Y-39459967D01*
X9158879Y-39459964D01*
X9147303Y-39437246D01*
X9131266Y-39361803D01*
X9155099Y-39288450D01*
X9212416Y-39236841D01*
X9280062Y-39220600D01*
X10674957Y-39220600D01*
X10749457Y-39240562D01*
X10780316Y-39264241D01*
X15938985Y-44422910D01*
X16041707Y-44482216D01*
X16064515Y-44495384D01*
X16204525Y-44532900D01*
X27527175Y-44532900D01*
X27667185Y-44495384D01*
X27689993Y-44482216D01*
X27792715Y-44422910D01*
X28726608Y-43489015D01*
X28793401Y-43450453D01*
X28802887Y-43448241D01*
X28882628Y-43432380D01*
X29010111Y-43379575D01*
X29124842Y-43302914D01*
X29222414Y-43205342D01*
X29299075Y-43090611D01*
X29351880Y-42963128D01*
X29378800Y-42827793D01*
X29378800Y-42689807D01*
X29378187Y-42686727D01*
X29367389Y-42632442D01*
X29351880Y-42554472D01*
X29299075Y-42426989D01*
X29289340Y-42412420D01*
X29222416Y-42312261D01*
X29222414Y-42312258D01*
X29124842Y-42214686D01*
X29084410Y-42187670D01*
X29010115Y-42138027D01*
X29010109Y-42138024D01*
X28882629Y-42085220D01*
X28882625Y-42085219D01*
X28747293Y-42058300D01*
X28609307Y-42058300D01*
X28473974Y-42085219D01*
X28473970Y-42085220D01*
X28346490Y-42138024D01*
X28346484Y-42138027D01*
X28231761Y-42214683D01*
X28231754Y-42214689D01*
X28134189Y-42312254D01*
X28134183Y-42312261D01*
X28057527Y-42426984D01*
X28057524Y-42426990D01*
X28004720Y-42554470D01*
X28004717Y-42554479D01*
X27988858Y-42634204D01*
X27954744Y-42703378D01*
X27948081Y-42710492D01*
X27270316Y-43388259D01*
X27203521Y-43426823D01*
X27164957Y-43431900D01*
X27096700Y-43431900D01*
X27022200Y-43411938D01*
X26967662Y-43357400D01*
X26947700Y-43282900D01*
X26947700Y-43238506D01*
X26931088Y-43154993D01*
X26920780Y-43103172D01*
X26867975Y-42975689D01*
X26791314Y-42860958D01*
X26693742Y-42763386D01*
X26693738Y-42763383D01*
X26579015Y-42686727D01*
X26579013Y-42686726D01*
X26486983Y-42648606D01*
X26425793Y-42601654D01*
X26396278Y-42530397D01*
X26406345Y-42453928D01*
X26453297Y-42392738D01*
X26524554Y-42363223D01*
X26573069Y-42364810D01*
X26626807Y-42375500D01*
X26626808Y-42375500D01*
X26764793Y-42375500D01*
X26900128Y-42348580D01*
X27027611Y-42295775D01*
X27142342Y-42219114D01*
X27239914Y-42121542D01*
X27316575Y-42006811D01*
X27369380Y-41879328D01*
X27396300Y-41743993D01*
X27396300Y-41606007D01*
X27396142Y-41605215D01*
X27372715Y-41487438D01*
X27369380Y-41470672D01*
X27316575Y-41343189D01*
X27316574Y-41343188D01*
X27316574Y-41343186D01*
X27271411Y-41275596D01*
X27246619Y-41202561D01*
X27246300Y-41192816D01*
X27246300Y-38691242D01*
X27266262Y-38616742D01*
X27320800Y-38562204D01*
X27395300Y-38542242D01*
X27469800Y-38562204D01*
X27500659Y-38585883D01*
X33078681Y-44163905D01*
X33117245Y-44230700D01*
X33119459Y-44240194D01*
X33135320Y-44319928D01*
X33135320Y-44319929D01*
X33188124Y-44447409D01*
X33188127Y-44447415D01*
X33264783Y-44562138D01*
X33264789Y-44562145D01*
X33282362Y-44579718D01*
X33320926Y-44646513D01*
X33320926Y-44723641D01*
X33282362Y-44790436D01*
X29974141Y-48098659D01*
X29907346Y-48137223D01*
X29868782Y-48142300D01*
X28178309Y-48142300D01*
X28004336Y-48176905D01*
X28004332Y-48176906D01*
X27840453Y-48244786D01*
X27840451Y-48244787D01*
X27692968Y-48343333D01*
X27692963Y-48343337D01*
X27567537Y-48468763D01*
X27567533Y-48468768D01*
X27468987Y-48616251D01*
X27468986Y-48616253D01*
X27401106Y-48780132D01*
X27401105Y-48780136D01*
X27366500Y-48954108D01*
X27366500Y-49131491D01*
X27401105Y-49305463D01*
X27401106Y-49305467D01*
X27468986Y-49469346D01*
X27468987Y-49469348D01*
X27567533Y-49616831D01*
X27567536Y-49616835D01*
X27692965Y-49742264D01*
X27692968Y-49742266D01*
X27840451Y-49840812D01*
X27840453Y-49840813D01*
X28004334Y-49908694D01*
X28178309Y-49943300D01*
X29624757Y-49943300D01*
X29699257Y-49963262D01*
X29753795Y-50017800D01*
X29773757Y-50092300D01*
X29753795Y-50166800D01*
X29730116Y-50197659D01*
X28770789Y-51156985D01*
X28711959Y-51258882D01*
X28711959Y-51258884D01*
X28707482Y-51266639D01*
X28698316Y-51282514D01*
X28660800Y-51422524D01*
X28660800Y-57149716D01*
X28640838Y-57224216D01*
X28635689Y-57232496D01*
X28590525Y-57300086D01*
X28590524Y-57300090D01*
X28537720Y-57427570D01*
X28537719Y-57427574D01*
X28510800Y-57562906D01*
X28510800Y-57700893D01*
X28537719Y-57836225D01*
X28537720Y-57836229D01*
X28590524Y-57963709D01*
X28590527Y-57963715D01*
X28666964Y-58078110D01*
X28667186Y-58078442D01*
X28764758Y-58176014D01*
X28764761Y-58176016D01*
X28879484Y-58252672D01*
X28879486Y-58252673D01*
X28879489Y-58252675D01*
X29006972Y-58305480D01*
X29142307Y-58332400D01*
X29280293Y-58332400D01*
X29415628Y-58305480D01*
X29543111Y-58252675D01*
X29657842Y-58176014D01*
X29755414Y-58078442D01*
X29832075Y-57963711D01*
X29884880Y-57836228D01*
X29911800Y-57700893D01*
X29911800Y-57562907D01*
X29911465Y-57561225D01*
X29895607Y-57481500D01*
X29884880Y-57427572D01*
X29832075Y-57300089D01*
X29832074Y-57300088D01*
X29832074Y-57300086D01*
X29786911Y-57232496D01*
X29762119Y-57159461D01*
X29761800Y-57149716D01*
X29761800Y-51784743D01*
X29781762Y-51710243D01*
X29805441Y-51679384D01*
X35834500Y-45650325D01*
X37800700Y-45650325D01*
X37800700Y-84014475D01*
X37819088Y-84083100D01*
X37832281Y-84132334D01*
X37838216Y-84154485D01*
X37910690Y-84280015D01*
X41960582Y-88329907D01*
X41999146Y-88396702D01*
X42001360Y-88406197D01*
X42017219Y-88485927D01*
X42017220Y-88485929D01*
X42070024Y-88613409D01*
X42070027Y-88613415D01*
X42146683Y-88728138D01*
X42146686Y-88728142D01*
X42244258Y-88825714D01*
X42244261Y-88825716D01*
X42358984Y-88902372D01*
X42358986Y-88902373D01*
X42358989Y-88902375D01*
X42486472Y-88955180D01*
X42621807Y-88982100D01*
X42759793Y-88982100D01*
X42895128Y-88955180D01*
X43022611Y-88902375D01*
X43137342Y-88825714D01*
X43147533Y-88815523D01*
X43214326Y-88776956D01*
X43291454Y-88776954D01*
X43358250Y-88815516D01*
X43396817Y-88882309D01*
X43400810Y-88930987D01*
X43400900Y-88930987D01*
X43400900Y-88932083D01*
X43401178Y-88935473D01*
X43400900Y-88938297D01*
X43400900Y-89076293D01*
X43427819Y-89211625D01*
X43427820Y-89211629D01*
X43480624Y-89339109D01*
X43480627Y-89339115D01*
X43557283Y-89453838D01*
X43557286Y-89453842D01*
X43654858Y-89551414D01*
X43654861Y-89551416D01*
X43769584Y-89628072D01*
X43769586Y-89628073D01*
X43769589Y-89628075D01*
X43897072Y-89680880D01*
X44032407Y-89707800D01*
X44170393Y-89707800D01*
X44305728Y-89680880D01*
X44433211Y-89628075D01*
X44547942Y-89551414D01*
X44645514Y-89453842D01*
X44722175Y-89339111D01*
X44774980Y-89211628D01*
X44801900Y-89076293D01*
X44801900Y-88938307D01*
X44801207Y-88934825D01*
X44786358Y-88860175D01*
X44774980Y-88802972D01*
X44722175Y-88675489D01*
X44722174Y-88675488D01*
X44722174Y-88675486D01*
X44677011Y-88607896D01*
X44652219Y-88534861D01*
X44651900Y-88525116D01*
X44651900Y-86655543D01*
X44671862Y-86581043D01*
X44726400Y-86526505D01*
X44800900Y-86506543D01*
X44875400Y-86526505D01*
X44906259Y-86550184D01*
X46860882Y-88504807D01*
X46899446Y-88571602D01*
X46901660Y-88581097D01*
X46917519Y-88660827D01*
X46917520Y-88660829D01*
X46970324Y-88788309D01*
X46970327Y-88788315D01*
X47046538Y-88902372D01*
X47046986Y-88903042D01*
X47144558Y-89000614D01*
X47144561Y-89000616D01*
X47259284Y-89077272D01*
X47259286Y-89077273D01*
X47259289Y-89077275D01*
X47386772Y-89130080D01*
X47522107Y-89157000D01*
X47660093Y-89157000D01*
X47795428Y-89130080D01*
X47922911Y-89077275D01*
X48037642Y-89000614D01*
X48135214Y-88903042D01*
X48211875Y-88788311D01*
X48264680Y-88660828D01*
X48265514Y-88656634D01*
X48266652Y-88654325D01*
X48266806Y-88653820D01*
X48266889Y-88653845D01*
X48299621Y-88587460D01*
X48363748Y-88544606D01*
X48440710Y-88539556D01*
X48509887Y-88573664D01*
X48517011Y-88580336D01*
X51424782Y-91488107D01*
X51463346Y-91554902D01*
X51465560Y-91564397D01*
X51481419Y-91644127D01*
X51481420Y-91644129D01*
X51534224Y-91771609D01*
X51534227Y-91771615D01*
X51581000Y-91841615D01*
X51610886Y-91886342D01*
X51708458Y-91983914D01*
X51708461Y-91983916D01*
X51823184Y-92060572D01*
X51823186Y-92060573D01*
X51823189Y-92060575D01*
X51950672Y-92113380D01*
X52086007Y-92140300D01*
X52223993Y-92140300D01*
X52359328Y-92113380D01*
X52486811Y-92060575D01*
X52601542Y-91983914D01*
X52699114Y-91886342D01*
X52775775Y-91771611D01*
X52828580Y-91644128D01*
X52855500Y-91508793D01*
X52855500Y-91370807D01*
X52828580Y-91235472D01*
X52775775Y-91107989D01*
X52760979Y-91085846D01*
X52699116Y-90993261D01*
X52699114Y-90993258D01*
X52601542Y-90895686D01*
X52601538Y-90895683D01*
X52486815Y-90819027D01*
X52486809Y-90819024D01*
X52359329Y-90766220D01*
X52359327Y-90766219D01*
X52279597Y-90750360D01*
X52210423Y-90716247D01*
X52203307Y-90709582D01*
X46006641Y-84512916D01*
X45968077Y-84446121D01*
X45963000Y-84407557D01*
X45963000Y-50261882D01*
X45982962Y-50187382D01*
X45988092Y-50179130D01*
X46033275Y-50111511D01*
X46067823Y-50028105D01*
X46114775Y-49966915D01*
X46186032Y-49937399D01*
X46262500Y-49947466D01*
X46310840Y-49979765D01*
X53927959Y-57596884D01*
X53966523Y-57663679D01*
X53971600Y-57702243D01*
X53971600Y-82364216D01*
X53951638Y-82438716D01*
X53946489Y-82446996D01*
X53901325Y-82514586D01*
X53901324Y-82514590D01*
X53848520Y-82642070D01*
X53848519Y-82642074D01*
X53821600Y-82777406D01*
X53821600Y-82915393D01*
X53848519Y-83050725D01*
X53848520Y-83050729D01*
X53901324Y-83178209D01*
X53901327Y-83178215D01*
X53958087Y-83263161D01*
X53977986Y-83292942D01*
X54075558Y-83390514D01*
X54075561Y-83390516D01*
X54190284Y-83467172D01*
X54190286Y-83467173D01*
X54190289Y-83467175D01*
X54317772Y-83519980D01*
X54453107Y-83546900D01*
X54474400Y-83546900D01*
X54548900Y-83566862D01*
X54603438Y-83621400D01*
X54623400Y-83695900D01*
X54623400Y-84252178D01*
X54603438Y-84326678D01*
X54598289Y-84334958D01*
X54520225Y-84451786D01*
X54520224Y-84451790D01*
X54467420Y-84579270D01*
X54467419Y-84579274D01*
X54440500Y-84714606D01*
X54440500Y-84852593D01*
X54467419Y-84987925D01*
X54467420Y-84987929D01*
X54520224Y-85115409D01*
X54520227Y-85115415D01*
X54596883Y-85230138D01*
X54596886Y-85230142D01*
X54694458Y-85327714D01*
X54694461Y-85327716D01*
X54809184Y-85404372D01*
X54809186Y-85404373D01*
X54809189Y-85404375D01*
X54936672Y-85457180D01*
X55072007Y-85484100D01*
X55209993Y-85484100D01*
X55345328Y-85457180D01*
X55472811Y-85404375D01*
X55587542Y-85327714D01*
X55685114Y-85230142D01*
X55761775Y-85115411D01*
X55814580Y-84987928D01*
X55841500Y-84852593D01*
X55841500Y-84714607D01*
X55814580Y-84579272D01*
X55769018Y-84469275D01*
X55761779Y-84451797D01*
X55761770Y-84451781D01*
X55749510Y-84433432D01*
X55724719Y-84360396D01*
X55724400Y-84350654D01*
X55724400Y-69875106D01*
X57374000Y-69875106D01*
X57374000Y-70013093D01*
X57400919Y-70148425D01*
X57400920Y-70148429D01*
X57453724Y-70275909D01*
X57453727Y-70275915D01*
X57474083Y-70306379D01*
X57530386Y-70390642D01*
X57627958Y-70488214D01*
X57627961Y-70488216D01*
X57742684Y-70564872D01*
X57742686Y-70564873D01*
X57742689Y-70564875D01*
X57870172Y-70617680D01*
X57949901Y-70633539D01*
X58019075Y-70667652D01*
X58026192Y-70674317D01*
X63793859Y-76441984D01*
X63832423Y-76508779D01*
X63837500Y-76547343D01*
X63837500Y-78922416D01*
X63817538Y-78996916D01*
X63812389Y-79005196D01*
X63767225Y-79072786D01*
X63767224Y-79072790D01*
X63714420Y-79200270D01*
X63714419Y-79200274D01*
X63687500Y-79335606D01*
X63687500Y-79473593D01*
X63714419Y-79608925D01*
X63714420Y-79608929D01*
X63767224Y-79736409D01*
X63767227Y-79736415D01*
X63843883Y-79851138D01*
X63843886Y-79851142D01*
X63941458Y-79948714D01*
X63941461Y-79948716D01*
X64056184Y-80025372D01*
X64056186Y-80025373D01*
X64056189Y-80025375D01*
X64183672Y-80078180D01*
X64319007Y-80105100D01*
X64456993Y-80105100D01*
X64592328Y-80078180D01*
X64719811Y-80025375D01*
X64834542Y-79948714D01*
X64932114Y-79851142D01*
X65008775Y-79736411D01*
X65061580Y-79608928D01*
X65088500Y-79473593D01*
X65088500Y-79335607D01*
X65061580Y-79200272D01*
X65008775Y-79072789D01*
X65008774Y-79072788D01*
X65008774Y-79072786D01*
X64963611Y-79005196D01*
X64938819Y-78932161D01*
X64938500Y-78922416D01*
X64938500Y-78707917D01*
X64958462Y-78633417D01*
X65013000Y-78578879D01*
X65087500Y-78558917D01*
X65162000Y-78578879D01*
X65216538Y-78633417D01*
X65225154Y-78650890D01*
X65231313Y-78665757D01*
X65231627Y-78666515D01*
X65301520Y-78771116D01*
X65308286Y-78781242D01*
X65405858Y-78878814D01*
X65405861Y-78878816D01*
X65520584Y-78955472D01*
X65520586Y-78955473D01*
X65520589Y-78955475D01*
X65648072Y-79008280D01*
X65783407Y-79035200D01*
X65804600Y-79035200D01*
X65879100Y-79055162D01*
X65933638Y-79109700D01*
X65953600Y-79184200D01*
X65953600Y-79740456D01*
X65933638Y-79814956D01*
X65909959Y-79845815D01*
X63733292Y-82022481D01*
X63666497Y-82061045D01*
X63657004Y-82063258D01*
X63577279Y-82079117D01*
X63577270Y-82079120D01*
X63449790Y-82131924D01*
X63449784Y-82131927D01*
X63335061Y-82208583D01*
X63335054Y-82208589D01*
X63237489Y-82306154D01*
X63237483Y-82306161D01*
X63160827Y-82420884D01*
X63160824Y-82420890D01*
X63108020Y-82548370D01*
X63108019Y-82548374D01*
X63081100Y-82683706D01*
X63081100Y-82821693D01*
X63108019Y-82957025D01*
X63108020Y-82957029D01*
X63160821Y-83084503D01*
X63160822Y-83084505D01*
X63160825Y-83084511D01*
X63205990Y-83152105D01*
X63230781Y-83225136D01*
X63231100Y-83234882D01*
X63231100Y-88860175D01*
X63251103Y-88934825D01*
X63268616Y-89000185D01*
X63336681Y-89118079D01*
X63341090Y-89125715D01*
X71696882Y-97481507D01*
X71735446Y-97548302D01*
X71737660Y-97557797D01*
X71753519Y-97637527D01*
X71753520Y-97637529D01*
X71806324Y-97765009D01*
X71806327Y-97765015D01*
X71812889Y-97774835D01*
X71882986Y-97879742D01*
X71980558Y-97977314D01*
X71980561Y-97977316D01*
X72095284Y-98053972D01*
X72095286Y-98053973D01*
X72095289Y-98053975D01*
X72222772Y-98106780D01*
X72358107Y-98133700D01*
X72496093Y-98133700D01*
X72631428Y-98106780D01*
X72758911Y-98053975D01*
X72873642Y-97977314D01*
X72953357Y-97897598D01*
X73020150Y-97859035D01*
X73097278Y-97859035D01*
X73164073Y-97897598D01*
X75000648Y-99734173D01*
X75039212Y-99800968D01*
X75039212Y-99878096D01*
X75015833Y-99927112D01*
X74930473Y-100044599D01*
X74841121Y-100219963D01*
X74841117Y-100219972D01*
X74841116Y-100219975D01*
X74780291Y-100407174D01*
X74749500Y-100601583D01*
X74749500Y-100798417D01*
X74780291Y-100992826D01*
X74841116Y-101180025D01*
X74841119Y-101180030D01*
X74841121Y-101180036D01*
X74879351Y-101255066D01*
X74930476Y-101355405D01*
X75046172Y-101514646D01*
X75185354Y-101653828D01*
X75344595Y-101769524D01*
X75412744Y-101804247D01*
X75477495Y-101837240D01*
X75534813Y-101888849D01*
X75558647Y-101962202D01*
X75542611Y-102037644D01*
X75491002Y-102094962D01*
X75477495Y-102102760D01*
X75344598Y-102170474D01*
X75344593Y-102170477D01*
X75185363Y-102286165D01*
X75185352Y-102286174D01*
X75046174Y-102425352D01*
X75046165Y-102425363D01*
X74930477Y-102584593D01*
X74930474Y-102584598D01*
X74841121Y-102759963D01*
X74841117Y-102759972D01*
X74841116Y-102759975D01*
X74780291Y-102947174D01*
X74749500Y-103141583D01*
X74749500Y-103338417D01*
X74780291Y-103532826D01*
X74841116Y-103720025D01*
X74841119Y-103720030D01*
X74841121Y-103720036D01*
X74925179Y-103885010D01*
X74930476Y-103895405D01*
X75046172Y-104054646D01*
X75185354Y-104193828D01*
X75344595Y-104309524D01*
X75412744Y-104344247D01*
X75477495Y-104377240D01*
X75534813Y-104428849D01*
X75558647Y-104502202D01*
X75542611Y-104577644D01*
X75491002Y-104634962D01*
X75477495Y-104642760D01*
X75344598Y-104710474D01*
X75344593Y-104710477D01*
X75185363Y-104826165D01*
X75185352Y-104826174D01*
X75046174Y-104965352D01*
X75046165Y-104965363D01*
X74930477Y-105124593D01*
X74930474Y-105124598D01*
X74841121Y-105299963D01*
X74841117Y-105299972D01*
X74841116Y-105299975D01*
X74780291Y-105487174D01*
X74749500Y-105681583D01*
X74749500Y-105878417D01*
X74780291Y-106072826D01*
X74841116Y-106260025D01*
X74841119Y-106260030D01*
X74841121Y-106260036D01*
X74909511Y-106394259D01*
X74930476Y-106435405D01*
X75046172Y-106594646D01*
X75185354Y-106733828D01*
X75344595Y-106849524D01*
X75519975Y-106938884D01*
X75707174Y-106999709D01*
X75901583Y-107030500D01*
X75901588Y-107030500D01*
X76098412Y-107030500D01*
X76098417Y-107030500D01*
X76292826Y-106999709D01*
X76480025Y-106938884D01*
X76655405Y-106849524D01*
X76814646Y-106733828D01*
X76953828Y-106594646D01*
X77069524Y-106435405D01*
X77158884Y-106260025D01*
X77219709Y-106072826D01*
X77250500Y-105878417D01*
X77250500Y-105681583D01*
X77219709Y-105487174D01*
X77211540Y-105462035D01*
X77207503Y-105385017D01*
X77242517Y-105316295D01*
X77247868Y-105310655D01*
X77679819Y-104878706D01*
X163149500Y-104878706D01*
X163149500Y-105121293D01*
X163181160Y-105361781D01*
X163243947Y-105596103D01*
X163336778Y-105820216D01*
X163417634Y-105960263D01*
X163458064Y-106030289D01*
X163605735Y-106222738D01*
X163777262Y-106394265D01*
X163969711Y-106541936D01*
X164179788Y-106663224D01*
X164403900Y-106756054D01*
X164638211Y-106818838D01*
X164638217Y-106818838D01*
X164638218Y-106818839D01*
X164703600Y-106827446D01*
X164878712Y-106850500D01*
X165121288Y-106850500D01*
X165361789Y-106818838D01*
X165596100Y-106756054D01*
X165820212Y-106663224D01*
X166030289Y-106541936D01*
X166222738Y-106394265D01*
X166394265Y-106222738D01*
X166541936Y-106030289D01*
X166663224Y-105820212D01*
X166756054Y-105596100D01*
X166818838Y-105361789D01*
X166850500Y-105121288D01*
X166850500Y-104878712D01*
X166818838Y-104638211D01*
X166756054Y-104403900D01*
X166663224Y-104179788D01*
X166541936Y-103969711D01*
X166394265Y-103777262D01*
X166222738Y-103605735D01*
X166030289Y-103458064D01*
X165960263Y-103417634D01*
X165820216Y-103336778D01*
X165820214Y-103336777D01*
X165820212Y-103336776D01*
X165688932Y-103282398D01*
X165596103Y-103243947D01*
X165596101Y-103243946D01*
X165596100Y-103243946D01*
X165361789Y-103181162D01*
X165361787Y-103181161D01*
X165361781Y-103181160D01*
X165121293Y-103149500D01*
X165121288Y-103149500D01*
X164878712Y-103149500D01*
X164878706Y-103149500D01*
X164638218Y-103181160D01*
X164403896Y-103243947D01*
X164179783Y-103336778D01*
X163969712Y-103458063D01*
X163969711Y-103458064D01*
X163777262Y-103605735D01*
X163777260Y-103605736D01*
X163777256Y-103605740D01*
X163605740Y-103777256D01*
X163458063Y-103969712D01*
X163336778Y-104179783D01*
X163243947Y-104403896D01*
X163181160Y-104638218D01*
X163149500Y-104878706D01*
X77679819Y-104878706D01*
X77710510Y-104848015D01*
X77782984Y-104722485D01*
X77805565Y-104638211D01*
X77820500Y-104582475D01*
X77820500Y-104520011D01*
X77840462Y-104445511D01*
X77895000Y-104390973D01*
X77969500Y-104371011D01*
X78037146Y-104387252D01*
X78059964Y-104398879D01*
X78059967Y-104398880D01*
X78059975Y-104398884D01*
X78247174Y-104459709D01*
X78441583Y-104490500D01*
X78441588Y-104490500D01*
X78638412Y-104490500D01*
X78638417Y-104490500D01*
X78832826Y-104459709D01*
X79020025Y-104398884D01*
X79195405Y-104309524D01*
X79354646Y-104193828D01*
X79493828Y-104054646D01*
X79609524Y-103895405D01*
X79698884Y-103720025D01*
X79759709Y-103532826D01*
X79790500Y-103338417D01*
X79790500Y-103141583D01*
X79759709Y-102947174D01*
X79751541Y-102922036D01*
X79747504Y-102845013D01*
X79782519Y-102776292D01*
X79787869Y-102770653D01*
X80747110Y-101811414D01*
X80819584Y-101685885D01*
X80857100Y-101545874D01*
X80857100Y-101400926D01*
X80857100Y-99884306D01*
X95299500Y-99884306D01*
X95299500Y-102115694D01*
X95301757Y-102144374D01*
X95302402Y-102152571D01*
X95329046Y-102244279D01*
X95348256Y-102310398D01*
X95431919Y-102451865D01*
X95548135Y-102568081D01*
X95689602Y-102651744D01*
X95847428Y-102697597D01*
X95847427Y-102697597D01*
X95847431Y-102697598D01*
X95884306Y-102700500D01*
X95884313Y-102700500D01*
X98115687Y-102700500D01*
X98115694Y-102700500D01*
X98152569Y-102697598D01*
X98310398Y-102651744D01*
X98451865Y-102568081D01*
X98568081Y-102451865D01*
X98651744Y-102310398D01*
X98697598Y-102152569D01*
X98700500Y-102115694D01*
X98700500Y-100859043D01*
X109849500Y-100859043D01*
X109849500Y-101140956D01*
X109886293Y-101420427D01*
X109886295Y-101420440D01*
X109919906Y-101545875D01*
X109957421Y-101685885D01*
X109959259Y-101692742D01*
X110067139Y-101953187D01*
X110208089Y-102197319D01*
X110208090Y-102197321D01*
X110379700Y-102420965D01*
X110579034Y-102620299D01*
X110802678Y-102791909D01*
X110802681Y-102791910D01*
X110802683Y-102791912D01*
X111046817Y-102932863D01*
X111307261Y-103040742D01*
X111579558Y-103113704D01*
X111579564Y-103113704D01*
X111579572Y-103113706D01*
X111699036Y-103129433D01*
X111859049Y-103150500D01*
X112140951Y-103150500D01*
X112420442Y-103113704D01*
X112692739Y-103040742D01*
X112953183Y-102932863D01*
X113197317Y-102791912D01*
X113420965Y-102620300D01*
X113620300Y-102420965D01*
X113791912Y-102197317D01*
X113856272Y-102085843D01*
X115149500Y-102085843D01*
X115149500Y-102314157D01*
X115185216Y-102539660D01*
X115255769Y-102756799D01*
X115359421Y-102960228D01*
X115493621Y-103144937D01*
X115655063Y-103306379D01*
X115839772Y-103440579D01*
X116043201Y-103544231D01*
X116260340Y-103614784D01*
X116485843Y-103650500D01*
X116485847Y-103650500D01*
X116714153Y-103650500D01*
X116714157Y-103650500D01*
X116939660Y-103614784D01*
X117156799Y-103544231D01*
X117360228Y-103440579D01*
X117544937Y-103306379D01*
X117706379Y-103144937D01*
X117840579Y-102960228D01*
X117944231Y-102756799D01*
X118014784Y-102539660D01*
X118050500Y-102314157D01*
X118050500Y-102085843D01*
X118014784Y-101860340D01*
X117944231Y-101643201D01*
X117840579Y-101439772D01*
X117706379Y-101255063D01*
X117544937Y-101093621D01*
X117360228Y-100959421D01*
X117163225Y-100859043D01*
X119049500Y-100859043D01*
X119049500Y-101140956D01*
X119086293Y-101420427D01*
X119086295Y-101420440D01*
X119119906Y-101545875D01*
X119157421Y-101685885D01*
X119159259Y-101692742D01*
X119267139Y-101953187D01*
X119408089Y-102197319D01*
X119408090Y-102197321D01*
X119579700Y-102420965D01*
X119779034Y-102620299D01*
X120002678Y-102791909D01*
X120002681Y-102791910D01*
X120002683Y-102791912D01*
X120246817Y-102932863D01*
X120507261Y-103040742D01*
X120779558Y-103113704D01*
X120779564Y-103113704D01*
X120779572Y-103113706D01*
X120899036Y-103129433D01*
X121059049Y-103150500D01*
X121340951Y-103150500D01*
X121620442Y-103113704D01*
X121892739Y-103040742D01*
X122153183Y-102932863D01*
X122397317Y-102791912D01*
X122620965Y-102620300D01*
X122820300Y-102420965D01*
X122991912Y-102197317D01*
X123132863Y-101953183D01*
X123240742Y-101692739D01*
X123313704Y-101420442D01*
X123350500Y-101140951D01*
X123350500Y-100859049D01*
X123313704Y-100579558D01*
X123240742Y-100307261D01*
X123132863Y-100046817D01*
X122991912Y-99802683D01*
X122991910Y-99802680D01*
X122991909Y-99802678D01*
X122820299Y-99579034D01*
X122620965Y-99379700D01*
X122397321Y-99208090D01*
X122397319Y-99208089D01*
X122153187Y-99067139D01*
X122153185Y-99067138D01*
X122153183Y-99067137D01*
X122000619Y-99003943D01*
X121892742Y-98959259D01*
X121892740Y-98959258D01*
X121892739Y-98959258D01*
X121811845Y-98937582D01*
X121620440Y-98886295D01*
X121620427Y-98886293D01*
X121340956Y-98849500D01*
X121340951Y-98849500D01*
X121059049Y-98849500D01*
X121059043Y-98849500D01*
X120779572Y-98886293D01*
X120779559Y-98886295D01*
X120507257Y-98959259D01*
X120246812Y-99067139D01*
X120002680Y-99208089D01*
X120002678Y-99208090D01*
X119779034Y-99379700D01*
X119579700Y-99579034D01*
X119408090Y-99802678D01*
X119408089Y-99802680D01*
X119267139Y-100046812D01*
X119159259Y-100307257D01*
X119086295Y-100579559D01*
X119086293Y-100579572D01*
X119049500Y-100859043D01*
X117163225Y-100859043D01*
X117156799Y-100855769D01*
X116939660Y-100785216D01*
X116714157Y-100749500D01*
X116485843Y-100749500D01*
X116260340Y-100785216D01*
X116043201Y-100855769D01*
X116043195Y-100855771D01*
X116043195Y-100855772D01*
X115839773Y-100959420D01*
X115655066Y-101093618D01*
X115493618Y-101255066D01*
X115359420Y-101439773D01*
X115318151Y-101520769D01*
X115255769Y-101643201D01*
X115185216Y-101860340D01*
X115149500Y-102085843D01*
X113856272Y-102085843D01*
X113911896Y-101989500D01*
X113932859Y-101953190D01*
X113932859Y-101953189D01*
X113932863Y-101953183D01*
X114040742Y-101692739D01*
X114113704Y-101420442D01*
X114150500Y-101140951D01*
X114150500Y-100859049D01*
X114113704Y-100579558D01*
X114040742Y-100307261D01*
X113932863Y-100046817D01*
X113791912Y-99802683D01*
X113791910Y-99802680D01*
X113791909Y-99802678D01*
X113620299Y-99579034D01*
X113420965Y-99379700D01*
X113197321Y-99208090D01*
X113197319Y-99208089D01*
X112953187Y-99067139D01*
X112953185Y-99067138D01*
X112953183Y-99067137D01*
X112800619Y-99003943D01*
X112692742Y-98959259D01*
X112692740Y-98959258D01*
X112692739Y-98959258D01*
X112611845Y-98937582D01*
X112420440Y-98886295D01*
X112420427Y-98886293D01*
X112140956Y-98849500D01*
X112140951Y-98849500D01*
X111859049Y-98849500D01*
X111859043Y-98849500D01*
X111579572Y-98886293D01*
X111579559Y-98886295D01*
X111307257Y-98959259D01*
X111046812Y-99067139D01*
X110802680Y-99208089D01*
X110802678Y-99208090D01*
X110579034Y-99379700D01*
X110379700Y-99579034D01*
X110208090Y-99802678D01*
X110208089Y-99802680D01*
X110067139Y-100046812D01*
X109959259Y-100307257D01*
X109886295Y-100579559D01*
X109886293Y-100579572D01*
X109849500Y-100859043D01*
X98700500Y-100859043D01*
X98700500Y-99884306D01*
X98697598Y-99847431D01*
X98651744Y-99689602D01*
X98568081Y-99548135D01*
X98451865Y-99431919D01*
X98310398Y-99348256D01*
X98244279Y-99329046D01*
X98152571Y-99302402D01*
X98152572Y-99302402D01*
X98141506Y-99301531D01*
X98115694Y-99299500D01*
X95884306Y-99299500D01*
X95859722Y-99301434D01*
X95847428Y-99302402D01*
X95689599Y-99348257D01*
X95548136Y-99431918D01*
X95548133Y-99431920D01*
X95431920Y-99548133D01*
X95431918Y-99548136D01*
X95348257Y-99689599D01*
X95302402Y-99847428D01*
X95302402Y-99847431D01*
X95299500Y-99884306D01*
X80857100Y-99884306D01*
X80857100Y-73934125D01*
X80819584Y-73794115D01*
X80793811Y-73749475D01*
X80747110Y-73668586D01*
X79787889Y-72709365D01*
X79749325Y-72642570D01*
X79749325Y-72565442D01*
X79751533Y-72557988D01*
X79759709Y-72532826D01*
X79790500Y-72338417D01*
X79790500Y-72141583D01*
X79759709Y-71947174D01*
X79751540Y-71922035D01*
X79747503Y-71845017D01*
X79782517Y-71776295D01*
X79787869Y-71770654D01*
X82094743Y-69463781D01*
X82161536Y-69425219D01*
X82238664Y-69425219D01*
X82305459Y-69463783D01*
X82344023Y-69530578D01*
X82349100Y-69569142D01*
X82349100Y-90209757D01*
X82329138Y-90284257D01*
X82305459Y-90315116D01*
X81591789Y-91028785D01*
X81541614Y-91115693D01*
X81541613Y-91115695D01*
X81519317Y-91154311D01*
X81481800Y-91294323D01*
X81481800Y-96546016D01*
X81461838Y-96620516D01*
X81456689Y-96628796D01*
X81411525Y-96696386D01*
X81411524Y-96696390D01*
X81358720Y-96823870D01*
X81358719Y-96823874D01*
X81331800Y-96959206D01*
X81331800Y-97097193D01*
X81358719Y-97232525D01*
X81358720Y-97232529D01*
X81411524Y-97360009D01*
X81411527Y-97360015D01*
X81465373Y-97440600D01*
X81488186Y-97474742D01*
X81585758Y-97572314D01*
X81585761Y-97572316D01*
X81700484Y-97648972D01*
X81700486Y-97648973D01*
X81700489Y-97648975D01*
X81827972Y-97701780D01*
X81963307Y-97728700D01*
X82101293Y-97728700D01*
X82236628Y-97701780D01*
X82364111Y-97648975D01*
X82478842Y-97572314D01*
X82576414Y-97474742D01*
X82653075Y-97360011D01*
X82705880Y-97232528D01*
X82732800Y-97097193D01*
X82732800Y-96959207D01*
X82705880Y-96823872D01*
X82653075Y-96696389D01*
X82653074Y-96696388D01*
X82653074Y-96696386D01*
X82607911Y-96628796D01*
X82583119Y-96555761D01*
X82582800Y-96546016D01*
X82582800Y-93184306D01*
X146599500Y-93184306D01*
X146599500Y-94815694D01*
X146601757Y-94844374D01*
X146602402Y-94852571D01*
X146616327Y-94900500D01*
X146648256Y-95010398D01*
X146731919Y-95151865D01*
X146848135Y-95268081D01*
X146989602Y-95351744D01*
X147147428Y-95397597D01*
X147147427Y-95397597D01*
X147147431Y-95397598D01*
X147184306Y-95400500D01*
X147184313Y-95400500D01*
X148815687Y-95400500D01*
X148815694Y-95400500D01*
X148852569Y-95397598D01*
X149010398Y-95351744D01*
X149151865Y-95268081D01*
X149268081Y-95151865D01*
X149351744Y-95010398D01*
X149397598Y-94852569D01*
X149400500Y-94815694D01*
X149400500Y-93184306D01*
X149397598Y-93147431D01*
X149351744Y-92989602D01*
X149268081Y-92848135D01*
X149151865Y-92731919D01*
X149055956Y-92675199D01*
X149010400Y-92648257D01*
X149010399Y-92648256D01*
X149010398Y-92648256D01*
X148944279Y-92629046D01*
X148852571Y-92602402D01*
X148852572Y-92602402D01*
X148841506Y-92601531D01*
X148815694Y-92599500D01*
X147184306Y-92599500D01*
X147159722Y-92601434D01*
X147147428Y-92602402D01*
X146989599Y-92648257D01*
X146848136Y-92731918D01*
X146848133Y-92731920D01*
X146731920Y-92848133D01*
X146731918Y-92848136D01*
X146648257Y-92989599D01*
X146602402Y-93147428D01*
X146602402Y-93147431D01*
X146599500Y-93184306D01*
X82582800Y-93184306D01*
X82582800Y-91656543D01*
X82602762Y-91582043D01*
X82626441Y-91551184D01*
X82736819Y-91440806D01*
X84084500Y-91440806D01*
X84084500Y-91578793D01*
X84111419Y-91714125D01*
X84111420Y-91714129D01*
X84164224Y-91841609D01*
X84164227Y-91841615D01*
X84240883Y-91956338D01*
X84240886Y-91956342D01*
X84338458Y-92053914D01*
X84338461Y-92053916D01*
X84453184Y-92130572D01*
X84453186Y-92130573D01*
X84453189Y-92130575D01*
X84580672Y-92183380D01*
X84716007Y-92210300D01*
X84853993Y-92210300D01*
X84989328Y-92183380D01*
X85116811Y-92130575D01*
X85231542Y-92053914D01*
X85329114Y-91956342D01*
X85405775Y-91841611D01*
X85458580Y-91714128D01*
X85474439Y-91634395D01*
X85508551Y-91565223D01*
X85515202Y-91558121D01*
X88189018Y-88884306D01*
X95299500Y-88884306D01*
X95299500Y-91115694D01*
X95301757Y-91144374D01*
X95302402Y-91152571D01*
X95326487Y-91235470D01*
X95348256Y-91310398D01*
X95431919Y-91451865D01*
X95548135Y-91568081D01*
X95689602Y-91651744D01*
X95847428Y-91697597D01*
X95847427Y-91697597D01*
X95847431Y-91697598D01*
X95884306Y-91700500D01*
X95884313Y-91700500D01*
X98115687Y-91700500D01*
X98115694Y-91700500D01*
X98152569Y-91697598D01*
X98310398Y-91651744D01*
X98451865Y-91568081D01*
X98568081Y-91451865D01*
X98651744Y-91310398D01*
X98697598Y-91152569D01*
X98700500Y-91115694D01*
X98700500Y-89859043D01*
X109849500Y-89859043D01*
X109849500Y-90140956D01*
X109886293Y-90420427D01*
X109886295Y-90420440D01*
X109959259Y-90692742D01*
X109967230Y-90711985D01*
X110043322Y-90895689D01*
X110067139Y-90953187D01*
X110208089Y-91197319D01*
X110208090Y-91197321D01*
X110326229Y-91351281D01*
X110379700Y-91420965D01*
X110579035Y-91620300D01*
X110620011Y-91651742D01*
X110802678Y-91791909D01*
X110802681Y-91791910D01*
X110802683Y-91791912D01*
X111046817Y-91932863D01*
X111307261Y-92040742D01*
X111579558Y-92113704D01*
X111579564Y-92113704D01*
X111579572Y-92113706D01*
X111674208Y-92126165D01*
X111859049Y-92150500D01*
X112140951Y-92150500D01*
X112420442Y-92113704D01*
X112692739Y-92040742D01*
X112953183Y-91932863D01*
X113197317Y-91791912D01*
X113420965Y-91620300D01*
X113620300Y-91420965D01*
X113791912Y-91197317D01*
X113856272Y-91085843D01*
X115149500Y-91085843D01*
X115149500Y-91314157D01*
X115185216Y-91539660D01*
X115255769Y-91756799D01*
X115359421Y-91960228D01*
X115493621Y-92144937D01*
X115655063Y-92306379D01*
X115839772Y-92440579D01*
X116043201Y-92544231D01*
X116260340Y-92614784D01*
X116485843Y-92650500D01*
X116485847Y-92650500D01*
X116714153Y-92650500D01*
X116714157Y-92650500D01*
X116939660Y-92614784D01*
X117156799Y-92544231D01*
X117360228Y-92440579D01*
X117544937Y-92306379D01*
X117706379Y-92144937D01*
X117840579Y-91960228D01*
X117944231Y-91756799D01*
X118014784Y-91539660D01*
X118050500Y-91314157D01*
X118050500Y-91085843D01*
X118014784Y-90860340D01*
X117944231Y-90643201D01*
X117840579Y-90439772D01*
X117706379Y-90255063D01*
X117544937Y-90093621D01*
X117360228Y-89959421D01*
X117163225Y-89859043D01*
X119049500Y-89859043D01*
X119049500Y-90140956D01*
X119086293Y-90420427D01*
X119086295Y-90420440D01*
X119159259Y-90692742D01*
X119167230Y-90711985D01*
X119243322Y-90895689D01*
X119267139Y-90953187D01*
X119408089Y-91197319D01*
X119408090Y-91197321D01*
X119526229Y-91351281D01*
X119579700Y-91420965D01*
X119779035Y-91620300D01*
X119820011Y-91651742D01*
X120002678Y-91791909D01*
X120002681Y-91791910D01*
X120002683Y-91791912D01*
X120246817Y-91932863D01*
X120507261Y-92040742D01*
X120779558Y-92113704D01*
X120779564Y-92113704D01*
X120779572Y-92113706D01*
X120874208Y-92126165D01*
X121059049Y-92150500D01*
X121340951Y-92150500D01*
X121620442Y-92113704D01*
X121892739Y-92040742D01*
X122153183Y-91932863D01*
X122397317Y-91791912D01*
X122620965Y-91620300D01*
X122820300Y-91420965D01*
X122991912Y-91197317D01*
X123132863Y-90953183D01*
X123240742Y-90692739D01*
X123313704Y-90420442D01*
X123350500Y-90140951D01*
X123350500Y-89859049D01*
X123325521Y-89669316D01*
X123313706Y-89579572D01*
X123313704Y-89579559D01*
X123312493Y-89575038D01*
X123240742Y-89307261D01*
X123132863Y-89046817D01*
X122991912Y-88802683D01*
X122991910Y-88802680D01*
X122991909Y-88802678D01*
X122842446Y-88607896D01*
X122820300Y-88579035D01*
X122620965Y-88379700D01*
X122579987Y-88348256D01*
X122397321Y-88208090D01*
X122397319Y-88208089D01*
X122153187Y-88067139D01*
X122153185Y-88067138D01*
X122153183Y-88067137D01*
X121908475Y-87965776D01*
X121892742Y-87959259D01*
X121892740Y-87959258D01*
X121892739Y-87959258D01*
X121811845Y-87937582D01*
X121620440Y-87886295D01*
X121620427Y-87886293D01*
X121340956Y-87849500D01*
X121340951Y-87849500D01*
X121059049Y-87849500D01*
X121059043Y-87849500D01*
X120779572Y-87886293D01*
X120779559Y-87886295D01*
X120507257Y-87959259D01*
X120246812Y-88067139D01*
X120002680Y-88208089D01*
X120002678Y-88208090D01*
X119779034Y-88379700D01*
X119579700Y-88579034D01*
X119408090Y-88802678D01*
X119408089Y-88802680D01*
X119267139Y-89046812D01*
X119159259Y-89307257D01*
X119086295Y-89579559D01*
X119086293Y-89579572D01*
X119049500Y-89859043D01*
X117163225Y-89859043D01*
X117156799Y-89855769D01*
X116939660Y-89785216D01*
X116714157Y-89749500D01*
X116485843Y-89749500D01*
X116260340Y-89785216D01*
X116043201Y-89855769D01*
X116043195Y-89855771D01*
X116043195Y-89855772D01*
X115839773Y-89959420D01*
X115655066Y-90093618D01*
X115493618Y-90255066D01*
X115373465Y-90420442D01*
X115359421Y-90439772D01*
X115255769Y-90643201D01*
X115185216Y-90860340D01*
X115149500Y-91085843D01*
X113856272Y-91085843D01*
X113932863Y-90953183D01*
X114040742Y-90692739D01*
X114113704Y-90420442D01*
X114150500Y-90140951D01*
X114150500Y-89859049D01*
X114125521Y-89669316D01*
X114113706Y-89579572D01*
X114113704Y-89579559D01*
X114112493Y-89575038D01*
X114040742Y-89307261D01*
X113932863Y-89046817D01*
X113791912Y-88802683D01*
X113791910Y-88802680D01*
X113791909Y-88802678D01*
X113642446Y-88607896D01*
X113620300Y-88579035D01*
X113420965Y-88379700D01*
X113379987Y-88348256D01*
X113197321Y-88208090D01*
X113197319Y-88208089D01*
X112953187Y-88067139D01*
X112953185Y-88067138D01*
X112953183Y-88067137D01*
X112708475Y-87965776D01*
X112692742Y-87959259D01*
X112692740Y-87959258D01*
X112692739Y-87959258D01*
X112611845Y-87937582D01*
X112420440Y-87886295D01*
X112420427Y-87886293D01*
X112140956Y-87849500D01*
X112140951Y-87849500D01*
X111859049Y-87849500D01*
X111859043Y-87849500D01*
X111579572Y-87886293D01*
X111579559Y-87886295D01*
X111307257Y-87959259D01*
X111046812Y-88067139D01*
X110802680Y-88208089D01*
X110802678Y-88208090D01*
X110579034Y-88379700D01*
X110379700Y-88579034D01*
X110208090Y-88802678D01*
X110208089Y-88802680D01*
X110067139Y-89046812D01*
X109959259Y-89307257D01*
X109886295Y-89579559D01*
X109886293Y-89579572D01*
X109849500Y-89859043D01*
X98700500Y-89859043D01*
X98700500Y-88884306D01*
X98697598Y-88847431D01*
X98651744Y-88689602D01*
X98568081Y-88548135D01*
X98451865Y-88431919D01*
X98310398Y-88348256D01*
X98244279Y-88329046D01*
X98152571Y-88302402D01*
X98152572Y-88302402D01*
X98141506Y-88301531D01*
X98115694Y-88299500D01*
X95884306Y-88299500D01*
X95859722Y-88301434D01*
X95847428Y-88302402D01*
X95689599Y-88348257D01*
X95548136Y-88431918D01*
X95548133Y-88431920D01*
X95431920Y-88548133D01*
X95431918Y-88548136D01*
X95348257Y-88689599D01*
X95302402Y-88847428D01*
X95302402Y-88847431D01*
X95299500Y-88884306D01*
X88189018Y-88884306D01*
X89880510Y-87192815D01*
X89952984Y-87067285D01*
X89990500Y-86927274D01*
X89990500Y-86782326D01*
X89990500Y-77884306D01*
X95299500Y-77884306D01*
X95299500Y-80115694D01*
X95301757Y-80144374D01*
X95302402Y-80152571D01*
X95329046Y-80244279D01*
X95348256Y-80310398D01*
X95431919Y-80451865D01*
X95548135Y-80568081D01*
X95689602Y-80651744D01*
X95847428Y-80697597D01*
X95847427Y-80697597D01*
X95847431Y-80697598D01*
X95884306Y-80700500D01*
X95884313Y-80700500D01*
X98115687Y-80700500D01*
X98115694Y-80700500D01*
X98152569Y-80697598D01*
X98310398Y-80651744D01*
X98451865Y-80568081D01*
X98568081Y-80451865D01*
X98651744Y-80310398D01*
X98697598Y-80152569D01*
X98700500Y-80115694D01*
X98700500Y-78859043D01*
X109849500Y-78859043D01*
X109849500Y-79140956D01*
X109886293Y-79420427D01*
X109886295Y-79420440D01*
X109959259Y-79692742D01*
X109977347Y-79736411D01*
X110065284Y-79948710D01*
X110067139Y-79953187D01*
X110208089Y-80197319D01*
X110208090Y-80197321D01*
X110379700Y-80420965D01*
X110579034Y-80620299D01*
X110802678Y-80791909D01*
X110802681Y-80791910D01*
X110802683Y-80791912D01*
X111046817Y-80932863D01*
X111307261Y-81040742D01*
X111579558Y-81113704D01*
X111579564Y-81113704D01*
X111579572Y-81113706D01*
X111699036Y-81129433D01*
X111859049Y-81150500D01*
X112140951Y-81150500D01*
X112420442Y-81113704D01*
X112692739Y-81040742D01*
X112953183Y-80932863D01*
X113197317Y-80791912D01*
X113420965Y-80620300D01*
X113620300Y-80420965D01*
X113791912Y-80197317D01*
X113856272Y-80085843D01*
X115149500Y-80085843D01*
X115149500Y-80314157D01*
X115185216Y-80539660D01*
X115255769Y-80756799D01*
X115359421Y-80960228D01*
X115493621Y-81144937D01*
X115655063Y-81306379D01*
X115839772Y-81440579D01*
X116043201Y-81544231D01*
X116260340Y-81614784D01*
X116485843Y-81650500D01*
X116485847Y-81650500D01*
X116714153Y-81650500D01*
X116714157Y-81650500D01*
X116939660Y-81614784D01*
X117156799Y-81544231D01*
X117360228Y-81440579D01*
X117544937Y-81306379D01*
X117667010Y-81184306D01*
X136599500Y-81184306D01*
X136599500Y-82815694D01*
X136601757Y-82844374D01*
X136602402Y-82852571D01*
X136609586Y-82877297D01*
X136648256Y-83010398D01*
X136731919Y-83151865D01*
X136848135Y-83268081D01*
X136989602Y-83351744D01*
X137147428Y-83397597D01*
X137147427Y-83397597D01*
X137147431Y-83397598D01*
X137184306Y-83400500D01*
X137184313Y-83400500D01*
X138815687Y-83400500D01*
X138815694Y-83400500D01*
X138852569Y-83397598D01*
X139010398Y-83351744D01*
X139151865Y-83268081D01*
X139268081Y-83151865D01*
X139351744Y-83010398D01*
X139397598Y-82852569D01*
X139400500Y-82815694D01*
X139400500Y-81184306D01*
X139397598Y-81147431D01*
X139351744Y-80989602D01*
X139351742Y-80989600D01*
X139351742Y-80989597D01*
X139332598Y-80957226D01*
X139332597Y-80957224D01*
X139289474Y-80884306D01*
X156299500Y-80884306D01*
X156299500Y-83115694D01*
X156301757Y-83144374D01*
X156302402Y-83152571D01*
X156309853Y-83178215D01*
X156348256Y-83310398D01*
X156431919Y-83451865D01*
X156548135Y-83568081D01*
X156689602Y-83651744D01*
X156847428Y-83697597D01*
X156847427Y-83697597D01*
X156847431Y-83697598D01*
X156884306Y-83700500D01*
X156884313Y-83700500D01*
X159115687Y-83700500D01*
X159115694Y-83700500D01*
X159152569Y-83697598D01*
X159310398Y-83651744D01*
X159451865Y-83568081D01*
X159568081Y-83451865D01*
X159651744Y-83310398D01*
X159697598Y-83152569D01*
X159700500Y-83115694D01*
X159700500Y-80884306D01*
X159697598Y-80847431D01*
X159651744Y-80689602D01*
X159568081Y-80548135D01*
X159451865Y-80431919D01*
X159310398Y-80348256D01*
X159244279Y-80329046D01*
X159152571Y-80302402D01*
X159152572Y-80302402D01*
X159141506Y-80301531D01*
X159115694Y-80299500D01*
X156884306Y-80299500D01*
X156859722Y-80301434D01*
X156847428Y-80302402D01*
X156689599Y-80348257D01*
X156548136Y-80431918D01*
X156548133Y-80431920D01*
X156431920Y-80548133D01*
X156431918Y-80548136D01*
X156348257Y-80689599D01*
X156302402Y-80847428D01*
X156302346Y-80848141D01*
X156299500Y-80884306D01*
X139289474Y-80884306D01*
X139268086Y-80848141D01*
X139268079Y-80848133D01*
X139151866Y-80731920D01*
X139151865Y-80731919D01*
X139010398Y-80648256D01*
X138914174Y-80620300D01*
X138852571Y-80602402D01*
X138852572Y-80602402D01*
X138841506Y-80601531D01*
X138815694Y-80599500D01*
X137184306Y-80599500D01*
X137159722Y-80601434D01*
X137147428Y-80602402D01*
X136989599Y-80648257D01*
X136848136Y-80731918D01*
X136848133Y-80731920D01*
X136731920Y-80848133D01*
X136731918Y-80848136D01*
X136648257Y-80989599D01*
X136602402Y-81147428D01*
X136602160Y-81150500D01*
X136599500Y-81184306D01*
X117667010Y-81184306D01*
X117706379Y-81144937D01*
X117840579Y-80960228D01*
X117944231Y-80756799D01*
X118014784Y-80539660D01*
X118050500Y-80314157D01*
X118050500Y-80085843D01*
X118014784Y-79860340D01*
X117944231Y-79643201D01*
X117840579Y-79439772D01*
X117706379Y-79255063D01*
X117544937Y-79093621D01*
X117360228Y-78959421D01*
X117163225Y-78859043D01*
X119049500Y-78859043D01*
X119049500Y-79140956D01*
X119086293Y-79420427D01*
X119086295Y-79420440D01*
X119159259Y-79692742D01*
X119177347Y-79736411D01*
X119265284Y-79948710D01*
X119267139Y-79953187D01*
X119408089Y-80197319D01*
X119408090Y-80197321D01*
X119579700Y-80420965D01*
X119779034Y-80620299D01*
X120002678Y-80791909D01*
X120002681Y-80791910D01*
X120002683Y-80791912D01*
X120246817Y-80932863D01*
X120507261Y-81040742D01*
X120779558Y-81113704D01*
X120779564Y-81113704D01*
X120779572Y-81113706D01*
X120899036Y-81129433D01*
X121059049Y-81150500D01*
X121340951Y-81150500D01*
X121620442Y-81113704D01*
X121892739Y-81040742D01*
X122153183Y-80932863D01*
X122397317Y-80791912D01*
X122620965Y-80620300D01*
X122820300Y-80420965D01*
X122991912Y-80197317D01*
X123132863Y-79953183D01*
X123240742Y-79692739D01*
X123313704Y-79420442D01*
X123350500Y-79140951D01*
X123350500Y-78859049D01*
X123320795Y-78633417D01*
X123313706Y-78579572D01*
X123313704Y-78579559D01*
X123302844Y-78539028D01*
X123240742Y-78307261D01*
X123132863Y-78046817D01*
X122991912Y-77802683D01*
X122991910Y-77802680D01*
X122991909Y-77802678D01*
X122820299Y-77579034D01*
X122620965Y-77379700D01*
X122397321Y-77208090D01*
X122397319Y-77208089D01*
X122153187Y-77067139D01*
X122153185Y-77067138D01*
X122153183Y-77067137D01*
X122000619Y-77003943D01*
X121892742Y-76959259D01*
X121892740Y-76959258D01*
X121892739Y-76959258D01*
X121811845Y-76937582D01*
X121620440Y-76886295D01*
X121620427Y-76886293D01*
X121340956Y-76849500D01*
X121340951Y-76849500D01*
X121059049Y-76849500D01*
X121059043Y-76849500D01*
X120779572Y-76886293D01*
X120779559Y-76886295D01*
X120507257Y-76959259D01*
X120246812Y-77067139D01*
X120002680Y-77208089D01*
X120002678Y-77208090D01*
X119779034Y-77379700D01*
X119579700Y-77579034D01*
X119408090Y-77802678D01*
X119408089Y-77802680D01*
X119267139Y-78046812D01*
X119159259Y-78307257D01*
X119086295Y-78579559D01*
X119086293Y-78579572D01*
X119049500Y-78859043D01*
X117163225Y-78859043D01*
X117156799Y-78855769D01*
X116939660Y-78785216D01*
X116714157Y-78749500D01*
X116485843Y-78749500D01*
X116260340Y-78785216D01*
X116043201Y-78855769D01*
X116043195Y-78855771D01*
X116043195Y-78855772D01*
X115839773Y-78959420D01*
X115655066Y-79093618D01*
X115493618Y-79255066D01*
X115359420Y-79439773D01*
X115296544Y-79563175D01*
X115255769Y-79643201D01*
X115185216Y-79860340D01*
X115149500Y-80085843D01*
X113856272Y-80085843D01*
X113932863Y-79953183D01*
X114040742Y-79692739D01*
X114113704Y-79420442D01*
X114150500Y-79140951D01*
X114150500Y-78859049D01*
X114120795Y-78633417D01*
X114113706Y-78579572D01*
X114113704Y-78579559D01*
X114102844Y-78539028D01*
X114040742Y-78307261D01*
X113932863Y-78046817D01*
X113791912Y-77802683D01*
X113791910Y-77802680D01*
X113791909Y-77802678D01*
X113620299Y-77579034D01*
X113420965Y-77379700D01*
X113197321Y-77208090D01*
X113197319Y-77208089D01*
X112953187Y-77067139D01*
X112953185Y-77067138D01*
X112953183Y-77067137D01*
X112800619Y-77003943D01*
X112692742Y-76959259D01*
X112692740Y-76959258D01*
X112692739Y-76959258D01*
X112611845Y-76937582D01*
X112420440Y-76886295D01*
X112420427Y-76886293D01*
X112140956Y-76849500D01*
X112140951Y-76849500D01*
X111859049Y-76849500D01*
X111859043Y-76849500D01*
X111579572Y-76886293D01*
X111579559Y-76886295D01*
X111307257Y-76959259D01*
X111046812Y-77067139D01*
X110802680Y-77208089D01*
X110802678Y-77208090D01*
X110579034Y-77379700D01*
X110379700Y-77579034D01*
X110208090Y-77802678D01*
X110208089Y-77802680D01*
X110067139Y-78046812D01*
X109959259Y-78307257D01*
X109886295Y-78579559D01*
X109886293Y-78579572D01*
X109849500Y-78859043D01*
X98700500Y-78859043D01*
X98700500Y-77884306D01*
X98697598Y-77847431D01*
X98651744Y-77689602D01*
X98568081Y-77548135D01*
X98451865Y-77431919D01*
X98310398Y-77348256D01*
X98241637Y-77328279D01*
X98152571Y-77302402D01*
X98152572Y-77302402D01*
X98141506Y-77301531D01*
X98115694Y-77299500D01*
X95884306Y-77299500D01*
X95859722Y-77301434D01*
X95847428Y-77302402D01*
X95689599Y-77348257D01*
X95548136Y-77431918D01*
X95548133Y-77431920D01*
X95431920Y-77548133D01*
X95431918Y-77548136D01*
X95348257Y-77689599D01*
X95302402Y-77847428D01*
X95302402Y-77847431D01*
X95299500Y-77884306D01*
X89990500Y-77884306D01*
X89990500Y-67608382D01*
X90010462Y-67533882D01*
X90015592Y-67525630D01*
X90060775Y-67458011D01*
X90113580Y-67330528D01*
X90140500Y-67195193D01*
X90140500Y-67057207D01*
X90113580Y-66921872D01*
X90098020Y-66884306D01*
X95299500Y-66884306D01*
X95299500Y-69115694D01*
X95301757Y-69144374D01*
X95302402Y-69152571D01*
X95318920Y-69209425D01*
X95348256Y-69310398D01*
X95431919Y-69451865D01*
X95548135Y-69568081D01*
X95689602Y-69651744D01*
X95847428Y-69697597D01*
X95847427Y-69697597D01*
X95847431Y-69697598D01*
X95884306Y-69700500D01*
X95884313Y-69700500D01*
X98115687Y-69700500D01*
X98115694Y-69700500D01*
X98152569Y-69697598D01*
X98310398Y-69651744D01*
X98451865Y-69568081D01*
X98568081Y-69451865D01*
X98651744Y-69310398D01*
X98697598Y-69152569D01*
X98700500Y-69115694D01*
X98700500Y-67859043D01*
X109849500Y-67859043D01*
X109849500Y-68140956D01*
X109886293Y-68420427D01*
X109886295Y-68420440D01*
X109959259Y-68692742D01*
X109981391Y-68746174D01*
X110044729Y-68899086D01*
X110067139Y-68953187D01*
X110208089Y-69197319D01*
X110208090Y-69197321D01*
X110379700Y-69420965D01*
X110579034Y-69620299D01*
X110802678Y-69791909D01*
X110802681Y-69791910D01*
X110802683Y-69791912D01*
X111046817Y-69932863D01*
X111307261Y-70040742D01*
X111579558Y-70113704D01*
X111579564Y-70113704D01*
X111579572Y-70113706D01*
X111699036Y-70129433D01*
X111859049Y-70150500D01*
X112140951Y-70150500D01*
X112420442Y-70113704D01*
X112692739Y-70040742D01*
X112953183Y-69932863D01*
X113197317Y-69791912D01*
X113420965Y-69620300D01*
X113620300Y-69420965D01*
X113791912Y-69197317D01*
X113856272Y-69085843D01*
X115149500Y-69085843D01*
X115149500Y-69314157D01*
X115185216Y-69539660D01*
X115255769Y-69756799D01*
X115359421Y-69960228D01*
X115493621Y-70144937D01*
X115655063Y-70306379D01*
X115839772Y-70440579D01*
X116043201Y-70544231D01*
X116260340Y-70614784D01*
X116485843Y-70650500D01*
X116485847Y-70650500D01*
X116714153Y-70650500D01*
X116714157Y-70650500D01*
X116939660Y-70614784D01*
X117156799Y-70544231D01*
X117360228Y-70440579D01*
X117544937Y-70306379D01*
X117706379Y-70144937D01*
X117840579Y-69960228D01*
X117944231Y-69756799D01*
X118014784Y-69539660D01*
X118050500Y-69314157D01*
X118050500Y-69085843D01*
X118014784Y-68860340D01*
X117944231Y-68643201D01*
X117840579Y-68439772D01*
X117706379Y-68255063D01*
X117544937Y-68093621D01*
X117360228Y-67959421D01*
X117163225Y-67859043D01*
X119049500Y-67859043D01*
X119049500Y-68140956D01*
X119086293Y-68420427D01*
X119086295Y-68420440D01*
X119159259Y-68692742D01*
X119181391Y-68746174D01*
X119244729Y-68899086D01*
X119267139Y-68953187D01*
X119408089Y-69197319D01*
X119408090Y-69197321D01*
X119579700Y-69420965D01*
X119779034Y-69620299D01*
X120002678Y-69791909D01*
X120002681Y-69791910D01*
X120002683Y-69791912D01*
X120246817Y-69932863D01*
X120507261Y-70040742D01*
X120779558Y-70113704D01*
X120779564Y-70113704D01*
X120779572Y-70113706D01*
X120899036Y-70129433D01*
X121059049Y-70150500D01*
X121340951Y-70150500D01*
X121620442Y-70113704D01*
X121892739Y-70040742D01*
X122153183Y-69932863D01*
X122397317Y-69791912D01*
X122620965Y-69620300D01*
X122820300Y-69420965D01*
X122991912Y-69197317D01*
X123132863Y-68953183D01*
X123240742Y-68692739D01*
X123313704Y-68420442D01*
X123350500Y-68140951D01*
X123350500Y-67859049D01*
X123319516Y-67623703D01*
X123313706Y-67579572D01*
X123313704Y-67579559D01*
X123313704Y-67579558D01*
X123240742Y-67307261D01*
X123132863Y-67046817D01*
X122991912Y-66802683D01*
X122991910Y-66802680D01*
X122991909Y-66802678D01*
X122820299Y-66579034D01*
X122620965Y-66379700D01*
X122397321Y-66208090D01*
X122397319Y-66208089D01*
X122153187Y-66067139D01*
X122153185Y-66067138D01*
X122153183Y-66067137D01*
X121900506Y-65962475D01*
X121892742Y-65959259D01*
X121892740Y-65959258D01*
X121892739Y-65959258D01*
X121811845Y-65937582D01*
X121620440Y-65886295D01*
X121620427Y-65886293D01*
X121340956Y-65849500D01*
X121340951Y-65849500D01*
X121059049Y-65849500D01*
X121059043Y-65849500D01*
X120779572Y-65886293D01*
X120779559Y-65886295D01*
X120507257Y-65959259D01*
X120246812Y-66067139D01*
X120002680Y-66208089D01*
X120002678Y-66208090D01*
X119779034Y-66379700D01*
X119579700Y-66579034D01*
X119408090Y-66802678D01*
X119408089Y-66802680D01*
X119267139Y-67046812D01*
X119159259Y-67307257D01*
X119086295Y-67579559D01*
X119086293Y-67579572D01*
X119049500Y-67859043D01*
X117163225Y-67859043D01*
X117156799Y-67855769D01*
X116939660Y-67785216D01*
X116714157Y-67749500D01*
X116485843Y-67749500D01*
X116260340Y-67785216D01*
X116043201Y-67855769D01*
X116043195Y-67855771D01*
X116043195Y-67855772D01*
X115839773Y-67959420D01*
X115655066Y-68093618D01*
X115493618Y-68255066D01*
X115359420Y-68439773D01*
X115295456Y-68565311D01*
X115255769Y-68643201D01*
X115185216Y-68860340D01*
X115149500Y-69085843D01*
X113856272Y-69085843D01*
X113932863Y-68953183D01*
X114040742Y-68692739D01*
X114113704Y-68420442D01*
X114150500Y-68140951D01*
X114150500Y-67859049D01*
X114119516Y-67623703D01*
X114113706Y-67579572D01*
X114113704Y-67579559D01*
X114113704Y-67579558D01*
X114040742Y-67307261D01*
X113932863Y-67046817D01*
X113791912Y-66802683D01*
X113791910Y-66802680D01*
X113791909Y-66802678D01*
X113620299Y-66579034D01*
X113420965Y-66379700D01*
X113197321Y-66208090D01*
X113197319Y-66208089D01*
X112953187Y-66067139D01*
X112953185Y-66067138D01*
X112953183Y-66067137D01*
X112700506Y-65962475D01*
X112692742Y-65959259D01*
X112692740Y-65959258D01*
X112692739Y-65959258D01*
X112611845Y-65937582D01*
X112420440Y-65886295D01*
X112420427Y-65886293D01*
X112140956Y-65849500D01*
X112140951Y-65849500D01*
X111859049Y-65849500D01*
X111859043Y-65849500D01*
X111579572Y-65886293D01*
X111579559Y-65886295D01*
X111307257Y-65959259D01*
X111046812Y-66067139D01*
X110802680Y-66208089D01*
X110802678Y-66208090D01*
X110579034Y-66379700D01*
X110379700Y-66579034D01*
X110208090Y-66802678D01*
X110208089Y-66802680D01*
X110067139Y-67046812D01*
X109959259Y-67307257D01*
X109886295Y-67579559D01*
X109886293Y-67579572D01*
X109849500Y-67859043D01*
X98700500Y-67859043D01*
X98700500Y-66884306D01*
X98697598Y-66847431D01*
X98651744Y-66689602D01*
X98568081Y-66548135D01*
X98451865Y-66431919D01*
X98310398Y-66348256D01*
X98244279Y-66329046D01*
X98152571Y-66302402D01*
X98152572Y-66302402D01*
X98141506Y-66301531D01*
X98115694Y-66299500D01*
X95884306Y-66299500D01*
X95859722Y-66301434D01*
X95847428Y-66302402D01*
X95689599Y-66348257D01*
X95548136Y-66431918D01*
X95548133Y-66431920D01*
X95431920Y-66548133D01*
X95431918Y-66548136D01*
X95348257Y-66689599D01*
X95302402Y-66847428D01*
X95302402Y-66847431D01*
X95299500Y-66884306D01*
X90098020Y-66884306D01*
X90060775Y-66794389D01*
X90010249Y-66718772D01*
X90005966Y-66710119D01*
X90000217Y-66681449D01*
X89990819Y-66653761D01*
X89990500Y-66644016D01*
X89990500Y-60184306D01*
X146599500Y-60184306D01*
X146599500Y-61815694D01*
X146601757Y-61844374D01*
X146602402Y-61852571D01*
X146629046Y-61944279D01*
X146648256Y-62010398D01*
X146731919Y-62151865D01*
X146848135Y-62268081D01*
X146989602Y-62351744D01*
X147147428Y-62397597D01*
X147147427Y-62397597D01*
X147147431Y-62397598D01*
X147184306Y-62400500D01*
X147184313Y-62400500D01*
X148815687Y-62400500D01*
X148815694Y-62400500D01*
X148852569Y-62397598D01*
X149010398Y-62351744D01*
X149151865Y-62268081D01*
X149268081Y-62151865D01*
X149351744Y-62010398D01*
X149397598Y-61852569D01*
X149400500Y-61815694D01*
X149400500Y-60184306D01*
X149397598Y-60147431D01*
X149351744Y-59989602D01*
X149268081Y-59848135D01*
X149151865Y-59731919D01*
X149016017Y-59651579D01*
X149010400Y-59648257D01*
X149010399Y-59648256D01*
X149010398Y-59648256D01*
X148944279Y-59629046D01*
X148852571Y-59602402D01*
X148852572Y-59602402D01*
X148841506Y-59601531D01*
X148815694Y-59599500D01*
X147184306Y-59599500D01*
X147159722Y-59601434D01*
X147147428Y-59602402D01*
X146989599Y-59648257D01*
X146848136Y-59731918D01*
X146848133Y-59731920D01*
X146731920Y-59848133D01*
X146731918Y-59848136D01*
X146648257Y-59989599D01*
X146602402Y-60147428D01*
X146602402Y-60147431D01*
X146599500Y-60184306D01*
X89990500Y-60184306D01*
X89990500Y-55884306D01*
X95299500Y-55884306D01*
X95299500Y-58115694D01*
X95300041Y-58122569D01*
X95302402Y-58152571D01*
X95317642Y-58205025D01*
X95348256Y-58310398D01*
X95431919Y-58451865D01*
X95548135Y-58568081D01*
X95689602Y-58651744D01*
X95847428Y-58697597D01*
X95847427Y-58697597D01*
X95847431Y-58697598D01*
X95884306Y-58700500D01*
X95884313Y-58700500D01*
X98115687Y-58700500D01*
X98115694Y-58700500D01*
X98152569Y-58697598D01*
X98310398Y-58651744D01*
X98451865Y-58568081D01*
X98568081Y-58451865D01*
X98651744Y-58310398D01*
X98697598Y-58152569D01*
X98700500Y-58115694D01*
X98700500Y-56859043D01*
X109849500Y-56859043D01*
X109849500Y-57140956D01*
X109886293Y-57420427D01*
X109886295Y-57420440D01*
X109959259Y-57692742D01*
X109970550Y-57720000D01*
X110046982Y-57904525D01*
X110067139Y-57953187D01*
X110208089Y-58197319D01*
X110208090Y-58197321D01*
X110379700Y-58420965D01*
X110579034Y-58620299D01*
X110802678Y-58791909D01*
X110802681Y-58791910D01*
X110802683Y-58791912D01*
X111046817Y-58932863D01*
X111307261Y-59040742D01*
X111579558Y-59113704D01*
X111579564Y-59113704D01*
X111579572Y-59113706D01*
X111699036Y-59129433D01*
X111859049Y-59150500D01*
X112140951Y-59150500D01*
X112420442Y-59113704D01*
X112692739Y-59040742D01*
X112953183Y-58932863D01*
X113197317Y-58791912D01*
X113420965Y-58620300D01*
X113620300Y-58420965D01*
X113791912Y-58197317D01*
X113856272Y-58085843D01*
X115149500Y-58085843D01*
X115149500Y-58314157D01*
X115185216Y-58539660D01*
X115255769Y-58756799D01*
X115359421Y-58960228D01*
X115493621Y-59144937D01*
X115655063Y-59306379D01*
X115839772Y-59440579D01*
X116043201Y-59544231D01*
X116260340Y-59614784D01*
X116485843Y-59650500D01*
X116485847Y-59650500D01*
X116714153Y-59650500D01*
X116714157Y-59650500D01*
X116939660Y-59614784D01*
X117156799Y-59544231D01*
X117360228Y-59440579D01*
X117544937Y-59306379D01*
X117706379Y-59144937D01*
X117840579Y-58960228D01*
X117944231Y-58756799D01*
X118014784Y-58539660D01*
X118050500Y-58314157D01*
X118050500Y-58085843D01*
X118014784Y-57860340D01*
X117944231Y-57643201D01*
X117840579Y-57439772D01*
X117706379Y-57255063D01*
X117544937Y-57093621D01*
X117360228Y-56959421D01*
X117163225Y-56859043D01*
X119049500Y-56859043D01*
X119049500Y-57140956D01*
X119086293Y-57420427D01*
X119086295Y-57420440D01*
X119159259Y-57692742D01*
X119170550Y-57720000D01*
X119246982Y-57904525D01*
X119267139Y-57953187D01*
X119408089Y-58197319D01*
X119408090Y-58197321D01*
X119579700Y-58420965D01*
X119779034Y-58620299D01*
X120002678Y-58791909D01*
X120002681Y-58791910D01*
X120002683Y-58791912D01*
X120246817Y-58932863D01*
X120507261Y-59040742D01*
X120779558Y-59113704D01*
X120779564Y-59113704D01*
X120779572Y-59113706D01*
X120899036Y-59129433D01*
X121059049Y-59150500D01*
X121340951Y-59150500D01*
X121620442Y-59113704D01*
X121892739Y-59040742D01*
X122153183Y-58932863D01*
X122397317Y-58791912D01*
X122620965Y-58620300D01*
X122820300Y-58420965D01*
X122991912Y-58197317D01*
X123132863Y-57953183D01*
X123240742Y-57692739D01*
X123313704Y-57420442D01*
X123350500Y-57140951D01*
X123350500Y-56859049D01*
X123323040Y-56650474D01*
X123313706Y-56579572D01*
X123313704Y-56579559D01*
X123308762Y-56561116D01*
X123240742Y-56307261D01*
X123132863Y-56046817D01*
X122991912Y-55802683D01*
X122991910Y-55802680D01*
X122991909Y-55802678D01*
X122835861Y-55599315D01*
X122820300Y-55579035D01*
X122620965Y-55379700D01*
X122516447Y-55299500D01*
X122397321Y-55208090D01*
X122397319Y-55208089D01*
X122153187Y-55067139D01*
X122153185Y-55067138D01*
X122153183Y-55067137D01*
X122000619Y-55003943D01*
X121892742Y-54959259D01*
X121892740Y-54959258D01*
X121892739Y-54959258D01*
X121811845Y-54937582D01*
X121620440Y-54886295D01*
X121620427Y-54886293D01*
X121340956Y-54849500D01*
X121340951Y-54849500D01*
X121059049Y-54849500D01*
X121059043Y-54849500D01*
X120779572Y-54886293D01*
X120779559Y-54886295D01*
X120507257Y-54959259D01*
X120246812Y-55067139D01*
X120002680Y-55208089D01*
X120002678Y-55208090D01*
X119779034Y-55379700D01*
X119579700Y-55579034D01*
X119408090Y-55802678D01*
X119408089Y-55802680D01*
X119267139Y-56046812D01*
X119159259Y-56307257D01*
X119086295Y-56579559D01*
X119086293Y-56579572D01*
X119049500Y-56859043D01*
X117163225Y-56859043D01*
X117156799Y-56855769D01*
X116939660Y-56785216D01*
X116714157Y-56749500D01*
X116485843Y-56749500D01*
X116260340Y-56785216D01*
X116043201Y-56855769D01*
X116043195Y-56855771D01*
X116043195Y-56855772D01*
X115839773Y-56959420D01*
X115655066Y-57093618D01*
X115493618Y-57255066D01*
X115359420Y-57439773D01*
X115255772Y-57643195D01*
X115255767Y-57643207D01*
X115223832Y-57741494D01*
X115185216Y-57860340D01*
X115149500Y-58085843D01*
X113856272Y-58085843D01*
X113904757Y-58001865D01*
X113932859Y-57953190D01*
X113932859Y-57953189D01*
X113932863Y-57953183D01*
X114040742Y-57692739D01*
X114113704Y-57420442D01*
X114150500Y-57140951D01*
X114150500Y-56859049D01*
X114123040Y-56650474D01*
X114113706Y-56579572D01*
X114113704Y-56579559D01*
X114108762Y-56561116D01*
X114040742Y-56307261D01*
X113932863Y-56046817D01*
X113791912Y-55802683D01*
X113791910Y-55802680D01*
X113791909Y-55802678D01*
X113635861Y-55599315D01*
X113620300Y-55579035D01*
X113420965Y-55379700D01*
X113316447Y-55299500D01*
X113197321Y-55208090D01*
X113197319Y-55208089D01*
X112953187Y-55067139D01*
X112953185Y-55067138D01*
X112953183Y-55067137D01*
X112800619Y-55003943D01*
X112692742Y-54959259D01*
X112692740Y-54959258D01*
X112692739Y-54959258D01*
X112611845Y-54937582D01*
X112420440Y-54886295D01*
X112420427Y-54886293D01*
X112140956Y-54849500D01*
X112140951Y-54849500D01*
X111859049Y-54849500D01*
X111859043Y-54849500D01*
X111579572Y-54886293D01*
X111579559Y-54886295D01*
X111307257Y-54959259D01*
X111046812Y-55067139D01*
X110802680Y-55208089D01*
X110802678Y-55208090D01*
X110579034Y-55379700D01*
X110379700Y-55579034D01*
X110208090Y-55802678D01*
X110208089Y-55802680D01*
X110067139Y-56046812D01*
X109959259Y-56307257D01*
X109886295Y-56579559D01*
X109886293Y-56579572D01*
X109849500Y-56859043D01*
X98700500Y-56859043D01*
X98700500Y-55884306D01*
X98697598Y-55847431D01*
X98651744Y-55689602D01*
X98568081Y-55548135D01*
X98451865Y-55431919D01*
X98310398Y-55348256D01*
X98244279Y-55329046D01*
X98152571Y-55302402D01*
X98152572Y-55302402D01*
X98141506Y-55301531D01*
X98115694Y-55299500D01*
X95884306Y-55299500D01*
X95859722Y-55301434D01*
X95847428Y-55302402D01*
X95689599Y-55348257D01*
X95548136Y-55431918D01*
X95548133Y-55431920D01*
X95431920Y-55548133D01*
X95431918Y-55548136D01*
X95348257Y-55689599D01*
X95302402Y-55847428D01*
X95302402Y-55847431D01*
X95299500Y-55884306D01*
X89990500Y-55884306D01*
X89990500Y-44884306D01*
X95299500Y-44884306D01*
X95299500Y-47115694D01*
X95301757Y-47144374D01*
X95302402Y-47152571D01*
X95317799Y-47205567D01*
X95348256Y-47310398D01*
X95431919Y-47451865D01*
X95548135Y-47568081D01*
X95689602Y-47651744D01*
X95847428Y-47697597D01*
X95847427Y-47697597D01*
X95847431Y-47697598D01*
X95884306Y-47700500D01*
X95884313Y-47700500D01*
X98115687Y-47700500D01*
X98115694Y-47700500D01*
X98152569Y-47697598D01*
X98310398Y-47651744D01*
X98451865Y-47568081D01*
X98568081Y-47451865D01*
X98651744Y-47310398D01*
X98697598Y-47152569D01*
X98700500Y-47115694D01*
X98700500Y-45859043D01*
X109849500Y-45859043D01*
X109849500Y-46140956D01*
X109886293Y-46420427D01*
X109886295Y-46420440D01*
X109905062Y-46490477D01*
X109959258Y-46692739D01*
X110066474Y-46951583D01*
X110067139Y-46953187D01*
X110208089Y-47197319D01*
X110208090Y-47197321D01*
X110379700Y-47420965D01*
X110579034Y-47620299D01*
X110802678Y-47791909D01*
X110802681Y-47791910D01*
X110802683Y-47791912D01*
X111046817Y-47932863D01*
X111307261Y-48040742D01*
X111579558Y-48113704D01*
X111579564Y-48113704D01*
X111579572Y-48113706D01*
X111699036Y-48129433D01*
X111859049Y-48150500D01*
X112140951Y-48150500D01*
X112420442Y-48113704D01*
X112692739Y-48040742D01*
X112953183Y-47932863D01*
X113197317Y-47791912D01*
X113420965Y-47620300D01*
X113620300Y-47420965D01*
X113791912Y-47197317D01*
X113856272Y-47085843D01*
X115149500Y-47085843D01*
X115149500Y-47314157D01*
X115185216Y-47539660D01*
X115255769Y-47756799D01*
X115359421Y-47960228D01*
X115493621Y-48144937D01*
X115655063Y-48306379D01*
X115839772Y-48440579D01*
X116043201Y-48544231D01*
X116260340Y-48614784D01*
X116485843Y-48650500D01*
X116485847Y-48650500D01*
X116714153Y-48650500D01*
X116714157Y-48650500D01*
X116939660Y-48614784D01*
X117156799Y-48544231D01*
X117360228Y-48440579D01*
X117544937Y-48306379D01*
X117667010Y-48184306D01*
X136599500Y-48184306D01*
X136599500Y-49815694D01*
X136601477Y-49840812D01*
X136602402Y-49852571D01*
X136618708Y-49908694D01*
X136645696Y-50001587D01*
X136648257Y-50010400D01*
X136658728Y-50028105D01*
X136731919Y-50151865D01*
X136848135Y-50268081D01*
X136989602Y-50351744D01*
X137147428Y-50397597D01*
X137147427Y-50397597D01*
X137147431Y-50397598D01*
X137184306Y-50400500D01*
X137184313Y-50400500D01*
X138815687Y-50400500D01*
X138815694Y-50400500D01*
X138852569Y-50397598D01*
X139010398Y-50351744D01*
X139151865Y-50268081D01*
X139268081Y-50151865D01*
X139351744Y-50010398D01*
X139397598Y-49852569D01*
X139400500Y-49815694D01*
X139400500Y-48184306D01*
X139397598Y-48147431D01*
X139351744Y-47989602D01*
X139351742Y-47989600D01*
X139351742Y-47989597D01*
X139332598Y-47957226D01*
X139332597Y-47957224D01*
X139289474Y-47884306D01*
X156299500Y-47884306D01*
X156299500Y-50115694D01*
X156301757Y-50144374D01*
X156302402Y-50152571D01*
X156315722Y-50198417D01*
X156348256Y-50310398D01*
X156431919Y-50451865D01*
X156548135Y-50568081D01*
X156689602Y-50651744D01*
X156847428Y-50697597D01*
X156847427Y-50697597D01*
X156847431Y-50697598D01*
X156884306Y-50700500D01*
X156884313Y-50700500D01*
X159115687Y-50700500D01*
X159115694Y-50700500D01*
X159152569Y-50697598D01*
X159310398Y-50651744D01*
X159451865Y-50568081D01*
X159568081Y-50451865D01*
X159651744Y-50310398D01*
X159697598Y-50152569D01*
X159700500Y-50115694D01*
X159700500Y-47884306D01*
X159697598Y-47847431D01*
X159651744Y-47689602D01*
X159568081Y-47548135D01*
X159451865Y-47431919D01*
X159443050Y-47426706D01*
X159310400Y-47348257D01*
X159310399Y-47348256D01*
X159310398Y-47348256D01*
X159244279Y-47329046D01*
X159152571Y-47302402D01*
X159152572Y-47302402D01*
X159141506Y-47301531D01*
X159115694Y-47299500D01*
X156884306Y-47299500D01*
X156859722Y-47301434D01*
X156847428Y-47302402D01*
X156689599Y-47348257D01*
X156548138Y-47431917D01*
X156548133Y-47431920D01*
X156431920Y-47548133D01*
X156431918Y-47548136D01*
X156348257Y-47689599D01*
X156302402Y-47847428D01*
X156301977Y-47852826D01*
X156299500Y-47884306D01*
X139289474Y-47884306D01*
X139268086Y-47848141D01*
X139268079Y-47848133D01*
X139151866Y-47731920D01*
X139151865Y-47731919D01*
X139080305Y-47689599D01*
X139010400Y-47648257D01*
X139010399Y-47648256D01*
X139010398Y-47648256D01*
X138914174Y-47620300D01*
X138852571Y-47602402D01*
X138852572Y-47602402D01*
X138841506Y-47601531D01*
X138815694Y-47599500D01*
X137184306Y-47599500D01*
X137159722Y-47601434D01*
X137147428Y-47602402D01*
X136989599Y-47648257D01*
X136848136Y-47731918D01*
X136848133Y-47731920D01*
X136731920Y-47848133D01*
X136731918Y-47848136D01*
X136648257Y-47989599D01*
X136602402Y-48147428D01*
X136602160Y-48150500D01*
X136599500Y-48184306D01*
X117667010Y-48184306D01*
X117706379Y-48144937D01*
X117840579Y-47960228D01*
X117944231Y-47756799D01*
X118014784Y-47539660D01*
X118050500Y-47314157D01*
X118050500Y-47085843D01*
X118014784Y-46860340D01*
X117944231Y-46643201D01*
X117840579Y-46439772D01*
X117706379Y-46255063D01*
X117544937Y-46093621D01*
X117360228Y-45959421D01*
X117163225Y-45859043D01*
X119049500Y-45859043D01*
X119049500Y-46140956D01*
X119086293Y-46420427D01*
X119086295Y-46420440D01*
X119105062Y-46490477D01*
X119159258Y-46692739D01*
X119266474Y-46951583D01*
X119267139Y-46953187D01*
X119408089Y-47197319D01*
X119408090Y-47197321D01*
X119579700Y-47420965D01*
X119779034Y-47620299D01*
X120002678Y-47791909D01*
X120002681Y-47791910D01*
X120002683Y-47791912D01*
X120246817Y-47932863D01*
X120507261Y-48040742D01*
X120779558Y-48113704D01*
X120779564Y-48113704D01*
X120779572Y-48113706D01*
X120899036Y-48129433D01*
X121059049Y-48150500D01*
X121340951Y-48150500D01*
X121620442Y-48113704D01*
X121892739Y-48040742D01*
X122153183Y-47932863D01*
X122397317Y-47791912D01*
X122620965Y-47620300D01*
X122820300Y-47420965D01*
X122991912Y-47197317D01*
X123132863Y-46953183D01*
X123240742Y-46692739D01*
X123313704Y-46420442D01*
X123350500Y-46140951D01*
X123350500Y-45859049D01*
X123313704Y-45579558D01*
X123240742Y-45307261D01*
X123132863Y-45046817D01*
X122991912Y-44802683D01*
X122991910Y-44802680D01*
X122991909Y-44802678D01*
X122837482Y-44601427D01*
X122820300Y-44579035D01*
X122620965Y-44379700D01*
X122617121Y-44376750D01*
X122397321Y-44208090D01*
X122397319Y-44208089D01*
X122153187Y-44067139D01*
X122153185Y-44067138D01*
X122153183Y-44067137D01*
X121983871Y-43997006D01*
X121892742Y-43959259D01*
X121892740Y-43959258D01*
X121892739Y-43959258D01*
X121767014Y-43925570D01*
X121620440Y-43886295D01*
X121620427Y-43886293D01*
X121340956Y-43849500D01*
X121340951Y-43849500D01*
X121059049Y-43849500D01*
X121059043Y-43849500D01*
X120779572Y-43886293D01*
X120779559Y-43886295D01*
X120507257Y-43959259D01*
X120246812Y-44067139D01*
X120002680Y-44208089D01*
X120002678Y-44208090D01*
X119779034Y-44379700D01*
X119579700Y-44579034D01*
X119408090Y-44802678D01*
X119408089Y-44802680D01*
X119267139Y-45046812D01*
X119159259Y-45307257D01*
X119086295Y-45579559D01*
X119086293Y-45579572D01*
X119049500Y-45859043D01*
X117163225Y-45859043D01*
X117156799Y-45855769D01*
X116939660Y-45785216D01*
X116714157Y-45749500D01*
X116485843Y-45749500D01*
X116260340Y-45785216D01*
X116108208Y-45834647D01*
X116043201Y-45855769D01*
X116043195Y-45855771D01*
X116043195Y-45855772D01*
X115839773Y-45959420D01*
X115655066Y-46093618D01*
X115493618Y-46255066D01*
X115359420Y-46439773D01*
X115284610Y-46586597D01*
X115255769Y-46643201D01*
X115185216Y-46860340D01*
X115149500Y-47085843D01*
X113856272Y-47085843D01*
X113932863Y-46953183D01*
X114040742Y-46692739D01*
X114113704Y-46420442D01*
X114150500Y-46140951D01*
X114150500Y-45859049D01*
X114113704Y-45579558D01*
X114040742Y-45307261D01*
X113932863Y-45046817D01*
X113791912Y-44802683D01*
X113791910Y-44802680D01*
X113791909Y-44802678D01*
X113637482Y-44601427D01*
X113620300Y-44579035D01*
X113420965Y-44379700D01*
X113417121Y-44376750D01*
X113197321Y-44208090D01*
X113197319Y-44208089D01*
X112953187Y-44067139D01*
X112953185Y-44067138D01*
X112953183Y-44067137D01*
X112783871Y-43997006D01*
X112692742Y-43959259D01*
X112692740Y-43959258D01*
X112692739Y-43959258D01*
X112567014Y-43925570D01*
X112420440Y-43886295D01*
X112420427Y-43886293D01*
X112140956Y-43849500D01*
X112140951Y-43849500D01*
X111859049Y-43849500D01*
X111859043Y-43849500D01*
X111579572Y-43886293D01*
X111579559Y-43886295D01*
X111307257Y-43959259D01*
X111046812Y-44067139D01*
X110802680Y-44208089D01*
X110802678Y-44208090D01*
X110579034Y-44379700D01*
X110379700Y-44579034D01*
X110208090Y-44802678D01*
X110208089Y-44802680D01*
X110067139Y-45046812D01*
X109959259Y-45307257D01*
X109886295Y-45579559D01*
X109886293Y-45579572D01*
X109849500Y-45859043D01*
X98700500Y-45859043D01*
X98700500Y-44884306D01*
X98697598Y-44847431D01*
X98651744Y-44689602D01*
X98568081Y-44548135D01*
X98451865Y-44431919D01*
X98351731Y-44372700D01*
X98310400Y-44348257D01*
X98310399Y-44348256D01*
X98310398Y-44348256D01*
X98212897Y-44319929D01*
X98152571Y-44302402D01*
X98152572Y-44302402D01*
X98141506Y-44301531D01*
X98115694Y-44299500D01*
X95884306Y-44299500D01*
X95859722Y-44301434D01*
X95847428Y-44302402D01*
X95689599Y-44348257D01*
X95548136Y-44431918D01*
X95548133Y-44431920D01*
X95431920Y-44548133D01*
X95431918Y-44548136D01*
X95348257Y-44689599D01*
X95302402Y-44847428D01*
X95302402Y-44847431D01*
X95299500Y-44884306D01*
X89990500Y-44884306D01*
X89990500Y-33884306D01*
X95299500Y-33884306D01*
X95299500Y-36115694D01*
X95301757Y-36144374D01*
X95302402Y-36152571D01*
X95328127Y-36241114D01*
X95348256Y-36310398D01*
X95431919Y-36451865D01*
X95548135Y-36568081D01*
X95689602Y-36651744D01*
X95847428Y-36697597D01*
X95847427Y-36697597D01*
X95847431Y-36697598D01*
X95884306Y-36700500D01*
X95884313Y-36700500D01*
X98115687Y-36700500D01*
X98115694Y-36700500D01*
X98152569Y-36697598D01*
X98310398Y-36651744D01*
X98451865Y-36568081D01*
X98568081Y-36451865D01*
X98651744Y-36310398D01*
X98697598Y-36152569D01*
X98700500Y-36115694D01*
X98700500Y-34859043D01*
X109849500Y-34859043D01*
X109849500Y-35140956D01*
X109886293Y-35420427D01*
X109886295Y-35420440D01*
X109937582Y-35611845D01*
X109959258Y-35692739D01*
X110057336Y-35929522D01*
X110067139Y-35953187D01*
X110208089Y-36197319D01*
X110208090Y-36197321D01*
X110379700Y-36420965D01*
X110579035Y-36620300D01*
X110604741Y-36640025D01*
X110802678Y-36791909D01*
X110802681Y-36791910D01*
X110802683Y-36791912D01*
X111046817Y-36932863D01*
X111307261Y-37040742D01*
X111579558Y-37113704D01*
X111579564Y-37113704D01*
X111579572Y-37113706D01*
X111699036Y-37129433D01*
X111859049Y-37150500D01*
X112140951Y-37150500D01*
X112420442Y-37113704D01*
X112692739Y-37040742D01*
X112953183Y-36932863D01*
X113197317Y-36791912D01*
X113420965Y-36620300D01*
X113620300Y-36420965D01*
X113791912Y-36197317D01*
X113856272Y-36085843D01*
X115149500Y-36085843D01*
X115149500Y-36314157D01*
X115185216Y-36539660D01*
X115255769Y-36756799D01*
X115359421Y-36960228D01*
X115493621Y-37144937D01*
X115655063Y-37306379D01*
X115839772Y-37440579D01*
X116043201Y-37544231D01*
X116260340Y-37614784D01*
X116485843Y-37650500D01*
X116485847Y-37650500D01*
X116714153Y-37650500D01*
X116714157Y-37650500D01*
X116939660Y-37614784D01*
X117156799Y-37544231D01*
X117360228Y-37440579D01*
X117544937Y-37306379D01*
X117706379Y-37144937D01*
X117840579Y-36960228D01*
X117944231Y-36756799D01*
X118014784Y-36539660D01*
X118050500Y-36314157D01*
X118050500Y-36085843D01*
X118014784Y-35860340D01*
X117944231Y-35643201D01*
X117840579Y-35439772D01*
X117706379Y-35255063D01*
X117544937Y-35093621D01*
X117360228Y-34959421D01*
X117163225Y-34859043D01*
X119049500Y-34859043D01*
X119049500Y-35140956D01*
X119086293Y-35420427D01*
X119086295Y-35420440D01*
X119137582Y-35611845D01*
X119159258Y-35692739D01*
X119257336Y-35929522D01*
X119267139Y-35953187D01*
X119408089Y-36197319D01*
X119408090Y-36197321D01*
X119579700Y-36420965D01*
X119779035Y-36620300D01*
X119804741Y-36640025D01*
X120002678Y-36791909D01*
X120002681Y-36791910D01*
X120002683Y-36791912D01*
X120246817Y-36932863D01*
X120507261Y-37040742D01*
X120779558Y-37113704D01*
X120779564Y-37113704D01*
X120779572Y-37113706D01*
X120899036Y-37129433D01*
X121059049Y-37150500D01*
X121340951Y-37150500D01*
X121620442Y-37113704D01*
X121892739Y-37040742D01*
X122153183Y-36932863D01*
X122397317Y-36791912D01*
X122620965Y-36620300D01*
X122820300Y-36420965D01*
X122991912Y-36197317D01*
X123132863Y-35953183D01*
X123240742Y-35692739D01*
X123313704Y-35420442D01*
X123350500Y-35140951D01*
X123350500Y-34859049D01*
X123313704Y-34579558D01*
X123240742Y-34307261D01*
X123132863Y-34046817D01*
X122991912Y-33802683D01*
X122991910Y-33802680D01*
X122991909Y-33802678D01*
X122820299Y-33579034D01*
X122620965Y-33379700D01*
X122397321Y-33208090D01*
X122397319Y-33208089D01*
X122153187Y-33067139D01*
X122153185Y-33067138D01*
X122153183Y-33067137D01*
X121941161Y-32979315D01*
X121892742Y-32959259D01*
X121892740Y-32959258D01*
X121892739Y-32959258D01*
X121811845Y-32937582D01*
X121620440Y-32886295D01*
X121620427Y-32886293D01*
X121340956Y-32849500D01*
X121340951Y-32849500D01*
X121059049Y-32849500D01*
X121059043Y-32849500D01*
X120779572Y-32886293D01*
X120779559Y-32886295D01*
X120507257Y-32959259D01*
X120246812Y-33067139D01*
X120002680Y-33208089D01*
X120002678Y-33208090D01*
X119779034Y-33379700D01*
X119579700Y-33579034D01*
X119408090Y-33802678D01*
X119408089Y-33802680D01*
X119267139Y-34046812D01*
X119159259Y-34307257D01*
X119086295Y-34579559D01*
X119086293Y-34579572D01*
X119049500Y-34859043D01*
X117163225Y-34859043D01*
X117156799Y-34855769D01*
X116939660Y-34785216D01*
X116714157Y-34749500D01*
X116485843Y-34749500D01*
X116260340Y-34785216D01*
X116043201Y-34855769D01*
X116043195Y-34855771D01*
X116043195Y-34855772D01*
X115839773Y-34959420D01*
X115655066Y-35093618D01*
X115493618Y-35255066D01*
X115359420Y-35439773D01*
X115255772Y-35643195D01*
X115255767Y-35643207D01*
X115243824Y-35679963D01*
X115185216Y-35860340D01*
X115149500Y-36085843D01*
X113856272Y-36085843D01*
X113932863Y-35953183D01*
X114040742Y-35692739D01*
X114113704Y-35420442D01*
X114150500Y-35140951D01*
X114150500Y-34859049D01*
X114113704Y-34579558D01*
X114040742Y-34307261D01*
X113932863Y-34046817D01*
X113791912Y-33802683D01*
X113791910Y-33802680D01*
X113791909Y-33802678D01*
X113620299Y-33579034D01*
X113420965Y-33379700D01*
X113197321Y-33208090D01*
X113197319Y-33208089D01*
X112953187Y-33067139D01*
X112953185Y-33067138D01*
X112953183Y-33067137D01*
X112741161Y-32979315D01*
X112692742Y-32959259D01*
X112692740Y-32959258D01*
X112692739Y-32959258D01*
X112611845Y-32937582D01*
X112420440Y-32886295D01*
X112420427Y-32886293D01*
X112140956Y-32849500D01*
X112140951Y-32849500D01*
X111859049Y-32849500D01*
X111859043Y-32849500D01*
X111579572Y-32886293D01*
X111579559Y-32886295D01*
X111307257Y-32959259D01*
X111046812Y-33067139D01*
X110802680Y-33208089D01*
X110802678Y-33208090D01*
X110579034Y-33379700D01*
X110379700Y-33579034D01*
X110208090Y-33802678D01*
X110208089Y-33802680D01*
X110067139Y-34046812D01*
X109959259Y-34307257D01*
X109886295Y-34579559D01*
X109886293Y-34579572D01*
X109849500Y-34859043D01*
X98700500Y-34859043D01*
X98700500Y-33884306D01*
X98697598Y-33847431D01*
X98651744Y-33689602D01*
X98568081Y-33548135D01*
X98451865Y-33431919D01*
X98363567Y-33379700D01*
X98310400Y-33348257D01*
X98310399Y-33348256D01*
X98310398Y-33348256D01*
X98237834Y-33327174D01*
X98152571Y-33302402D01*
X98152572Y-33302402D01*
X98141506Y-33301531D01*
X98115694Y-33299500D01*
X95884306Y-33299500D01*
X95859722Y-33301434D01*
X95847428Y-33302402D01*
X95689599Y-33348257D01*
X95548136Y-33431918D01*
X95548133Y-33431920D01*
X95431920Y-33548133D01*
X95431918Y-33548136D01*
X95348257Y-33689599D01*
X95302402Y-33847428D01*
X95302402Y-33847431D01*
X95299500Y-33884306D01*
X89990500Y-33884306D01*
X89990500Y-33579242D01*
X90010462Y-33504742D01*
X90034138Y-33473886D01*
X90136507Y-33371516D01*
X90203302Y-33332953D01*
X90212794Y-33330739D01*
X90292528Y-33314880D01*
X90420011Y-33262075D01*
X90534742Y-33185414D01*
X90632314Y-33087842D01*
X90708975Y-32973111D01*
X90761780Y-32845628D01*
X90788700Y-32710293D01*
X90788700Y-32572307D01*
X90761780Y-32436972D01*
X90708975Y-32309489D01*
X90702440Y-32299709D01*
X90632316Y-32194761D01*
X90632314Y-32194758D01*
X90534742Y-32097186D01*
X90534738Y-32097183D01*
X90420015Y-32020527D01*
X90420009Y-32020524D01*
X90292529Y-31967720D01*
X90292525Y-31967719D01*
X90157193Y-31940800D01*
X90019207Y-31940800D01*
X89883874Y-31967719D01*
X89883870Y-31967720D01*
X89756390Y-32020524D01*
X89756384Y-32020527D01*
X89641661Y-32097183D01*
X89641654Y-32097189D01*
X89544089Y-32194754D01*
X89544083Y-32194761D01*
X89467427Y-32309484D01*
X89467424Y-32309490D01*
X89414620Y-32436970D01*
X89414617Y-32436979D01*
X89398758Y-32516704D01*
X89364644Y-32585878D01*
X89357981Y-32592992D01*
X88999490Y-32951484D01*
X88999489Y-32951485D01*
X88983424Y-32979313D01*
X88983423Y-32979315D01*
X88927016Y-33077014D01*
X88889500Y-33217023D01*
X88889500Y-66644016D01*
X88869538Y-66718516D01*
X88864389Y-66726796D01*
X88819225Y-66794386D01*
X88819224Y-66794390D01*
X88766420Y-66921870D01*
X88766419Y-66921874D01*
X88739500Y-67057206D01*
X88739500Y-67195193D01*
X88766419Y-67330525D01*
X88766420Y-67330529D01*
X88819221Y-67458003D01*
X88819222Y-67458005D01*
X88819225Y-67458011D01*
X88864390Y-67525605D01*
X88889181Y-67598636D01*
X88889500Y-67608382D01*
X88889500Y-86565056D01*
X88869538Y-86639556D01*
X88845859Y-86670415D01*
X84736692Y-90779581D01*
X84669897Y-90818145D01*
X84660404Y-90820358D01*
X84580679Y-90836217D01*
X84580670Y-90836220D01*
X84453190Y-90889024D01*
X84453184Y-90889027D01*
X84338461Y-90965683D01*
X84338454Y-90965689D01*
X84240889Y-91063254D01*
X84240883Y-91063261D01*
X84164227Y-91177984D01*
X84164224Y-91177990D01*
X84111420Y-91305470D01*
X84111419Y-91305474D01*
X84084500Y-91440806D01*
X82736819Y-91440806D01*
X82849497Y-91328128D01*
X83091782Y-91085843D01*
X83340110Y-90837515D01*
X83412584Y-90711985D01*
X83429970Y-90647100D01*
X83450100Y-90571975D01*
X83450100Y-65793874D01*
X83470062Y-65719374D01*
X83493741Y-65688515D01*
X83539301Y-65642955D01*
X83588714Y-65593542D01*
X83665375Y-65478811D01*
X83718180Y-65351328D01*
X83745100Y-65215993D01*
X83745100Y-65078007D01*
X83718180Y-64942672D01*
X83665375Y-64815189D01*
X83665374Y-64815188D01*
X83665374Y-64815186D01*
X83620211Y-64747596D01*
X83595419Y-64674561D01*
X83595100Y-64664816D01*
X83595100Y-40592125D01*
X83595099Y-40592123D01*
X83593081Y-40584593D01*
X83557584Y-40452115D01*
X83551737Y-40441987D01*
X83485110Y-40326585D01*
X79787889Y-36629364D01*
X79749325Y-36562569D01*
X79749325Y-36485441D01*
X79751527Y-36478006D01*
X79759709Y-36452826D01*
X79790500Y-36258417D01*
X79790500Y-36061583D01*
X79759709Y-35867174D01*
X79698884Y-35679975D01*
X79609524Y-35504595D01*
X79493828Y-35345354D01*
X79354646Y-35206172D01*
X79195405Y-35090476D01*
X79062503Y-35022759D01*
X79005186Y-34971152D01*
X78981352Y-34897799D01*
X78997388Y-34822356D01*
X79048996Y-34765038D01*
X79062504Y-34757240D01*
X79065248Y-34755842D01*
X79195405Y-34689524D01*
X79354646Y-34573828D01*
X79493828Y-34434646D01*
X79609524Y-34275405D01*
X79698884Y-34100025D01*
X79759709Y-33912826D01*
X79790500Y-33718417D01*
X79790500Y-33521583D01*
X79759709Y-33327174D01*
X79698884Y-33139975D01*
X79609524Y-32964595D01*
X79493828Y-32805354D01*
X79354646Y-32666172D01*
X79195405Y-32550476D01*
X79062503Y-32482759D01*
X79005186Y-32431152D01*
X78981352Y-32357799D01*
X78997388Y-32282356D01*
X79048996Y-32225038D01*
X79062504Y-32217240D01*
X79195405Y-32149524D01*
X79354646Y-32033828D01*
X79493828Y-31894646D01*
X79609524Y-31735405D01*
X79698884Y-31560025D01*
X79759709Y-31372826D01*
X79790500Y-31178417D01*
X79790500Y-30981583D01*
X79759709Y-30787174D01*
X79698884Y-30599975D01*
X79609524Y-30424595D01*
X79493828Y-30265354D01*
X79354646Y-30126172D01*
X79195405Y-30010476D01*
X79062503Y-29942759D01*
X79005186Y-29891152D01*
X78981352Y-29817799D01*
X78997388Y-29742356D01*
X79048996Y-29685038D01*
X79062504Y-29677240D01*
X79195405Y-29609524D01*
X79354646Y-29493828D01*
X79493828Y-29354646D01*
X79609524Y-29195405D01*
X79698884Y-29020025D01*
X79759709Y-28832826D01*
X79790500Y-28638417D01*
X79790500Y-28441583D01*
X79759709Y-28247174D01*
X79698884Y-28059975D01*
X79609524Y-27884595D01*
X79493828Y-27725354D01*
X79354646Y-27586172D01*
X79195405Y-27470476D01*
X79062503Y-27402759D01*
X79057820Y-27398542D01*
X79051786Y-27396729D01*
X79029432Y-27372982D01*
X79005186Y-27351152D01*
X79003238Y-27345157D01*
X78998920Y-27340570D01*
X78991434Y-27308828D01*
X78981352Y-27277799D01*
X78982662Y-27271634D01*
X78981216Y-27265501D01*
X78990605Y-27234264D01*
X78997388Y-27202356D01*
X79001605Y-27197672D01*
X79003419Y-27191638D01*
X79011382Y-27184306D01*
X146599500Y-27184306D01*
X146599500Y-28815694D01*
X146600324Y-28826165D01*
X146602402Y-28852571D01*
X146619543Y-28911568D01*
X146648256Y-29010398D01*
X146731919Y-29151865D01*
X146848135Y-29268081D01*
X146989602Y-29351744D01*
X147147428Y-29397597D01*
X147147427Y-29397597D01*
X147147431Y-29397598D01*
X147184306Y-29400500D01*
X147184313Y-29400500D01*
X148815687Y-29400500D01*
X148815694Y-29400500D01*
X148852569Y-29397598D01*
X149010398Y-29351744D01*
X149151865Y-29268081D01*
X149268081Y-29151865D01*
X149351744Y-29010398D01*
X149397598Y-28852569D01*
X149400500Y-28815694D01*
X149400500Y-27184306D01*
X149397598Y-27147431D01*
X149351744Y-26989602D01*
X149268081Y-26848135D01*
X149151865Y-26731919D01*
X149064497Y-26680250D01*
X149010400Y-26648257D01*
X149010399Y-26648256D01*
X149010398Y-26648256D01*
X148944279Y-26629046D01*
X148852571Y-26602402D01*
X148852572Y-26602402D01*
X148841506Y-26601531D01*
X148815694Y-26599500D01*
X147184306Y-26599500D01*
X147159722Y-26601434D01*
X147147428Y-26602402D01*
X146989599Y-26648257D01*
X146848136Y-26731918D01*
X146848133Y-26731920D01*
X146731920Y-26848133D01*
X146731918Y-26848136D01*
X146648257Y-26989599D01*
X146602402Y-27147428D01*
X146602402Y-27147431D01*
X146599500Y-27184306D01*
X79011382Y-27184306D01*
X79024578Y-27172156D01*
X79048996Y-27145038D01*
X79059578Y-27138772D01*
X79061034Y-27137988D01*
X79195405Y-27069524D01*
X79354646Y-26953828D01*
X79493828Y-26814646D01*
X79609524Y-26655405D01*
X79698884Y-26480025D01*
X79759709Y-26292826D01*
X79790500Y-26098417D01*
X79790500Y-25901583D01*
X79759709Y-25707174D01*
X79698884Y-25519975D01*
X79609524Y-25344595D01*
X79493828Y-25185354D01*
X79354646Y-25046172D01*
X79195405Y-24930476D01*
X79100108Y-24881920D01*
X79020036Y-24841121D01*
X79020030Y-24841119D01*
X79020025Y-24841116D01*
X78832826Y-24780291D01*
X78638417Y-24749500D01*
X78441583Y-24749500D01*
X78247174Y-24780291D01*
X78059975Y-24841116D01*
X78059972Y-24841117D01*
X78059963Y-24841121D01*
X77884598Y-24930474D01*
X77884593Y-24930477D01*
X77725363Y-25046165D01*
X77725352Y-25046174D01*
X77586174Y-25185352D01*
X77586169Y-25185358D01*
X77499824Y-25304201D01*
X77439884Y-25352739D01*
X77363705Y-25364804D01*
X77291700Y-25337163D01*
X77243162Y-25277223D01*
X77236197Y-25258190D01*
X77227384Y-25227856D01*
X77201744Y-25139602D01*
X77118081Y-24998135D01*
X77001865Y-24881919D01*
X76860398Y-24798256D01*
X76794279Y-24779046D01*
X76702571Y-24752402D01*
X76702572Y-24752402D01*
X76691506Y-24751531D01*
X76665694Y-24749500D01*
X75334306Y-24749500D01*
X75309722Y-24751434D01*
X75297428Y-24752402D01*
X75139599Y-24798257D01*
X74998136Y-24881918D01*
X74998133Y-24881920D01*
X74881920Y-24998133D01*
X74881918Y-24998136D01*
X74798257Y-25139599D01*
X74752402Y-25297428D01*
X74752402Y-25297431D01*
X74749500Y-25334306D01*
X74749500Y-26665694D01*
X74750646Y-26680250D01*
X74752402Y-26702571D01*
X74760929Y-26731919D01*
X74794693Y-26848135D01*
X74798257Y-26860400D01*
X74840087Y-26931131D01*
X74881919Y-27001865D01*
X74998135Y-27118081D01*
X75139602Y-27201744D01*
X75258191Y-27236197D01*
X75324163Y-27276152D01*
X75361319Y-27343740D01*
X75359704Y-27420851D01*
X75319749Y-27486824D01*
X75304201Y-27499824D01*
X75258778Y-27532826D01*
X75185354Y-27586172D01*
X75046172Y-27725354D01*
X75046169Y-27725357D01*
X75046165Y-27725363D01*
X74930477Y-27884593D01*
X74930474Y-27884598D01*
X74841121Y-28059963D01*
X74841117Y-28059972D01*
X74841116Y-28059975D01*
X74780291Y-28247174D01*
X74749500Y-28441583D01*
X74749500Y-28638417D01*
X74780291Y-28832826D01*
X74841116Y-29020025D01*
X74841119Y-29020030D01*
X74841121Y-29020036D01*
X74894397Y-29124595D01*
X74930476Y-29195405D01*
X75046172Y-29354646D01*
X75185354Y-29493828D01*
X75344595Y-29609524D01*
X75412744Y-29644247D01*
X75477495Y-29677240D01*
X75534813Y-29728849D01*
X75558647Y-29802202D01*
X75542611Y-29877644D01*
X75491002Y-29934962D01*
X75477495Y-29942760D01*
X75344598Y-30010474D01*
X75344593Y-30010477D01*
X75185363Y-30126165D01*
X75185352Y-30126174D01*
X75046174Y-30265352D01*
X75046165Y-30265363D01*
X74930477Y-30424593D01*
X74930474Y-30424598D01*
X74841121Y-30599963D01*
X74841117Y-30599972D01*
X74841116Y-30599975D01*
X74780291Y-30787174D01*
X74749500Y-30981583D01*
X74749500Y-31178417D01*
X74780291Y-31372826D01*
X74841116Y-31560025D01*
X74841119Y-31560030D01*
X74841121Y-31560036D01*
X74889016Y-31654035D01*
X74930476Y-31735405D01*
X75046172Y-31894646D01*
X75185354Y-32033828D01*
X75344595Y-32149524D01*
X75412744Y-32184247D01*
X75477495Y-32217240D01*
X75534813Y-32268849D01*
X75558647Y-32342202D01*
X75542611Y-32417644D01*
X75491002Y-32474962D01*
X75477495Y-32482760D01*
X75344598Y-32550474D01*
X75344593Y-32550477D01*
X75185363Y-32666165D01*
X75185352Y-32666174D01*
X75046174Y-32805352D01*
X75046165Y-32805363D01*
X74930477Y-32964593D01*
X74930474Y-32964598D01*
X74841121Y-33139963D01*
X74841117Y-33139972D01*
X74841116Y-33139975D01*
X74780291Y-33327174D01*
X74749500Y-33521583D01*
X74749500Y-33718417D01*
X74780291Y-33912826D01*
X74841116Y-34100025D01*
X74841119Y-34100030D01*
X74841121Y-34100036D01*
X74862760Y-34142504D01*
X74930476Y-34275405D01*
X75046172Y-34434646D01*
X75185354Y-34573828D01*
X75344595Y-34689524D01*
X75412744Y-34724247D01*
X75477495Y-34757240D01*
X75534813Y-34808849D01*
X75558647Y-34882202D01*
X75542611Y-34957644D01*
X75491002Y-35014962D01*
X75477495Y-35022760D01*
X75344598Y-35090474D01*
X75344593Y-35090477D01*
X75185363Y-35206165D01*
X75185352Y-35206174D01*
X75046174Y-35345352D01*
X75046165Y-35345363D01*
X74930477Y-35504593D01*
X74930474Y-35504598D01*
X74841121Y-35679963D01*
X74841117Y-35679972D01*
X74841116Y-35679975D01*
X74780291Y-35867174D01*
X74749500Y-36061583D01*
X74749500Y-36258417D01*
X74775245Y-36420965D01*
X74780291Y-36452826D01*
X74780291Y-36452828D01*
X74788458Y-36477962D01*
X74792495Y-36554984D01*
X74757480Y-36623705D01*
X74752110Y-36629364D01*
X74333189Y-37048285D01*
X74284613Y-37132423D01*
X74281778Y-37137334D01*
X74274757Y-37149494D01*
X74260716Y-37173813D01*
X74223200Y-37313824D01*
X74223200Y-37313825D01*
X74223200Y-39247875D01*
X74260716Y-39387885D01*
X74302337Y-39459975D01*
X74333190Y-39513415D01*
X75040428Y-40220653D01*
X75078992Y-40287448D01*
X75078992Y-40364576D01*
X75049540Y-40420565D01*
X75049613Y-40420618D01*
X75049248Y-40421120D01*
X75048384Y-40422763D01*
X75046174Y-40425351D01*
X74930477Y-40584593D01*
X74930474Y-40584598D01*
X74841121Y-40759963D01*
X74841114Y-40759981D01*
X74797625Y-40893825D01*
X74780291Y-40947174D01*
X74749500Y-41141583D01*
X74749500Y-41338417D01*
X74780291Y-41532826D01*
X74833686Y-41697158D01*
X74837723Y-41774178D01*
X74802708Y-41842900D01*
X74738023Y-41884907D01*
X74691979Y-41892200D01*
X63428474Y-41892200D01*
X63353974Y-41872238D01*
X63328177Y-41852443D01*
X63328104Y-41852533D01*
X63325368Y-41850288D01*
X63323115Y-41848559D01*
X63322445Y-41847889D01*
X63322442Y-41847886D01*
X63310797Y-41840105D01*
X63207715Y-41771227D01*
X63207709Y-41771224D01*
X63080229Y-41718420D01*
X63080225Y-41718419D01*
X62944893Y-41691500D01*
X62806907Y-41691500D01*
X62671574Y-41718419D01*
X62671570Y-41718420D01*
X62544090Y-41771224D01*
X62544084Y-41771227D01*
X62429361Y-41847883D01*
X62429354Y-41847889D01*
X62331789Y-41945454D01*
X62331783Y-41945461D01*
X62255127Y-42060184D01*
X62255124Y-42060190D01*
X62202320Y-42187670D01*
X62202319Y-42187674D01*
X62175400Y-42323006D01*
X62175400Y-42460993D01*
X62202319Y-42596325D01*
X62202320Y-42596329D01*
X62255124Y-42723809D01*
X62255127Y-42723815D01*
X62328888Y-42834205D01*
X62331786Y-42838542D01*
X62429358Y-42936114D01*
X62429361Y-42936116D01*
X62544084Y-43012772D01*
X62544086Y-43012773D01*
X62544089Y-43012775D01*
X62671572Y-43065580D01*
X62806907Y-43092500D01*
X62944893Y-43092500D01*
X63080228Y-43065580D01*
X63207711Y-43012775D01*
X63207720Y-43012768D01*
X63211420Y-43010792D01*
X63214149Y-43010108D01*
X63214474Y-43009974D01*
X63214493Y-43010022D01*
X63281656Y-42993200D01*
X68456003Y-42993200D01*
X68530503Y-43013162D01*
X68585041Y-43067700D01*
X68605003Y-43142200D01*
X68585041Y-43216700D01*
X68530504Y-43271236D01*
X68530502Y-43271238D01*
X68412285Y-43339489D01*
X68279916Y-43471859D01*
X68213121Y-43510423D01*
X68174557Y-43515500D01*
X66583384Y-43515500D01*
X66508884Y-43495538D01*
X66500604Y-43490389D01*
X66433013Y-43445225D01*
X66433009Y-43445224D01*
X66305529Y-43392420D01*
X66305525Y-43392419D01*
X66170193Y-43365500D01*
X66032207Y-43365500D01*
X65896874Y-43392419D01*
X65896870Y-43392420D01*
X65769390Y-43445224D01*
X65769384Y-43445227D01*
X65654661Y-43521883D01*
X65654654Y-43521889D01*
X65557089Y-43619454D01*
X65557083Y-43619461D01*
X65480427Y-43734184D01*
X65480424Y-43734190D01*
X65427620Y-43861670D01*
X65427619Y-43861674D01*
X65400700Y-43997006D01*
X65400700Y-44134993D01*
X65427619Y-44270325D01*
X65427620Y-44270329D01*
X65480424Y-44397809D01*
X65480427Y-44397815D01*
X65545621Y-44495384D01*
X65557086Y-44512542D01*
X65654658Y-44610114D01*
X65654661Y-44610116D01*
X65769384Y-44686772D01*
X65769386Y-44686773D01*
X65769389Y-44686775D01*
X65896872Y-44739580D01*
X66032207Y-44766500D01*
X66170193Y-44766500D01*
X66305528Y-44739580D01*
X66433011Y-44686775D01*
X66433012Y-44686774D01*
X66433013Y-44686774D01*
X66500604Y-44641611D01*
X66573639Y-44616819D01*
X66583384Y-44616500D01*
X67764800Y-44616500D01*
X67839300Y-44636462D01*
X67893838Y-44691000D01*
X67913800Y-44765500D01*
X67913800Y-68759078D01*
X67921259Y-68786915D01*
X67921260Y-68786915D01*
X67951316Y-68899085D01*
X67982553Y-68953190D01*
X68023790Y-69024615D01*
X71060582Y-72061407D01*
X71099146Y-72128202D01*
X71101360Y-72137697D01*
X71117219Y-72217427D01*
X71117220Y-72217429D01*
X71170024Y-72344909D01*
X71170027Y-72344915D01*
X71246683Y-72459638D01*
X71246686Y-72459642D01*
X71261648Y-72474604D01*
X71300213Y-72541396D01*
X71300215Y-72618524D01*
X71261653Y-72685320D01*
X71261650Y-72685323D01*
X66657259Y-77289715D01*
X66590464Y-77328279D01*
X66513336Y-77328279D01*
X66446541Y-77289715D01*
X66407977Y-77222920D01*
X66402900Y-77184356D01*
X66402900Y-68013925D01*
X66402899Y-68013923D01*
X66392393Y-67974714D01*
X66365384Y-67873915D01*
X66356801Y-67859049D01*
X66331603Y-67815405D01*
X66292910Y-67748385D01*
X62170117Y-63625592D01*
X62131553Y-63558797D01*
X62129339Y-63549301D01*
X62113480Y-63469574D01*
X62113479Y-63469570D01*
X62067182Y-63357799D01*
X62060675Y-63342089D01*
X62052931Y-63330500D01*
X61984016Y-63227361D01*
X61984014Y-63227358D01*
X61886442Y-63129786D01*
X61886438Y-63129783D01*
X61771715Y-63053127D01*
X61771709Y-63053124D01*
X61644229Y-63000320D01*
X61644225Y-63000319D01*
X61508893Y-62973400D01*
X61370907Y-62973400D01*
X61235574Y-63000319D01*
X61235570Y-63000320D01*
X61108090Y-63053124D01*
X61108084Y-63053127D01*
X60993361Y-63129783D01*
X60993354Y-63129789D01*
X60895789Y-63227354D01*
X60895783Y-63227361D01*
X60819127Y-63342084D01*
X60819124Y-63342090D01*
X60766320Y-63469570D01*
X60766319Y-63469574D01*
X60739400Y-63604906D01*
X60739400Y-63742893D01*
X60766319Y-63878225D01*
X60766320Y-63878229D01*
X60819124Y-64005709D01*
X60819127Y-64005715D01*
X60895783Y-64120438D01*
X60895786Y-64120442D01*
X60993358Y-64218014D01*
X60993361Y-64218016D01*
X61108084Y-64294672D01*
X61108086Y-64294673D01*
X61108089Y-64294675D01*
X61235572Y-64347480D01*
X61315301Y-64363339D01*
X61384475Y-64397452D01*
X61391592Y-64404117D01*
X65258259Y-68270784D01*
X65296823Y-68337579D01*
X65301900Y-68376143D01*
X65301900Y-77852516D01*
X65281938Y-77927016D01*
X65276789Y-77935296D01*
X65231625Y-78002886D01*
X65225158Y-78018502D01*
X65178206Y-78079692D01*
X65106949Y-78109207D01*
X65030480Y-78099140D01*
X64969290Y-78052188D01*
X64939775Y-77980931D01*
X64938500Y-77961482D01*
X64938500Y-76185125D01*
X64900984Y-76045115D01*
X64874769Y-75999709D01*
X64828510Y-75919585D01*
X58804717Y-69895792D01*
X58766153Y-69828997D01*
X58763939Y-69819501D01*
X58748080Y-69739774D01*
X58748079Y-69739770D01*
X58731813Y-69700500D01*
X58695275Y-69612289D01*
X58688121Y-69601583D01*
X58618616Y-69497561D01*
X58618614Y-69497558D01*
X58521042Y-69399986D01*
X58521038Y-69399983D01*
X58406315Y-69323327D01*
X58406309Y-69323324D01*
X58278829Y-69270520D01*
X58278825Y-69270519D01*
X58143493Y-69243600D01*
X58005507Y-69243600D01*
X57870174Y-69270519D01*
X57870170Y-69270520D01*
X57742690Y-69323324D01*
X57742684Y-69323327D01*
X57627961Y-69399983D01*
X57627954Y-69399989D01*
X57530389Y-69497554D01*
X57530383Y-69497561D01*
X57453727Y-69612284D01*
X57453724Y-69612290D01*
X57400920Y-69739770D01*
X57400919Y-69739774D01*
X57374000Y-69875106D01*
X55724400Y-69875106D01*
X55724400Y-52004425D01*
X55724399Y-52004423D01*
X55719087Y-51984598D01*
X55686884Y-51864415D01*
X55664332Y-51825354D01*
X55614410Y-51738885D01*
X46913217Y-43037692D01*
X46874653Y-42970897D01*
X46872439Y-42961401D01*
X46856580Y-42881672D01*
X46803775Y-42754189D01*
X46797979Y-42745515D01*
X46727116Y-42639461D01*
X46727114Y-42639458D01*
X46629542Y-42541886D01*
X46550863Y-42489314D01*
X46514815Y-42465227D01*
X46514809Y-42465224D01*
X46387329Y-42412420D01*
X46387325Y-42412419D01*
X46251993Y-42385500D01*
X46114007Y-42385500D01*
X45978674Y-42412419D01*
X45978670Y-42412420D01*
X45851190Y-42465224D01*
X45851184Y-42465227D01*
X45736461Y-42541883D01*
X45736454Y-42541889D01*
X45638889Y-42639454D01*
X45638883Y-42639461D01*
X45562227Y-42754184D01*
X45562224Y-42754190D01*
X45509420Y-42881670D01*
X45509419Y-42881674D01*
X45482500Y-43017006D01*
X45482500Y-43154993D01*
X45509419Y-43290325D01*
X45509420Y-43290329D01*
X45562224Y-43417809D01*
X45562227Y-43417815D01*
X45631764Y-43521883D01*
X45638886Y-43532542D01*
X45736458Y-43630114D01*
X45736461Y-43630116D01*
X45851184Y-43706772D01*
X45851186Y-43706773D01*
X45851189Y-43706775D01*
X45978672Y-43759580D01*
X46058401Y-43775439D01*
X46127575Y-43809552D01*
X46134692Y-43816217D01*
X54579759Y-52261284D01*
X54618323Y-52328079D01*
X54623400Y-52366643D01*
X54623400Y-56375557D01*
X54603438Y-56450057D01*
X54548900Y-56504595D01*
X54474400Y-56524557D01*
X54399900Y-56504595D01*
X54369041Y-56480916D01*
X46188684Y-48300559D01*
X46150120Y-48233764D01*
X46150120Y-48156636D01*
X46188684Y-48089841D01*
X46255479Y-48051277D01*
X46294043Y-48046200D01*
X46484616Y-48046200D01*
X46559116Y-48066162D01*
X46567396Y-48071311D01*
X46634986Y-48116474D01*
X46634988Y-48116474D01*
X46634989Y-48116475D01*
X46762472Y-48169280D01*
X46897807Y-48196200D01*
X47035793Y-48196200D01*
X47171128Y-48169280D01*
X47298611Y-48116475D01*
X47413342Y-48039814D01*
X47510914Y-47942242D01*
X47587575Y-47827511D01*
X47640380Y-47700028D01*
X47667300Y-47564693D01*
X47667300Y-47426707D01*
X47640380Y-47291372D01*
X47587575Y-47163889D01*
X47580011Y-47152569D01*
X47510916Y-47049161D01*
X47510914Y-47049158D01*
X47413342Y-46951586D01*
X47403785Y-46945200D01*
X47298615Y-46874927D01*
X47298609Y-46874924D01*
X47171129Y-46822120D01*
X47171125Y-46822119D01*
X47035793Y-46795200D01*
X46897807Y-46795200D01*
X46762474Y-46822119D01*
X46762470Y-46822120D01*
X46634990Y-46874924D01*
X46634986Y-46874925D01*
X46567396Y-46920089D01*
X46494361Y-46944881D01*
X46484616Y-46945200D01*
X45838142Y-46945200D01*
X45763642Y-46925238D01*
X45732783Y-46901559D01*
X44871378Y-46040154D01*
X44005117Y-45173892D01*
X43966553Y-45107097D01*
X43964339Y-45097601D01*
X43948480Y-45017872D01*
X43895675Y-44890389D01*
X43891614Y-44884312D01*
X43819016Y-44775661D01*
X43819014Y-44775658D01*
X43721442Y-44678086D01*
X43715348Y-44674014D01*
X43606715Y-44601427D01*
X43606709Y-44601424D01*
X43479229Y-44548620D01*
X43479225Y-44548619D01*
X43343893Y-44521700D01*
X43293400Y-44521700D01*
X43218900Y-44501738D01*
X43164362Y-44447200D01*
X43144400Y-44372700D01*
X43144400Y-43247742D01*
X43164362Y-43173242D01*
X43188038Y-43142386D01*
X43414307Y-42916116D01*
X43481102Y-42877553D01*
X43490594Y-42875339D01*
X43570328Y-42859480D01*
X43697811Y-42806675D01*
X43812542Y-42730014D01*
X43910114Y-42632442D01*
X43986775Y-42517711D01*
X44039580Y-42390228D01*
X44066500Y-42254893D01*
X44066500Y-42116907D01*
X44065363Y-42111193D01*
X44043961Y-42003599D01*
X44039580Y-41981572D01*
X43986775Y-41854089D01*
X43985735Y-41852533D01*
X43910116Y-41739361D01*
X43910114Y-41739358D01*
X43812542Y-41641786D01*
X43801662Y-41634516D01*
X43697815Y-41565127D01*
X43697809Y-41565124D01*
X43570329Y-41512320D01*
X43570325Y-41512319D01*
X43434993Y-41485400D01*
X43297007Y-41485400D01*
X43161674Y-41512319D01*
X43161670Y-41512320D01*
X43034190Y-41565124D01*
X43034184Y-41565127D01*
X42919461Y-41641783D01*
X42919454Y-41641789D01*
X42821889Y-41739354D01*
X42821883Y-41739361D01*
X42745227Y-41854084D01*
X42745224Y-41854090D01*
X42692420Y-41981570D01*
X42692417Y-41981579D01*
X42676558Y-42061304D01*
X42642444Y-42130478D01*
X42635781Y-42137592D01*
X42153389Y-42619985D01*
X42101136Y-42710492D01*
X42082561Y-42742666D01*
X42080916Y-42745515D01*
X42043400Y-42885523D01*
X42043400Y-42885525D01*
X42043400Y-45411826D01*
X42043400Y-45556774D01*
X42080916Y-45696785D01*
X42111351Y-45749500D01*
X42153390Y-45822315D01*
X45212435Y-48881360D01*
X45250999Y-48948155D01*
X45250999Y-49025283D01*
X45212435Y-49092078D01*
X45164098Y-49124375D01*
X45095071Y-49152968D01*
X45018602Y-49163034D01*
X44947346Y-49133518D01*
X44932693Y-49120668D01*
X39893617Y-44081592D01*
X39855053Y-44014797D01*
X39852839Y-44005301D01*
X39851189Y-43997006D01*
X39836980Y-43925572D01*
X39784175Y-43798089D01*
X39765072Y-43769500D01*
X39707516Y-43683361D01*
X39707514Y-43683358D01*
X39609942Y-43585786D01*
X39609938Y-43585783D01*
X39495215Y-43509127D01*
X39495209Y-43509124D01*
X39367729Y-43456320D01*
X39367725Y-43456319D01*
X39232393Y-43429400D01*
X39094407Y-43429400D01*
X38959074Y-43456319D01*
X38959070Y-43456320D01*
X38831590Y-43509124D01*
X38831584Y-43509127D01*
X38716861Y-43585783D01*
X38716854Y-43585789D01*
X38619289Y-43683354D01*
X38619283Y-43683361D01*
X38542627Y-43798084D01*
X38542624Y-43798090D01*
X38489820Y-43925570D01*
X38489819Y-43925574D01*
X38462900Y-44060906D01*
X38462900Y-44198893D01*
X38489819Y-44334225D01*
X38489820Y-44334229D01*
X38542624Y-44461709D01*
X38542626Y-44461713D01*
X38581324Y-44519629D01*
X38606116Y-44592664D01*
X38591069Y-44668310D01*
X38540215Y-44726298D01*
X38486505Y-44748546D01*
X38437871Y-44758220D01*
X38437870Y-44758220D01*
X38310390Y-44811024D01*
X38310384Y-44811027D01*
X38195661Y-44887683D01*
X38195654Y-44887689D01*
X38098089Y-44985254D01*
X38098083Y-44985261D01*
X38021427Y-45099984D01*
X38021424Y-45099990D01*
X37968620Y-45227470D01*
X37952759Y-45307205D01*
X37918644Y-45376378D01*
X37911987Y-45383486D01*
X37910692Y-45384780D01*
X37910690Y-45384783D01*
X37851761Y-45486853D01*
X37851759Y-45486856D01*
X37842785Y-45502402D01*
X37838216Y-45510315D01*
X37800700Y-45650325D01*
X35834500Y-45650325D01*
X35949625Y-45535200D01*
X37355834Y-44128991D01*
X38787310Y-42697515D01*
X38859784Y-42571985D01*
X38883706Y-42482709D01*
X38897300Y-42431975D01*
X38897300Y-39704882D01*
X38917262Y-39630382D01*
X38922392Y-39622130D01*
X38967575Y-39554511D01*
X39020380Y-39427028D01*
X39047300Y-39291693D01*
X39047300Y-39153707D01*
X39020380Y-39018372D01*
X38967575Y-38890889D01*
X38953935Y-38870476D01*
X38890916Y-38776161D01*
X38890914Y-38776158D01*
X38793342Y-38678586D01*
X38768822Y-38662202D01*
X38678615Y-38601927D01*
X38678609Y-38601924D01*
X38551129Y-38549120D01*
X38551125Y-38549119D01*
X38415793Y-38522200D01*
X38277807Y-38522200D01*
X38142474Y-38549119D01*
X38142470Y-38549120D01*
X38014990Y-38601924D01*
X38014984Y-38601927D01*
X37900261Y-38678583D01*
X37900254Y-38678589D01*
X37802689Y-38776154D01*
X37802683Y-38776161D01*
X37726027Y-38890884D01*
X37726024Y-38890890D01*
X37673220Y-39018370D01*
X37673219Y-39018374D01*
X37646300Y-39153706D01*
X37646300Y-39291693D01*
X37673219Y-39427025D01*
X37673220Y-39427029D01*
X37726021Y-39554503D01*
X37726022Y-39554505D01*
X37726025Y-39554511D01*
X37771190Y-39622105D01*
X37795981Y-39695136D01*
X37796300Y-39704882D01*
X37796300Y-42069757D01*
X37776338Y-42144257D01*
X37752659Y-42175116D01*
X35985659Y-43942116D01*
X35918864Y-43980680D01*
X35841736Y-43980680D01*
X35774941Y-43942116D01*
X35736377Y-43875321D01*
X35731300Y-43836757D01*
X35731300Y-41421312D01*
X35731300Y-41421309D01*
X35727277Y-41401086D01*
X35696694Y-41247334D01*
X35683342Y-41215099D01*
X35628813Y-41083453D01*
X35624938Y-41077654D01*
X35530266Y-40935968D01*
X35530262Y-40935963D01*
X35404834Y-40810535D01*
X35359540Y-40765240D01*
X35320977Y-40698444D01*
X35315900Y-40659882D01*
X35315900Y-40592808D01*
X35310923Y-40567787D01*
X35287915Y-40452115D01*
X35281295Y-40418834D01*
X35247353Y-40336893D01*
X35213413Y-40254953D01*
X35144365Y-40151616D01*
X35144364Y-40151614D01*
X35114868Y-40107469D01*
X35114863Y-40107463D01*
X31950906Y-36943506D01*
X39510500Y-36943506D01*
X39510500Y-37081493D01*
X39537419Y-37216825D01*
X39537420Y-37216829D01*
X39590224Y-37344309D01*
X39590227Y-37344315D01*
X39654549Y-37440579D01*
X39666886Y-37459042D01*
X39764458Y-37556614D01*
X39764461Y-37556616D01*
X39879184Y-37633272D01*
X39879186Y-37633273D01*
X39879189Y-37633275D01*
X40006672Y-37686080D01*
X40142007Y-37713000D01*
X40279993Y-37713000D01*
X40415328Y-37686080D01*
X40542811Y-37633275D01*
X40657542Y-37556614D01*
X40755114Y-37459042D01*
X40831775Y-37344311D01*
X40884580Y-37216828D01*
X40911500Y-37081493D01*
X40911500Y-36943507D01*
X40884580Y-36808172D01*
X40831775Y-36680689D01*
X40831774Y-36680688D01*
X40831774Y-36680686D01*
X40786611Y-36613096D01*
X40761819Y-36540061D01*
X40761500Y-36530316D01*
X40761500Y-28285142D01*
X40781462Y-28210642D01*
X40805137Y-28179787D01*
X46100618Y-22884306D01*
X95299500Y-22884306D01*
X95299500Y-25115694D01*
X95301381Y-25139599D01*
X95302402Y-25152571D01*
X95316329Y-25200507D01*
X95348256Y-25310398D01*
X95431919Y-25451865D01*
X95548135Y-25568081D01*
X95689602Y-25651744D01*
X95847428Y-25697597D01*
X95847427Y-25697597D01*
X95847431Y-25697598D01*
X95884306Y-25700500D01*
X95884313Y-25700500D01*
X98115687Y-25700500D01*
X98115694Y-25700500D01*
X98152569Y-25697598D01*
X98310398Y-25651744D01*
X98451865Y-25568081D01*
X98568081Y-25451865D01*
X98651744Y-25310398D01*
X98697598Y-25152569D01*
X98700500Y-25115694D01*
X98700500Y-23859043D01*
X109849500Y-23859043D01*
X109849500Y-24140956D01*
X109886293Y-24420427D01*
X109886295Y-24420440D01*
X109905285Y-24491309D01*
X109959258Y-24692739D01*
X110057731Y-24930476D01*
X110067139Y-24953187D01*
X110208089Y-25197319D01*
X110208090Y-25197321D01*
X110379700Y-25420965D01*
X110579034Y-25620299D01*
X110802678Y-25791909D01*
X110802681Y-25791910D01*
X110802683Y-25791912D01*
X111046817Y-25932863D01*
X111307261Y-26040742D01*
X111579558Y-26113704D01*
X111579564Y-26113704D01*
X111579572Y-26113706D01*
X111656092Y-26123780D01*
X111859049Y-26150500D01*
X112140951Y-26150500D01*
X112420442Y-26113704D01*
X112692739Y-26040742D01*
X112953183Y-25932863D01*
X113197317Y-25791912D01*
X113420965Y-25620300D01*
X113620300Y-25420965D01*
X113791912Y-25197317D01*
X113856272Y-25085843D01*
X115149500Y-25085843D01*
X115149500Y-25314157D01*
X115185216Y-25539660D01*
X115255769Y-25756799D01*
X115359421Y-25960228D01*
X115493621Y-26144937D01*
X115655063Y-26306379D01*
X115839772Y-26440579D01*
X116043201Y-26544231D01*
X116260340Y-26614784D01*
X116485843Y-26650500D01*
X116485847Y-26650500D01*
X116714153Y-26650500D01*
X116714157Y-26650500D01*
X116939660Y-26614784D01*
X117156799Y-26544231D01*
X117360228Y-26440579D01*
X117544937Y-26306379D01*
X117706379Y-26144937D01*
X117840579Y-25960228D01*
X117944231Y-25756799D01*
X118014784Y-25539660D01*
X118050500Y-25314157D01*
X118050500Y-25085843D01*
X118014784Y-24860340D01*
X117944231Y-24643201D01*
X117840579Y-24439772D01*
X117706379Y-24255063D01*
X117544937Y-24093621D01*
X117360228Y-23959421D01*
X117163225Y-23859043D01*
X119049500Y-23859043D01*
X119049500Y-24140956D01*
X119086293Y-24420427D01*
X119086295Y-24420440D01*
X119105285Y-24491309D01*
X119159258Y-24692739D01*
X119257731Y-24930476D01*
X119267139Y-24953187D01*
X119408089Y-25197319D01*
X119408090Y-25197321D01*
X119579700Y-25420965D01*
X119779034Y-25620299D01*
X120002678Y-25791909D01*
X120002681Y-25791910D01*
X120002683Y-25791912D01*
X120246817Y-25932863D01*
X120507261Y-26040742D01*
X120779558Y-26113704D01*
X120779564Y-26113704D01*
X120779572Y-26113706D01*
X120856092Y-26123780D01*
X121059049Y-26150500D01*
X121340951Y-26150500D01*
X121620442Y-26113704D01*
X121892739Y-26040742D01*
X122153183Y-25932863D01*
X122397317Y-25791912D01*
X122620965Y-25620300D01*
X122820300Y-25420965D01*
X122991912Y-25197317D01*
X123132863Y-24953183D01*
X123240742Y-24692739D01*
X123313704Y-24420442D01*
X123350500Y-24140951D01*
X123350500Y-23859049D01*
X123313704Y-23579558D01*
X123240742Y-23307261D01*
X123132863Y-23046817D01*
X122991912Y-22802683D01*
X122991910Y-22802680D01*
X122991909Y-22802678D01*
X122820299Y-22579034D01*
X122620965Y-22379700D01*
X122397321Y-22208090D01*
X122397319Y-22208089D01*
X122153187Y-22067139D01*
X122153185Y-22067138D01*
X122153183Y-22067137D01*
X122000619Y-22003943D01*
X121892742Y-21959259D01*
X121892740Y-21959258D01*
X121892739Y-21959258D01*
X121811845Y-21937582D01*
X121620440Y-21886295D01*
X121620427Y-21886293D01*
X121340956Y-21849500D01*
X121340951Y-21849500D01*
X121059049Y-21849500D01*
X121059043Y-21849500D01*
X120779572Y-21886293D01*
X120779559Y-21886295D01*
X120507257Y-21959259D01*
X120246812Y-22067139D01*
X120002680Y-22208089D01*
X120002678Y-22208090D01*
X119779034Y-22379700D01*
X119579700Y-22579034D01*
X119408090Y-22802678D01*
X119408089Y-22802680D01*
X119267139Y-23046812D01*
X119159259Y-23307257D01*
X119086295Y-23579559D01*
X119086293Y-23579572D01*
X119049500Y-23859043D01*
X117163225Y-23859043D01*
X117156799Y-23855769D01*
X116939660Y-23785216D01*
X116714157Y-23749500D01*
X116485843Y-23749500D01*
X116260340Y-23785216D01*
X116043201Y-23855769D01*
X116043195Y-23855771D01*
X116043195Y-23855772D01*
X115839773Y-23959420D01*
X115655066Y-24093618D01*
X115493618Y-24255066D01*
X115359420Y-24439773D01*
X115300642Y-24555132D01*
X115255769Y-24643201D01*
X115185216Y-24860340D01*
X115149500Y-25085843D01*
X113856272Y-25085843D01*
X113906910Y-24998136D01*
X113932859Y-24953190D01*
X113932859Y-24953189D01*
X113932863Y-24953183D01*
X114040742Y-24692739D01*
X114113704Y-24420442D01*
X114150500Y-24140951D01*
X114150500Y-23859049D01*
X114113704Y-23579558D01*
X114040742Y-23307261D01*
X113932863Y-23046817D01*
X113791912Y-22802683D01*
X113791910Y-22802680D01*
X113791909Y-22802678D01*
X113620299Y-22579034D01*
X113420965Y-22379700D01*
X113197321Y-22208090D01*
X113197319Y-22208089D01*
X112953187Y-22067139D01*
X112953185Y-22067138D01*
X112953183Y-22067137D01*
X112800619Y-22003943D01*
X112692742Y-21959259D01*
X112692740Y-21959258D01*
X112692739Y-21959258D01*
X112611845Y-21937582D01*
X112420440Y-21886295D01*
X112420427Y-21886293D01*
X112140956Y-21849500D01*
X112140951Y-21849500D01*
X111859049Y-21849500D01*
X111859043Y-21849500D01*
X111579572Y-21886293D01*
X111579559Y-21886295D01*
X111307257Y-21959259D01*
X111046812Y-22067139D01*
X110802680Y-22208089D01*
X110802678Y-22208090D01*
X110579034Y-22379700D01*
X110379700Y-22579034D01*
X110208090Y-22802678D01*
X110208089Y-22802680D01*
X110067139Y-23046812D01*
X109959259Y-23307257D01*
X109886295Y-23579559D01*
X109886293Y-23579572D01*
X109849500Y-23859043D01*
X98700500Y-23859043D01*
X98700500Y-22884306D01*
X98697598Y-22847431D01*
X98651744Y-22689602D01*
X98568081Y-22548135D01*
X98451865Y-22431919D01*
X98310398Y-22348256D01*
X98244279Y-22329046D01*
X98152571Y-22302402D01*
X98152572Y-22302402D01*
X98141506Y-22301531D01*
X98115694Y-22299500D01*
X95884306Y-22299500D01*
X95859722Y-22301434D01*
X95847428Y-22302402D01*
X95689599Y-22348257D01*
X95548136Y-22431918D01*
X95548133Y-22431920D01*
X95431920Y-22548133D01*
X95431918Y-22548136D01*
X95348257Y-22689599D01*
X95302402Y-22847428D01*
X95302402Y-22847431D01*
X95299500Y-22884306D01*
X46100618Y-22884306D01*
X55124842Y-13860081D01*
X71906499Y-13860081D01*
X71906499Y-13865354D01*
X71906499Y-14046446D01*
X71930474Y-14197815D01*
X71934829Y-14225309D01*
X71958935Y-14299500D01*
X71990788Y-14397538D01*
X72018470Y-14451866D01*
X72067522Y-14548136D01*
X72073005Y-14558895D01*
X72073005Y-14558896D01*
X72081720Y-14570891D01*
X72179447Y-14705401D01*
X72307499Y-14833453D01*
X72307502Y-14833455D01*
X75293500Y-17819452D01*
X75293503Y-17819454D01*
X75293506Y-17819457D01*
X75372540Y-17876878D01*
X75440004Y-17925894D01*
X75440004Y-17925895D01*
X75601358Y-18008110D01*
X75601360Y-18008110D01*
X75601361Y-18008111D01*
X75773591Y-18064072D01*
X75952454Y-18092401D01*
X75952458Y-18092401D01*
X76133543Y-18092401D01*
X76133547Y-18092401D01*
X76312409Y-18064072D01*
X76484639Y-18008111D01*
X76645994Y-17925896D01*
X76792501Y-17819452D01*
X76920552Y-17691401D01*
X77026996Y-17544894D01*
X77109211Y-17383539D01*
X77165172Y-17211309D01*
X77193501Y-17032447D01*
X77193501Y-16851354D01*
X77165172Y-16672491D01*
X77109211Y-16500261D01*
X77109210Y-16500260D01*
X77109210Y-16500258D01*
X77075959Y-16435000D01*
X77026996Y-16338906D01*
X76969718Y-16260070D01*
X76920557Y-16192406D01*
X76920554Y-16192403D01*
X76920552Y-16192400D01*
X74210398Y-13482245D01*
X74174049Y-13422928D01*
X74173241Y-13420442D01*
X74123211Y-13266461D01*
X74040996Y-13105106D01*
X73934553Y-12958599D01*
X73806501Y-12830547D01*
X73659994Y-12724104D01*
X73498639Y-12641889D01*
X73326409Y-12585929D01*
X73147546Y-12557600D01*
X72966454Y-12557600D01*
X72787591Y-12585929D01*
X72615360Y-12641889D01*
X72454004Y-12724105D01*
X72454003Y-12724105D01*
X72307500Y-12830546D01*
X72307497Y-12830548D01*
X72179448Y-12958597D01*
X72179446Y-12958600D01*
X72073005Y-13105103D01*
X72073005Y-13105104D01*
X71990789Y-13266460D01*
X71947564Y-13399497D01*
X71934829Y-13438691D01*
X71911471Y-13586172D01*
X71906500Y-13617557D01*
X71906500Y-13860051D01*
X71906499Y-13860081D01*
X55124842Y-13860081D01*
X57095538Y-11889385D01*
X74594500Y-11889385D01*
X74594500Y-12110615D01*
X74608723Y-12200415D01*
X74629108Y-12329122D01*
X74629108Y-12329124D01*
X74678137Y-12480018D01*
X74697472Y-12539525D01*
X74774480Y-12690662D01*
X74797910Y-12736644D01*
X74797910Y-12736645D01*
X74854582Y-12814647D01*
X74927945Y-12915622D01*
X75084378Y-13072055D01*
X75263357Y-13202091D01*
X75460475Y-13302528D01*
X75670878Y-13370892D01*
X75889385Y-13405500D01*
X75889389Y-13405500D01*
X76110611Y-13405500D01*
X76110615Y-13405500D01*
X76329122Y-13370892D01*
X76539525Y-13302528D01*
X76736643Y-13202091D01*
X76891769Y-13089385D01*
X79694500Y-13089385D01*
X79694500Y-13310615D01*
X79727670Y-13520042D01*
X79729108Y-13529122D01*
X79729108Y-13529124D01*
X79766174Y-13643201D01*
X79797472Y-13739525D01*
X79861585Y-13865354D01*
X79897910Y-13936644D01*
X79897910Y-13936645D01*
X79956651Y-14017495D01*
X80027945Y-14115622D01*
X80184378Y-14272055D01*
X80363357Y-14402091D01*
X80560475Y-14502528D01*
X80770878Y-14570892D01*
X80989385Y-14605500D01*
X80989389Y-14605500D01*
X81210611Y-14605500D01*
X81210615Y-14605500D01*
X81429122Y-14570892D01*
X81639525Y-14502528D01*
X81836643Y-14402091D01*
X82015622Y-14272055D01*
X82172055Y-14115622D01*
X82302091Y-13936643D01*
X82402528Y-13739525D01*
X82470892Y-13529122D01*
X82505500Y-13310615D01*
X82505500Y-13089385D01*
X82470892Y-12870878D01*
X82402528Y-12660475D01*
X82302091Y-12463357D01*
X82172055Y-12284378D01*
X82015622Y-12127945D01*
X81836643Y-11997909D01*
X81836642Y-11997908D01*
X81836640Y-11997907D01*
X81639525Y-11897472D01*
X81599004Y-11884306D01*
X95299500Y-11884306D01*
X95299500Y-14115694D01*
X95301757Y-14144374D01*
X95302402Y-14152571D01*
X95323535Y-14225309D01*
X95348256Y-14310398D01*
X95431919Y-14451865D01*
X95548135Y-14568081D01*
X95689602Y-14651744D01*
X95847428Y-14697597D01*
X95847427Y-14697597D01*
X95847431Y-14697598D01*
X95884306Y-14700500D01*
X95884313Y-14700500D01*
X98115687Y-14700500D01*
X98115694Y-14700500D01*
X98152569Y-14697598D01*
X98310398Y-14651744D01*
X98451865Y-14568081D01*
X98568081Y-14451865D01*
X98651744Y-14310398D01*
X98697598Y-14152569D01*
X98700500Y-14115694D01*
X98700500Y-12988270D01*
X98720462Y-12913770D01*
X98744141Y-12882911D01*
X100213111Y-11413941D01*
X100279906Y-11375377D01*
X100318470Y-11370300D01*
X110237726Y-11370300D01*
X110312226Y-11390262D01*
X110366764Y-11444800D01*
X110386726Y-11519300D01*
X110366764Y-11593800D01*
X110355935Y-11610006D01*
X110208090Y-11802678D01*
X110208089Y-11802680D01*
X110067139Y-12046812D01*
X109959259Y-12307257D01*
X109886295Y-12579559D01*
X109886293Y-12579572D01*
X109849500Y-12859043D01*
X109849500Y-13140956D01*
X109886293Y-13420427D01*
X109886295Y-13420440D01*
X109930703Y-13586172D01*
X109947502Y-13648867D01*
X109959259Y-13692742D01*
X109972771Y-13725363D01*
X110060286Y-13936644D01*
X110067139Y-13953187D01*
X110208089Y-14197319D01*
X110208090Y-14197321D01*
X110365216Y-14402089D01*
X110379700Y-14420965D01*
X110579035Y-14620300D01*
X110615468Y-14648256D01*
X110802678Y-14791909D01*
X110802681Y-14791910D01*
X110802683Y-14791912D01*
X111046817Y-14932863D01*
X111307261Y-15040742D01*
X111579558Y-15113704D01*
X111579564Y-15113704D01*
X111579572Y-15113706D01*
X111699036Y-15129433D01*
X111859049Y-15150500D01*
X112140951Y-15150500D01*
X112420442Y-15113704D01*
X112692739Y-15040742D01*
X112953183Y-14932863D01*
X113197317Y-14791912D01*
X113420965Y-14620300D01*
X113620300Y-14420965D01*
X113791912Y-14197317D01*
X113856272Y-14085843D01*
X115149500Y-14085843D01*
X115149500Y-14314157D01*
X115185216Y-14539660D01*
X115255769Y-14756799D01*
X115359421Y-14960228D01*
X115493621Y-15144937D01*
X115655063Y-15306379D01*
X115839772Y-15440579D01*
X116043201Y-15544231D01*
X116260340Y-15614784D01*
X116485843Y-15650500D01*
X116485847Y-15650500D01*
X116714153Y-15650500D01*
X116714157Y-15650500D01*
X116939660Y-15614784D01*
X117156799Y-15544231D01*
X117360228Y-15440579D01*
X117544937Y-15306379D01*
X117667010Y-15184306D01*
X136599500Y-15184306D01*
X136599500Y-16815694D01*
X136601757Y-16844374D01*
X136602402Y-16852571D01*
X136629046Y-16944279D01*
X136648256Y-17010398D01*
X136731919Y-17151865D01*
X136848135Y-17268081D01*
X136989602Y-17351744D01*
X137147428Y-17397597D01*
X137147427Y-17397597D01*
X137147431Y-17397598D01*
X137184306Y-17400500D01*
X137184313Y-17400500D01*
X138815687Y-17400500D01*
X138815694Y-17400500D01*
X138852569Y-17397598D01*
X139010398Y-17351744D01*
X139151865Y-17268081D01*
X139268081Y-17151865D01*
X139351744Y-17010398D01*
X139397598Y-16852569D01*
X139400500Y-16815694D01*
X139400500Y-15184306D01*
X139397598Y-15147431D01*
X139351744Y-14989602D01*
X139351742Y-14989600D01*
X139351742Y-14989597D01*
X139332598Y-14957226D01*
X139332597Y-14957224D01*
X139289474Y-14884306D01*
X156299500Y-14884306D01*
X156299500Y-17115694D01*
X156301757Y-17144374D01*
X156302402Y-17152571D01*
X156319467Y-17211308D01*
X156348256Y-17310398D01*
X156431919Y-17451865D01*
X156548135Y-17568081D01*
X156689602Y-17651744D01*
X156847428Y-17697597D01*
X156847427Y-17697597D01*
X156847431Y-17697598D01*
X156884306Y-17700500D01*
X156884313Y-17700500D01*
X159115687Y-17700500D01*
X159115694Y-17700500D01*
X159152569Y-17697598D01*
X159310398Y-17651744D01*
X159451865Y-17568081D01*
X159568081Y-17451865D01*
X159651744Y-17310398D01*
X159697598Y-17152569D01*
X159700500Y-17115694D01*
X159700500Y-14884306D01*
X159697598Y-14847431D01*
X159651744Y-14689602D01*
X159568081Y-14548135D01*
X159451865Y-14431919D01*
X159310398Y-14348256D01*
X159244279Y-14329046D01*
X159152571Y-14302402D01*
X159152572Y-14302402D01*
X159141506Y-14301531D01*
X159115694Y-14299500D01*
X156884306Y-14299500D01*
X156859722Y-14301434D01*
X156847428Y-14302402D01*
X156689599Y-14348257D01*
X156548136Y-14431918D01*
X156548133Y-14431920D01*
X156431920Y-14548133D01*
X156431918Y-14548136D01*
X156348257Y-14689599D01*
X156302402Y-14847428D01*
X156302346Y-14848141D01*
X156299500Y-14884306D01*
X139289474Y-14884306D01*
X139268086Y-14848141D01*
X139268079Y-14848133D01*
X139151866Y-14731920D01*
X139151865Y-14731919D01*
X139010398Y-14648256D01*
X138914174Y-14620300D01*
X138852571Y-14602402D01*
X138852572Y-14602402D01*
X138841506Y-14601531D01*
X138815694Y-14599500D01*
X137184306Y-14599500D01*
X137159722Y-14601434D01*
X137147428Y-14602402D01*
X136989599Y-14648257D01*
X136848136Y-14731918D01*
X136848133Y-14731920D01*
X136731920Y-14848133D01*
X136731918Y-14848136D01*
X136648257Y-14989599D01*
X136602402Y-15147428D01*
X136602160Y-15150500D01*
X136599500Y-15184306D01*
X117667010Y-15184306D01*
X117706379Y-15144937D01*
X117840579Y-14960228D01*
X117944231Y-14756799D01*
X118014784Y-14539660D01*
X118050500Y-14314157D01*
X118050500Y-14085843D01*
X118014784Y-13860340D01*
X117944231Y-13643201D01*
X117840579Y-13439772D01*
X117706379Y-13255063D01*
X117544937Y-13093621D01*
X117360228Y-12959421D01*
X117156799Y-12855769D01*
X116939660Y-12785216D01*
X116714157Y-12749500D01*
X116485843Y-12749500D01*
X116260340Y-12785216D01*
X116043201Y-12855769D01*
X116043195Y-12855771D01*
X116043195Y-12855772D01*
X115839773Y-12959420D01*
X115655066Y-13093618D01*
X115493618Y-13255066D01*
X115359420Y-13439773D01*
X115272529Y-13610308D01*
X115255769Y-13643201D01*
X115185216Y-13860340D01*
X115149500Y-14085843D01*
X113856272Y-14085843D01*
X113932863Y-13953183D01*
X114040742Y-13692739D01*
X114113704Y-13420442D01*
X114150500Y-13140951D01*
X114150500Y-12859049D01*
X114113704Y-12579558D01*
X114040742Y-12307261D01*
X113932863Y-12046817D01*
X113791912Y-11802683D01*
X113791910Y-11802680D01*
X113791909Y-11802678D01*
X113644065Y-11610006D01*
X113614549Y-11538749D01*
X113624616Y-11462281D01*
X113671568Y-11401091D01*
X113742825Y-11371575D01*
X113762274Y-11370300D01*
X117881529Y-11370300D01*
X117956029Y-11390262D01*
X117986888Y-11413941D01*
X119042041Y-12469094D01*
X119080605Y-12535889D01*
X119084407Y-12593901D01*
X119049500Y-12859044D01*
X119049500Y-13140956D01*
X119086293Y-13420427D01*
X119086295Y-13420440D01*
X119130703Y-13586172D01*
X119147502Y-13648867D01*
X119159259Y-13692742D01*
X119172771Y-13725363D01*
X119260286Y-13936644D01*
X119267139Y-13953187D01*
X119408089Y-14197319D01*
X119408090Y-14197321D01*
X119565216Y-14402089D01*
X119579700Y-14420965D01*
X119779035Y-14620300D01*
X119815468Y-14648256D01*
X120002678Y-14791909D01*
X120002681Y-14791910D01*
X120002683Y-14791912D01*
X120246817Y-14932863D01*
X120507261Y-15040742D01*
X120779558Y-15113704D01*
X120779564Y-15113704D01*
X120779572Y-15113706D01*
X120899036Y-15129433D01*
X121059049Y-15150500D01*
X121340951Y-15150500D01*
X121620442Y-15113704D01*
X121892739Y-15040742D01*
X122153183Y-14932863D01*
X122397317Y-14791912D01*
X122620965Y-14620300D01*
X122820300Y-14420965D01*
X122991912Y-14197317D01*
X123132863Y-13953183D01*
X123240742Y-13692739D01*
X123313704Y-13420442D01*
X123350500Y-13140951D01*
X123350500Y-12859049D01*
X123313704Y-12579558D01*
X123240742Y-12307261D01*
X123132863Y-12046817D01*
X122991912Y-11802683D01*
X122991910Y-11802680D01*
X122991909Y-11802678D01*
X122844065Y-11610006D01*
X122820300Y-11579035D01*
X122620965Y-11379700D01*
X122516447Y-11299500D01*
X122397321Y-11208090D01*
X122397319Y-11208089D01*
X122153187Y-11067139D01*
X122153185Y-11067138D01*
X122153183Y-11067137D01*
X121913178Y-10967724D01*
X121892742Y-10959259D01*
X121892740Y-10959258D01*
X121892739Y-10959258D01*
X121811845Y-10937582D01*
X121620440Y-10886295D01*
X121620427Y-10886293D01*
X121340956Y-10849500D01*
X121340951Y-10849500D01*
X121059049Y-10849500D01*
X121059044Y-10849500D01*
X120793901Y-10884407D01*
X120717433Y-10874340D01*
X120669094Y-10842041D01*
X119297355Y-9470302D01*
X119297353Y-9470299D01*
X119169301Y-9342247D01*
X119022794Y-9235804D01*
X118861439Y-9153589D01*
X118689210Y-9097629D01*
X118689180Y-9097624D01*
X118510347Y-9069299D01*
X118510346Y-9069299D01*
X118329254Y-9069299D01*
X118323111Y-9069299D01*
X118323087Y-9069300D01*
X99876914Y-9069300D01*
X99876890Y-9069299D01*
X99870747Y-9069299D01*
X99689654Y-9069299D01*
X99510816Y-9097624D01*
X99510791Y-9097628D01*
X99338558Y-9153589D01*
X99177204Y-9235805D01*
X99177203Y-9235805D01*
X99030700Y-9342246D01*
X99030697Y-9342248D01*
X98900612Y-9472334D01*
X97117088Y-11255859D01*
X97050293Y-11294423D01*
X97011729Y-11299500D01*
X95884306Y-11299500D01*
X95859722Y-11301434D01*
X95847428Y-11302402D01*
X95689599Y-11348257D01*
X95548136Y-11431918D01*
X95548133Y-11431920D01*
X95431920Y-11548133D01*
X95431918Y-11548136D01*
X95348257Y-11689599D01*
X95302402Y-11847428D01*
X95302402Y-11847431D01*
X95299500Y-11884306D01*
X81599004Y-11884306D01*
X81429123Y-11829108D01*
X81385420Y-11822186D01*
X81210615Y-11794500D01*
X80989385Y-11794500D01*
X80814579Y-11822186D01*
X80770877Y-11829108D01*
X80770875Y-11829108D01*
X80560474Y-11897472D01*
X80363355Y-11997910D01*
X80363354Y-11997910D01*
X80184387Y-12127938D01*
X80184376Y-12127947D01*
X80027947Y-12284376D01*
X80027938Y-12284387D01*
X79897910Y-12463354D01*
X79897910Y-12463355D01*
X79797472Y-12660474D01*
X79729108Y-12870875D01*
X79729108Y-12870877D01*
X79729108Y-12870878D01*
X79694500Y-13089385D01*
X76891769Y-13089385D01*
X76915622Y-13072055D01*
X77072055Y-12915622D01*
X77202091Y-12736643D01*
X77302528Y-12539525D01*
X77370892Y-12329122D01*
X77405500Y-12110615D01*
X77405500Y-11889385D01*
X77370892Y-11670878D01*
X77302528Y-11460475D01*
X77202091Y-11263357D01*
X77196643Y-11255859D01*
X77121605Y-11152578D01*
X77072055Y-11084378D01*
X76915622Y-10927945D01*
X76736643Y-10797909D01*
X76539525Y-10697472D01*
X76329123Y-10629108D01*
X76285420Y-10622186D01*
X76110615Y-10594500D01*
X75889385Y-10594500D01*
X75714579Y-10622186D01*
X75670877Y-10629108D01*
X75670875Y-10629108D01*
X75460474Y-10697472D01*
X75263355Y-10797910D01*
X75263354Y-10797910D01*
X75084387Y-10927938D01*
X75084376Y-10927947D01*
X74927947Y-11084376D01*
X74927938Y-11084387D01*
X74797910Y-11263354D01*
X74797910Y-11263355D01*
X74697472Y-11460474D01*
X74629108Y-11670875D01*
X74629108Y-11670877D01*
X74629108Y-11670878D01*
X74594500Y-11889385D01*
X57095538Y-11889385D01*
X61161308Y-7823615D01*
X61228101Y-7785053D01*
X61237587Y-7782841D01*
X61317328Y-7766980D01*
X61444811Y-7714175D01*
X61559542Y-7637514D01*
X61657114Y-7539942D01*
X61733775Y-7425211D01*
X61786580Y-7297728D01*
X61813500Y-7162393D01*
X61813500Y-7024407D01*
X61786580Y-6889072D01*
X61733775Y-6761589D01*
X61730075Y-6756052D01*
X61657116Y-6646861D01*
X61657114Y-6646858D01*
X61559542Y-6549286D01*
X61559538Y-6549283D01*
X61444815Y-6472627D01*
X61444809Y-6472624D01*
X61317329Y-6419820D01*
X61317325Y-6419819D01*
X61181993Y-6392900D01*
X61044007Y-6392900D01*
X60908674Y-6419819D01*
X60908670Y-6419820D01*
X60781190Y-6472624D01*
X60781184Y-6472627D01*
X60666461Y-6549283D01*
X60666454Y-6549289D01*
X60568889Y-6646854D01*
X60568883Y-6646861D01*
X60492227Y-6761584D01*
X60492224Y-6761590D01*
X60439420Y-6889070D01*
X60439417Y-6889079D01*
X60423558Y-6968804D01*
X60389444Y-7037978D01*
X60382781Y-7045092D01*
X39770489Y-27657385D01*
X39731249Y-27725353D01*
X39731248Y-27725355D01*
X39698017Y-27782911D01*
X39660500Y-27922923D01*
X39660500Y-36530316D01*
X39640538Y-36604816D01*
X39635389Y-36613096D01*
X39590225Y-36680686D01*
X39590224Y-36680690D01*
X39537420Y-36808170D01*
X39537419Y-36808174D01*
X39510500Y-36943506D01*
X31950906Y-36943506D01*
X25850441Y-30843041D01*
X25811877Y-30776246D01*
X25806800Y-30737682D01*
X25806800Y-26083110D01*
X25806800Y-26083109D01*
X25806404Y-26081116D01*
X25772195Y-25909134D01*
X25732629Y-25813614D01*
X25714366Y-25769524D01*
X25704316Y-25745260D01*
X25704315Y-25745259D01*
X25704313Y-25745253D01*
X25611725Y-25606686D01*
X25605764Y-25597764D01*
X9756836Y-9748836D01*
X9756834Y-9748835D01*
X9756830Y-9748831D01*
X9697777Y-9709374D01*
X9697756Y-9709361D01*
X9609343Y-9650284D01*
X9527407Y-9616346D01*
X9527406Y-9616346D01*
X9445466Y-9582405D01*
X9445464Y-9582404D01*
X9445463Y-9582404D01*
X9271492Y-9547800D01*
X9271491Y-9547800D01*
X6820192Y-9547800D01*
X6642809Y-9547800D01*
X6468834Y-9582404D01*
X6468826Y-9582407D01*
X6352953Y-9630402D01*
X6352954Y-9630403D01*
X6304955Y-9650285D01*
X6245957Y-9689706D01*
X6157465Y-9748836D01*
X6157462Y-9748839D01*
X6157461Y-9748839D01*
X5131489Y-10774809D01*
X5072176Y-10811157D01*
X4979972Y-10841117D01*
X4979969Y-10841118D01*
X4804598Y-10930474D01*
X4804594Y-10930476D01*
X4774763Y-10952150D01*
X4702758Y-10979790D01*
X4626579Y-10967724D01*
X4566640Y-10919185D01*
X4549525Y-10888623D01*
X4544374Y-10876187D01*
X4544372Y-10876184D01*
X4467716Y-10761461D01*
X4467714Y-10761458D01*
X4370142Y-10663886D01*
X4370138Y-10663883D01*
X4255415Y-10587227D01*
X4255409Y-10587224D01*
X4127929Y-10534420D01*
X4127925Y-10534419D01*
X3992593Y-10507500D01*
X3854607Y-10507500D01*
X3719274Y-10534419D01*
X3719270Y-10534420D01*
X3591790Y-10587224D01*
X3591784Y-10587227D01*
X3477061Y-10663883D01*
X3477054Y-10663889D01*
X3379489Y-10761454D01*
X3379483Y-10761461D01*
X3302827Y-10876184D01*
X3302824Y-10876190D01*
X3250020Y-11003670D01*
X3250017Y-11003679D01*
X3234158Y-11083404D01*
X3200044Y-11152578D01*
X3193381Y-11159692D01*
X2278190Y-12074884D01*
X2236932Y-12146347D01*
X2236931Y-12146346D01*
X2205717Y-12200411D01*
X2168200Y-12340424D01*
X2168200Y-18620726D01*
X2148238Y-18695226D01*
X2093700Y-18749764D01*
X2019200Y-18769726D01*
X1944700Y-18749764D01*
X1913841Y-18726085D01*
X1902445Y-18714689D01*
X1902442Y-18714686D01*
X1902438Y-18714683D01*
X1787715Y-18638027D01*
X1787709Y-18638024D01*
X1660229Y-18585220D01*
X1660225Y-18585219D01*
X1524893Y-18558300D01*
X1386907Y-18558300D01*
X1251574Y-18585219D01*
X1251570Y-18585220D01*
X1124090Y-18638024D01*
X1124084Y-18638027D01*
X1009361Y-18714683D01*
X1009354Y-18714689D01*
X911789Y-18812254D01*
X911783Y-18812261D01*
X835127Y-18926984D01*
X835126Y-18926986D01*
X787158Y-19042792D01*
X740206Y-19103982D01*
X668948Y-19133497D01*
X592480Y-19123430D01*
X531290Y-19076478D01*
X501775Y-19005220D01*
X500500Y-18985772D01*
X500500Y-4878706D01*
X3149500Y-4878706D01*
X3149500Y-5121293D01*
X3181160Y-5361781D01*
X3181161Y-5361787D01*
X3181162Y-5361789D01*
X3243946Y-5596100D01*
X3318665Y-5776489D01*
X3336778Y-5820216D01*
X3386052Y-5905561D01*
X3458064Y-6030289D01*
X3605735Y-6222738D01*
X3777262Y-6394265D01*
X3969711Y-6541936D01*
X4179788Y-6663224D01*
X4403900Y-6756054D01*
X4638211Y-6818838D01*
X4638217Y-6818838D01*
X4638218Y-6818839D01*
X4703600Y-6827446D01*
X4878712Y-6850500D01*
X5121288Y-6850500D01*
X5361789Y-6818838D01*
X5596100Y-6756054D01*
X5820212Y-6663224D01*
X6030289Y-6541936D01*
X6222738Y-6394265D01*
X6394265Y-6222738D01*
X6541936Y-6030289D01*
X6663224Y-5820212D01*
X6756054Y-5596100D01*
X6818838Y-5361789D01*
X6850500Y-5121288D01*
X6850500Y-4878712D01*
X6845179Y-4838298D01*
X6821067Y-4655135D01*
X6819470Y-4643006D01*
X110540200Y-4643006D01*
X110540200Y-4780993D01*
X110567119Y-4916325D01*
X110567120Y-4916329D01*
X110619924Y-5043809D01*
X110619927Y-5043815D01*
X110671697Y-5121293D01*
X110696586Y-5158542D01*
X110794158Y-5256114D01*
X110794161Y-5256116D01*
X110908884Y-5332772D01*
X110908886Y-5332773D01*
X110908889Y-5332775D01*
X111036372Y-5385580D01*
X111116101Y-5401439D01*
X111185275Y-5435552D01*
X111192392Y-5442217D01*
X112542786Y-6792610D01*
X112588216Y-6818839D01*
X112643051Y-6850498D01*
X112643055Y-6850500D01*
X112655685Y-6857792D01*
X112668311Y-6865082D01*
X112668312Y-6865082D01*
X112668315Y-6865084D01*
X112808325Y-6902600D01*
X112808326Y-6902600D01*
X112953274Y-6902600D01*
X127566516Y-6902600D01*
X127641016Y-6922562D01*
X127649296Y-6927711D01*
X127716886Y-6972874D01*
X127716888Y-6972874D01*
X127716889Y-6972875D01*
X127844372Y-7025680D01*
X127979707Y-7052600D01*
X128117693Y-7052600D01*
X128253028Y-7025680D01*
X128380511Y-6972875D01*
X128495242Y-6896214D01*
X128592814Y-6798642D01*
X128669475Y-6683911D01*
X128722280Y-6556428D01*
X128749200Y-6421093D01*
X128749200Y-6283107D01*
X128722280Y-6147772D01*
X128669475Y-6020289D01*
X128592814Y-5905558D01*
X128495242Y-5807986D01*
X128485685Y-5801600D01*
X128380515Y-5731327D01*
X128380509Y-5731324D01*
X128253029Y-5678520D01*
X128253025Y-5678519D01*
X128117693Y-5651600D01*
X127979707Y-5651600D01*
X127844374Y-5678519D01*
X127844370Y-5678520D01*
X127716890Y-5731324D01*
X127716886Y-5731325D01*
X127649296Y-5776489D01*
X127576261Y-5801281D01*
X127566516Y-5801600D01*
X113170542Y-5801600D01*
X113096042Y-5781638D01*
X113065183Y-5757959D01*
X112286418Y-4979193D01*
X112185931Y-4878706D01*
X163149500Y-4878706D01*
X163149500Y-5121293D01*
X163181160Y-5361781D01*
X163181161Y-5361787D01*
X163181162Y-5361789D01*
X163243946Y-5596100D01*
X163318665Y-5776489D01*
X163336778Y-5820216D01*
X163386052Y-5905561D01*
X163458064Y-6030289D01*
X163605735Y-6222738D01*
X163777262Y-6394265D01*
X163969711Y-6541936D01*
X164179788Y-6663224D01*
X164403900Y-6756054D01*
X164638211Y-6818838D01*
X164638217Y-6818838D01*
X164638218Y-6818839D01*
X164703600Y-6827446D01*
X164878712Y-6850500D01*
X165121288Y-6850500D01*
X165361789Y-6818838D01*
X165596100Y-6756054D01*
X165820212Y-6663224D01*
X166030289Y-6541936D01*
X166222738Y-6394265D01*
X166394265Y-6222738D01*
X166541936Y-6030289D01*
X166663224Y-5820212D01*
X166756054Y-5596100D01*
X166818838Y-5361789D01*
X166850500Y-5121288D01*
X166850500Y-4878712D01*
X166818838Y-4638211D01*
X166756054Y-4403900D01*
X166663224Y-4179788D01*
X166541936Y-3969711D01*
X166394265Y-3777262D01*
X166222738Y-3605735D01*
X166030289Y-3458064D01*
X165960263Y-3417634D01*
X165820216Y-3336778D01*
X165820214Y-3336777D01*
X165820212Y-3336776D01*
X165688932Y-3282398D01*
X165596103Y-3243947D01*
X165596101Y-3243946D01*
X165596100Y-3243946D01*
X165361789Y-3181162D01*
X165361787Y-3181161D01*
X165361781Y-3181160D01*
X165121293Y-3149500D01*
X165121288Y-3149500D01*
X164878712Y-3149500D01*
X164878706Y-3149500D01*
X164638218Y-3181160D01*
X164403896Y-3243947D01*
X164179783Y-3336778D01*
X163969712Y-3458063D01*
X163969711Y-3458064D01*
X163777262Y-3605735D01*
X163777260Y-3605736D01*
X163777256Y-3605740D01*
X163605740Y-3777256D01*
X163458063Y-3969712D01*
X163336778Y-4179783D01*
X163243947Y-4403896D01*
X163181160Y-4638218D01*
X163149500Y-4878706D01*
X112185931Y-4878706D01*
X111970917Y-4663692D01*
X111932353Y-4596897D01*
X111930139Y-4587401D01*
X111914280Y-4507674D01*
X111914279Y-4507670D01*
X111871296Y-4403900D01*
X111861475Y-4380189D01*
X111784814Y-4265458D01*
X111687242Y-4167886D01*
X111687238Y-4167883D01*
X111572515Y-4091227D01*
X111572509Y-4091224D01*
X111445029Y-4038420D01*
X111445025Y-4038419D01*
X111309693Y-4011500D01*
X111171707Y-4011500D01*
X111036374Y-4038419D01*
X111036370Y-4038420D01*
X110908890Y-4091224D01*
X110908884Y-4091227D01*
X110794161Y-4167883D01*
X110794154Y-4167889D01*
X110696589Y-4265454D01*
X110696583Y-4265461D01*
X110619927Y-4380184D01*
X110619924Y-4380190D01*
X110567120Y-4507670D01*
X110567119Y-4507674D01*
X110540200Y-4643006D01*
X6819470Y-4643006D01*
X6818839Y-4638216D01*
X6817102Y-4631732D01*
X6756054Y-4403900D01*
X6663224Y-4179788D01*
X6541936Y-3969711D01*
X6394265Y-3777262D01*
X6222738Y-3605735D01*
X6030289Y-3458064D01*
X5960263Y-3417634D01*
X5820216Y-3336778D01*
X5820214Y-3336777D01*
X5820212Y-3336776D01*
X5688932Y-3282398D01*
X5596103Y-3243947D01*
X5596101Y-3243946D01*
X5596100Y-3243946D01*
X5361789Y-3181162D01*
X5361787Y-3181161D01*
X5361781Y-3181160D01*
X5121293Y-3149500D01*
X5121288Y-3149500D01*
X4878712Y-3149500D01*
X4878706Y-3149500D01*
X4638218Y-3181160D01*
X4403896Y-3243947D01*
X4179783Y-3336778D01*
X3969712Y-3458063D01*
X3969711Y-3458064D01*
X3777262Y-3605735D01*
X3777260Y-3605736D01*
X3777256Y-3605740D01*
X3605740Y-3777256D01*
X3458063Y-3969712D01*
X3336778Y-4179783D01*
X3243947Y-4403896D01*
X3181160Y-4638218D01*
X3149500Y-4878706D01*
X500500Y-4878706D01*
X500500Y-649500D01*
X520462Y-575000D01*
X575000Y-520462D01*
X649500Y-500500D01*
X169350500Y-500500D01*
X169425000Y-520462D01*
G37*
%TD.AperFunction*%
%TA.AperFunction,Conductor*%
G36*
X6797644Y-50557388D02*
G01*
X6854962Y-50608996D01*
X6862759Y-50622503D01*
X6930476Y-50755405D01*
X7046172Y-50914646D01*
X7185354Y-51053828D01*
X7344595Y-51169524D01*
X7412744Y-51204247D01*
X7477495Y-51237240D01*
X7534813Y-51288849D01*
X7558647Y-51362202D01*
X7542611Y-51437644D01*
X7491002Y-51494962D01*
X7477495Y-51502760D01*
X7344598Y-51570474D01*
X7344593Y-51570477D01*
X7185363Y-51686165D01*
X7185352Y-51686174D01*
X7046174Y-51825352D01*
X7046165Y-51825363D01*
X6930477Y-51984593D01*
X6930474Y-51984598D01*
X6841121Y-52159963D01*
X6841114Y-52159981D01*
X6794019Y-52304925D01*
X6780291Y-52347174D01*
X6749500Y-52541583D01*
X6749500Y-52738417D01*
X6780291Y-52932826D01*
X6841116Y-53120025D01*
X6841119Y-53120030D01*
X6841121Y-53120036D01*
X6925179Y-53285010D01*
X6930476Y-53295405D01*
X7046172Y-53454646D01*
X7185354Y-53593828D01*
X7344595Y-53709524D01*
X7412744Y-53744247D01*
X7477495Y-53777240D01*
X7534813Y-53828849D01*
X7558647Y-53902202D01*
X7542611Y-53977644D01*
X7491002Y-54034962D01*
X7477495Y-54042760D01*
X7344598Y-54110474D01*
X7344593Y-54110477D01*
X7185363Y-54226165D01*
X7185352Y-54226174D01*
X7046174Y-54365352D01*
X7046165Y-54365363D01*
X6930477Y-54524593D01*
X6930474Y-54524598D01*
X6862760Y-54657495D01*
X6811151Y-54714813D01*
X6737798Y-54738647D01*
X6662356Y-54722611D01*
X6605038Y-54671002D01*
X6597240Y-54657495D01*
X6564247Y-54592744D01*
X6529524Y-54524595D01*
X6413828Y-54365354D01*
X6274646Y-54226172D01*
X6115405Y-54110476D01*
X6105010Y-54105179D01*
X5940036Y-54021121D01*
X5940030Y-54021119D01*
X5940025Y-54021116D01*
X5752826Y-53960291D01*
X5558417Y-53929500D01*
X5361583Y-53929500D01*
X5199575Y-53955159D01*
X5167173Y-53960291D01*
X5167171Y-53960291D01*
X5003843Y-54013360D01*
X4926821Y-54017397D01*
X4858099Y-53982381D01*
X4816093Y-53917696D01*
X4808800Y-53871653D01*
X4808800Y-51408346D01*
X4828762Y-51333846D01*
X4883300Y-51279308D01*
X4957800Y-51259346D01*
X5003840Y-51266638D01*
X5167174Y-51319709D01*
X5361583Y-51350500D01*
X5361588Y-51350500D01*
X5558412Y-51350500D01*
X5558417Y-51350500D01*
X5752826Y-51319709D01*
X5940025Y-51258884D01*
X6115405Y-51169524D01*
X6274646Y-51053828D01*
X6413828Y-50914646D01*
X6529524Y-50755405D01*
X6597240Y-50622503D01*
X6648848Y-50565186D01*
X6722201Y-50541352D01*
X6797644Y-50557388D01*
G37*
%TD.AperFunction*%
%TA.AperFunction,Conductor*%
G36*
X7187377Y-45975298D02*
G01*
X7344595Y-46089524D01*
X7412744Y-46124247D01*
X7477495Y-46157240D01*
X7534813Y-46208849D01*
X7558647Y-46282202D01*
X7542611Y-46357644D01*
X7491002Y-46414962D01*
X7477495Y-46422760D01*
X7344598Y-46490474D01*
X7344593Y-46490477D01*
X7185363Y-46606165D01*
X7185352Y-46606174D01*
X7046174Y-46745352D01*
X7046165Y-46745363D01*
X6930477Y-46904593D01*
X6930474Y-46904598D01*
X6841121Y-47079963D01*
X6841117Y-47079972D01*
X6841116Y-47079975D01*
X6780291Y-47267174D01*
X6749500Y-47461583D01*
X6749500Y-47658417D01*
X6780291Y-47852826D01*
X6841116Y-48040025D01*
X6841119Y-48040030D01*
X6841121Y-48040036D01*
X6893227Y-48142300D01*
X6930476Y-48215405D01*
X7046172Y-48374646D01*
X7185354Y-48513828D01*
X7344595Y-48629524D01*
X7385763Y-48650500D01*
X7477495Y-48697240D01*
X7534813Y-48748849D01*
X7558647Y-48822202D01*
X7542611Y-48897644D01*
X7491002Y-48954962D01*
X7477495Y-48962760D01*
X7344598Y-49030474D01*
X7344593Y-49030477D01*
X7185363Y-49146165D01*
X7185352Y-49146174D01*
X7046174Y-49285352D01*
X7046165Y-49285363D01*
X6930477Y-49444593D01*
X6930474Y-49444598D01*
X6862760Y-49577495D01*
X6811151Y-49634813D01*
X6737798Y-49658647D01*
X6662356Y-49642611D01*
X6605038Y-49591002D01*
X6597240Y-49577495D01*
X6542136Y-49469348D01*
X6529524Y-49444595D01*
X6413828Y-49285354D01*
X6274646Y-49146172D01*
X6115405Y-49030476D01*
X6105010Y-49025179D01*
X5940036Y-48941121D01*
X5940030Y-48941119D01*
X5940025Y-48941116D01*
X5752826Y-48880291D01*
X5558417Y-48849500D01*
X5361583Y-48849500D01*
X5199575Y-48875159D01*
X5167173Y-48880291D01*
X5167171Y-48880291D01*
X5003843Y-48933360D01*
X4926821Y-48937397D01*
X4858099Y-48902381D01*
X4816093Y-48837696D01*
X4808800Y-48791653D01*
X4808800Y-47352043D01*
X4828762Y-47277543D01*
X4852441Y-47246684D01*
X5146684Y-46952441D01*
X5213479Y-46913877D01*
X5252043Y-46908800D01*
X5920575Y-46908800D01*
X6060585Y-46871284D01*
X6081316Y-46859315D01*
X6186115Y-46798810D01*
X6994442Y-45990481D01*
X7061235Y-45951919D01*
X7138363Y-45951919D01*
X7187377Y-45975298D01*
G37*
%TD.AperFunction*%
%TA.AperFunction,Conductor*%
G36*
X9473999Y-12020179D02*
G01*
X9504858Y-12043858D01*
X23962159Y-26501159D01*
X24000723Y-26567954D01*
X24005800Y-26606518D01*
X24005800Y-31261092D01*
X24040404Y-31435064D01*
X24040405Y-31435067D01*
X24060959Y-31484686D01*
X24060960Y-31484689D01*
X24108283Y-31598939D01*
X24108286Y-31598945D01*
X24108287Y-31598947D01*
X24145096Y-31654035D01*
X24206836Y-31746436D01*
X24206839Y-31746439D01*
X33471259Y-41010859D01*
X33509823Y-41077654D01*
X33514900Y-41116218D01*
X33514900Y-41183292D01*
X33546619Y-41342760D01*
X33549505Y-41357266D01*
X33571546Y-41410476D01*
X33617386Y-41521146D01*
X33617389Y-41521151D01*
X33667173Y-41595657D01*
X33667174Y-41595658D01*
X33715936Y-41668636D01*
X33821478Y-41774178D01*
X33886659Y-41839358D01*
X33925223Y-41906153D01*
X33930300Y-41944717D01*
X33930300Y-43098757D01*
X33910338Y-43173257D01*
X33855800Y-43227795D01*
X33781300Y-43247757D01*
X33706800Y-43227795D01*
X33675941Y-43204116D01*
X13411115Y-22939290D01*
X13285585Y-22866816D01*
X13213240Y-22847431D01*
X13145575Y-22829300D01*
X6969543Y-22829300D01*
X6895043Y-22809338D01*
X6864184Y-22785659D01*
X6707889Y-22629364D01*
X6669325Y-22562569D01*
X6669325Y-22485441D01*
X6671527Y-22478006D01*
X6679709Y-22452826D01*
X6710500Y-22258417D01*
X6710500Y-22061583D01*
X6679709Y-21867174D01*
X6618884Y-21679975D01*
X6529524Y-21504595D01*
X6438736Y-21379637D01*
X6411097Y-21307635D01*
X6423162Y-21231457D01*
X6453919Y-21186704D01*
X7026703Y-20613920D01*
X7093496Y-20575358D01*
X7170624Y-20575358D01*
X7219636Y-20598735D01*
X7344592Y-20689522D01*
X7344598Y-20689526D01*
X7519963Y-20778878D01*
X7519975Y-20778884D01*
X7707174Y-20839709D01*
X7901583Y-20870500D01*
X7901588Y-20870500D01*
X8098412Y-20870500D01*
X8098417Y-20870500D01*
X8292826Y-20839709D01*
X8480025Y-20778884D01*
X8655405Y-20689524D01*
X8814646Y-20573828D01*
X8953828Y-20434646D01*
X9069524Y-20275405D01*
X9158884Y-20100025D01*
X9219709Y-19912826D01*
X9250500Y-19718417D01*
X9250500Y-19521583D01*
X9219709Y-19327174D01*
X9158884Y-19139975D01*
X9069524Y-18964595D01*
X8953828Y-18805354D01*
X8814646Y-18666172D01*
X8655405Y-18550476D01*
X8522503Y-18482759D01*
X8465186Y-18431152D01*
X8441352Y-18357799D01*
X8457388Y-18282356D01*
X8508996Y-18225038D01*
X8522504Y-18217240D01*
X8655405Y-18149524D01*
X8814646Y-18033828D01*
X8953828Y-17894646D01*
X9069524Y-17735405D01*
X9158884Y-17560025D01*
X9219709Y-17372826D01*
X9250500Y-17178417D01*
X9250500Y-16981583D01*
X9219709Y-16787174D01*
X9158884Y-16599975D01*
X9069524Y-16424595D01*
X8953828Y-16265354D01*
X8814646Y-16126172D01*
X8655405Y-16010476D01*
X8522503Y-15942759D01*
X8465186Y-15891152D01*
X8441352Y-15817799D01*
X8457388Y-15742356D01*
X8508996Y-15685038D01*
X8522504Y-15677240D01*
X8655405Y-15609524D01*
X8814646Y-15493828D01*
X8953828Y-15354646D01*
X9069524Y-15195405D01*
X9158884Y-15020025D01*
X9219709Y-14832826D01*
X9250500Y-14638417D01*
X9250500Y-14441583D01*
X9219709Y-14247174D01*
X9158884Y-14059975D01*
X9069524Y-13884595D01*
X8953828Y-13725354D01*
X8814646Y-13586172D01*
X8723625Y-13520041D01*
X8675088Y-13460103D01*
X8663022Y-13383924D01*
X8690663Y-13311919D01*
X8750602Y-13263381D01*
X8811205Y-13250499D01*
X8881518Y-13250499D01*
X8881519Y-13250499D01*
X8894341Y-13248468D01*
X8975304Y-13235646D01*
X9088342Y-13178050D01*
X9178050Y-13088342D01*
X9235646Y-12975304D01*
X9250500Y-12881519D01*
X9250499Y-12149215D01*
X9270461Y-12074717D01*
X9324999Y-12020179D01*
X9399499Y-12000217D01*
X9473999Y-12020179D01*
G37*
%TD.AperFunction*%
%TA.AperFunction,Conductor*%
G36*
X4529100Y-33945205D02*
G01*
X4559959Y-33968884D01*
X4621585Y-34030510D01*
X4741987Y-34100023D01*
X4741989Y-34100025D01*
X4747110Y-34102982D01*
X4747113Y-34102983D01*
X4747115Y-34102984D01*
X4887125Y-34140500D01*
X4887126Y-34140500D01*
X5032074Y-34140500D01*
X6719989Y-34140500D01*
X6794489Y-34160462D01*
X6849027Y-34215000D01*
X6868989Y-34289500D01*
X6852748Y-34357146D01*
X6841120Y-34379964D01*
X6841116Y-34379974D01*
X6841116Y-34379975D01*
X6780291Y-34567174D01*
X6749500Y-34761583D01*
X6749500Y-34958417D01*
X6780291Y-35152826D01*
X6841116Y-35340025D01*
X6841119Y-35340030D01*
X6841121Y-35340036D01*
X6882089Y-35420440D01*
X6930476Y-35515405D01*
X7046172Y-35674646D01*
X7185354Y-35813828D01*
X7344595Y-35929524D01*
X7412744Y-35964247D01*
X7477495Y-35997240D01*
X7534813Y-36048849D01*
X7558647Y-36122202D01*
X7542611Y-36197644D01*
X7491002Y-36254962D01*
X7477495Y-36262760D01*
X7344598Y-36330474D01*
X7344593Y-36330477D01*
X7185363Y-36446165D01*
X7185352Y-36446174D01*
X7046174Y-36585352D01*
X7046165Y-36585363D01*
X6930477Y-36744593D01*
X6930474Y-36744598D01*
X6862760Y-36877495D01*
X6811151Y-36934813D01*
X6737798Y-36958647D01*
X6662356Y-36942611D01*
X6605038Y-36891002D01*
X6597240Y-36877495D01*
X6553632Y-36791910D01*
X6529524Y-36744595D01*
X6413828Y-36585354D01*
X6274646Y-36446172D01*
X6115405Y-36330476D01*
X6083369Y-36314153D01*
X5940036Y-36241121D01*
X5940030Y-36241119D01*
X5940025Y-36241116D01*
X5752826Y-36180291D01*
X5558417Y-36149500D01*
X5361583Y-36149500D01*
X5167174Y-36180291D01*
X5114768Y-36197319D01*
X4979975Y-36241116D01*
X4979972Y-36241117D01*
X4979963Y-36241121D01*
X4804598Y-36330474D01*
X4804593Y-36330477D01*
X4645363Y-36446165D01*
X4645357Y-36446169D01*
X4645354Y-36446172D01*
X4559956Y-36531569D01*
X4493164Y-36570132D01*
X4416036Y-36570132D01*
X4349241Y-36531568D01*
X4310677Y-36464773D01*
X4305600Y-36426209D01*
X4305600Y-34074243D01*
X4325562Y-33999743D01*
X4380100Y-33945205D01*
X4454600Y-33925243D01*
X4529100Y-33945205D01*
G37*
%TD.AperFunction*%
%TA.AperFunction,Conductor*%
G36*
X4529100Y-25544753D02*
G01*
X4559954Y-25568428D01*
X4645354Y-25653828D01*
X4804595Y-25769524D01*
X4979975Y-25858884D01*
X5167174Y-25919709D01*
X5361583Y-25950500D01*
X5361588Y-25950500D01*
X5558412Y-25950500D01*
X5558417Y-25950500D01*
X5577045Y-25947549D01*
X5653747Y-25955609D01*
X5716146Y-26000942D01*
X5747519Y-26071401D01*
X5746491Y-26123780D01*
X5741178Y-26150499D01*
X5740400Y-26154409D01*
X5740400Y-26292393D01*
X5767319Y-26427725D01*
X5767320Y-26427729D01*
X5820124Y-26555209D01*
X5820127Y-26555215D01*
X5896783Y-26669938D01*
X5896786Y-26669942D01*
X5994358Y-26767514D01*
X6109089Y-26844175D01*
X6109090Y-26844175D01*
X6113280Y-26846975D01*
X6164134Y-26904963D01*
X6179500Y-26970864D01*
X6179500Y-28499988D01*
X6159538Y-28574488D01*
X6105000Y-28629026D01*
X6030500Y-28648988D01*
X5962858Y-28632749D01*
X5940037Y-28621121D01*
X5940029Y-28621118D01*
X5940025Y-28621116D01*
X5752826Y-28560291D01*
X5558417Y-28529500D01*
X5361583Y-28529500D01*
X5167174Y-28560291D01*
X4979975Y-28621116D01*
X4979972Y-28621117D01*
X4979963Y-28621121D01*
X4804598Y-28710474D01*
X4804593Y-28710477D01*
X4645363Y-28826165D01*
X4645357Y-28826169D01*
X4645354Y-28826172D01*
X4559956Y-28911569D01*
X4493164Y-28950132D01*
X4416036Y-28950132D01*
X4349241Y-28911568D01*
X4310677Y-28844773D01*
X4305600Y-28806209D01*
X4305600Y-25673791D01*
X4325562Y-25599291D01*
X4380100Y-25544753D01*
X4454600Y-25524791D01*
X4529100Y-25544753D01*
G37*
%TD.AperFunction*%
%TA.AperFunction,Conductor*%
G36*
X6794489Y-16380462D02*
G01*
X6849027Y-16435000D01*
X6868989Y-16509500D01*
X6852748Y-16577146D01*
X6841120Y-16599964D01*
X6841116Y-16599974D01*
X6841116Y-16599975D01*
X6780291Y-16787174D01*
X6749500Y-16981583D01*
X6749500Y-17178417D01*
X6770404Y-17310400D01*
X6780291Y-17372826D01*
X6780291Y-17372828D01*
X6788458Y-17397962D01*
X6792495Y-17474984D01*
X6757480Y-17543705D01*
X6752110Y-17549364D01*
X6289490Y-18011984D01*
X6243062Y-18092401D01*
X6217016Y-18137515D01*
X6213798Y-18149525D01*
X6179500Y-18277524D01*
X6179500Y-18339988D01*
X6159538Y-18414488D01*
X6105000Y-18469026D01*
X6030500Y-18488988D01*
X5962858Y-18472749D01*
X5940037Y-18461121D01*
X5940029Y-18461118D01*
X5940025Y-18461116D01*
X5752826Y-18400291D01*
X5558417Y-18369500D01*
X5361583Y-18369500D01*
X5167174Y-18400291D01*
X4979975Y-18461116D01*
X4979972Y-18461117D01*
X4979963Y-18461121D01*
X4804598Y-18550474D01*
X4804593Y-18550477D01*
X4645363Y-18666165D01*
X4645352Y-18666174D01*
X4506174Y-18805352D01*
X4506165Y-18805363D01*
X4390477Y-18964593D01*
X4390474Y-18964598D01*
X4301121Y-19139963D01*
X4301114Y-19139981D01*
X4240291Y-19327174D01*
X4209500Y-19521583D01*
X4209500Y-19718417D01*
X4240291Y-19912826D01*
X4301116Y-20100025D01*
X4301119Y-20100030D01*
X4301121Y-20100036D01*
X4385179Y-20265010D01*
X4390476Y-20275405D01*
X4506172Y-20434646D01*
X4506182Y-20434656D01*
X4509383Y-20438404D01*
X4542588Y-20508018D01*
X4536537Y-20584909D01*
X4501442Y-20640532D01*
X4058259Y-21083715D01*
X3991464Y-21122279D01*
X3914336Y-21122279D01*
X3847541Y-21083715D01*
X3808977Y-21016920D01*
X3803900Y-20978356D01*
X3803900Y-17818643D01*
X3823862Y-17744143D01*
X3847541Y-17713284D01*
X5156684Y-16404141D01*
X5223479Y-16365577D01*
X5262043Y-16360500D01*
X6719989Y-16360500D01*
X6794489Y-16380462D01*
G37*
%TD.AperFunction*%
%TD*%
M02*
